<svg id="Group_140" data-name="Group 140" xmlns="http://www.w3.org/2000/svg" width="955.666" height="357.542" viewBox="0 0 955.666 357.542">
  <path id="Path_1" data-name="Path 1" d="M190.241,95.122a9.484,9.484,0,0,1-.544,3.706q-.874,1.636-4.8,1.635H5.34q-3.922,0-4.9-1.964A9.161,9.161,0,0,1,0,95.122V82.7a8.557,8.557,0,0,1,.547-3.6q.869-1.739,4.793-1.742h141.21V38.139q0-3.815-3.924-3.816-3.815,0-3.813,3.816V64.287q0,3.922-1.85,4.9a10.189,10.189,0,0,1-3.491.436H5.34q-3.922,0-4.9-1.964A9.185,9.185,0,0,1,0,64.287V8.173Q0,0,2.071,0q.762,0,4.793,5.122a89.541,89.541,0,0,0,9.261,10.186q3.922,3.546,13.185,10.411,6.536,4.792,6.536,5.988,0,1.636-2.722,2.4a13.665,13.665,0,0,0-5.559,2.612q-3.268,2.945-4.139,9.808h92.286V37.263q0-11.87,7.519-18.19,5.446-3.273,11.007-6.539a24.929,24.929,0,0,0,5.119-5.448q1.856-2.4,3.269-2.4,1.524,0,3.377,2.4a25.013,25.013,0,0,0,5.122,5.448q5.559,3.268,11,6.539,7.517,6.316,7.519,18.19v40.1H184.9q3.927,0,4.9,1.853a10.153,10.153,0,0,1,.436,3.488Z" transform="translate(0 179.175)" fill="#d6d6d6"/>
  <path id="Path_2" data-name="Path 2" d="M95.122,76.378a8.025,8.025,0,0,1-.655,3.706q-.874,1.636-4.686,1.635H74.529v5.34q0,11.87-7.519,18.2Q61.456,108.524,56,111.791a26.915,26.915,0,0,0-5.226,5.448c-1.163,1.6-2.253,2.4-3.269,2.4s-2.107-.8-3.269-2.4a24.931,24.931,0,0,0-5.119-5.448q-5.559-3.273-11.007-6.536-7.517-6.321-7.519-18.2v-5.34H5.34q-4.03,0-4.9-1.85A10.174,10.174,0,0,1,0,76.378V63.958a8.674,8.674,0,0,1,.544-3.6q.879-1.739,4.8-1.742H38.357q3.917,0,4.9,1.856a10.133,10.133,0,0,1,.436,3.484V86.187q0,3.81,3.813,3.813,3.922,0,3.921-3.813V52.3q0-9.911-3.377-14.273a10.694,10.694,0,0,0-6.1-3.706q-3.268-.982-3.269-2.615,0-1.089,6.539-5.992,9.256-6.863,12.967-10.245A82.571,82.571,0,0,0,67.554,5.122Q71.7,0,72.458,0q2.071,0,2.071,8.17V58.618H89.782q3.922,0,4.793,1.856a8.271,8.271,0,0,1,.547,3.484Zm-57.856,71.7a11.535,11.535,0,0,1-11.55,11.55,11.55,11.55,0,1,1,0-23.1,11.535,11.535,0,0,1,11.55,11.55m33.993,0a11.557,11.557,0,0,1-19.721,8.173,11.55,11.55,0,0,1,8.17-19.724,11.529,11.529,0,0,1,11.55,11.55" transform="translate(179.561 197.918)" fill="#d6d6d6"/>
  <path id="Path_3" data-name="Path 3" d="M96.21,63.633q0,5.344-5.448,5.34H5.34Q0,68.973,0,63.633V51.213q0-5.339,5.34-5.34H21.03q1.636-5.339,3.269-10.567,2.174-6.863,5.448-10.245a36.9,36.9,0,0,1,13.4-8.936q6.863-2.5,13.84-5.119A36.591,36.591,0,0,0,67.225,4.031Q71.909,0,72.676,0q2.506,0,2.507,6.757V45.873H90.762q5.446,0,5.448,5.34ZM52.083,45.873v-11a12.822,12.822,0,0,0-7.356,3.976,10.123,10.123,0,0,0-3,7.027Z" transform="translate(264.005 210.664)" fill="#d6d6d6"/>
  <path id="Path_4" data-name="Path 4" d="M99.479,45.218q0,15.255-10.788,41.841-10.683,25.058-21.463,50.122-12.422,31.706-15.253,56.547H79.433q4.025,0,4.9,1.853a10.249,10.249,0,0,1,.433,3.488v12.42a9.412,9.412,0,0,1-.547,3.706q-.864,1.636-4.787,1.635H52.848q0,12.749,6.972,19.721,4.679,4.577,12.967,6.864c4.64,1.306,6.969,2.179,6.969,2.615q0,2.178-6.643,3.7a41.262,41.262,0,0,1-8.607,1.091q-15.474,0-25.064-9.587-4.137-4.25-7.079-12.312a36.757,36.757,0,0,1-2.615-12.094H5.34q-4.03,0-4.9-1.853A10.153,10.153,0,0,1,0,211.489v-12.42a8.674,8.674,0,0,1,.544-3.6q.879-1.739,4.8-1.742H28.874q2.179-27.783,14.6-58.947Q54.369,110.593,65.268,86.4q11.22-25.707,11.218-42.167a19.412,19.412,0,0,0-4.9-12.638q-5.9-7.3-15.907-7.3A19.031,19.031,0,0,0,42.06,29.581q-5.559,5.285-6.1,5.285-3.375,0-5.012-4.142a39.944,39.944,0,0,0-5.884-10.459Q11.99,5.015,11.987,2.722a1.754,1.754,0,0,1,.326-1.088Q14.056,0,55.241,0,75.288,0,86.62,10.241,99.476,21.9,99.479,45.218" transform="translate(349.43 62.808)" fill="#d6d6d6"/>
  <path id="Path_5" data-name="Path 5" d="M74.529,223.257q0,11.879-7.519,18.2-5.554,3.263-11,6.532a26.836,26.836,0,0,0-5.23,5.448q-1.744,2.4-3.269,2.4t-3.269-2.4a24.855,24.855,0,0,0-5.119-5.448q-5.559-3.268-11.007-6.532-7.517-6.326-7.516-18.2v-5.226H5.341q-4.03,0-4.9-1.856A10.122,10.122,0,0,1,0,212.69V200.267a8.644,8.644,0,0,1,.544-3.6q.879-1.744,4.8-1.742H38.357q4.03,0,4.9,1.853a10.144,10.144,0,0,1,.436,3.484v22.117q0,3.815,3.813,3.816,3.922,0,3.921-3.816V52.3q0-9.911-3.377-14.273a10.708,10.708,0,0,0-6.1-3.7q-3.268-.982-3.269-2.618,0-1.084,6.539-5.995,9.261-6.858,12.967-10.238A82.861,82.861,0,0,0,67.554,5.122Q71.7,0,72.458,0q2.071,0,2.071,8.17Z" transform="translate(423.519 61.61)" fill="#d6d6d6"/>
  <path id="Path_6" data-name="Path 6" d="M35.846,31.707q0,1.636-3.266,2.615a10.773,10.773,0,0,0-6.21,3.7Q23.1,42.387,23.1,52.3V250.99H0V8.174Q0,0,2.071,0q.757,0,4.8,5.122a89.27,89.27,0,0,0,9.258,10.186q3.922,3.541,13.185,10.407,6.536,4.8,6.536,5.992" transform="translate(522.019 27.562)" fill="#d6d6d6"/>
  <path id="Path_7" data-name="Path 7" d="M190.242,95.122a9.483,9.483,0,0,1-.544,3.706q-.874,1.636-4.8,1.635H5.34q-3.922,0-4.9-1.964A9.091,9.091,0,0,1,0,95.122V82.7a8.675,8.675,0,0,1,.544-3.6q.874-1.739,4.8-1.742H146.55V38.139q0-3.815-3.924-3.816-3.815,0-3.813,3.816V64.287q0,3.922-1.849,4.9a10.191,10.191,0,0,1-3.491.436H5.34q-3.922,0-4.9-1.964A9.114,9.114,0,0,1,0,64.287V8.173Q0,0,2.071,0q.757,0,4.793,5.122a89.54,89.54,0,0,0,9.261,10.186q3.922,3.546,13.185,10.411,6.535,4.792,6.536,5.988,0,1.636-2.722,2.4a13.664,13.664,0,0,0-5.559,2.612q-3.268,2.945-4.142,9.808h92.289V37.263q0-11.87,7.519-18.19,5.446-3.273,11.007-6.539a24.926,24.926,0,0,0,5.119-5.448q1.856-2.4,3.269-2.4,1.524,0,3.377,2.4a25.018,25.018,0,0,0,5.122,5.448q5.559,3.268,11,6.539,7.517,6.316,7.519,18.19v40.1H184.9q3.927,0,4.9,1.853a10.152,10.152,0,0,1,.436,3.488Z" transform="translate(602.098 174.857)" fill="#d6d6d6"/>
  <path id="Path_8" data-name="Path 8" d="M95.122,76.378a8.027,8.027,0,0,1-.654,3.706q-.875,1.636-4.683,1.635H74.529v5.34q0,11.87-7.519,18.2-5.554,3.268-11,6.536a26.839,26.839,0,0,0-5.23,5.448c-1.162,1.6-2.253,2.4-3.269,2.4s-2.107-.8-3.269-2.4a24.857,24.857,0,0,0-5.119-5.448q-5.559-3.273-11.007-6.536-7.517-6.321-7.519-18.2v-5.34H5.34q-4.03,0-4.9-1.85A10.171,10.171,0,0,1,0,76.378V63.958a8.675,8.675,0,0,1,.544-3.6q.879-1.739,4.8-1.742H38.357q3.917,0,4.9,1.856a10.133,10.133,0,0,1,.436,3.484V86.187q0,3.81,3.813,3.813,3.922,0,3.921-3.813V52.3q0-9.911-3.377-14.273a10.694,10.694,0,0,0-6.1-3.706q-3.268-.982-3.269-2.615,0-1.089,6.539-5.992,9.261-6.863,12.967-10.245A82.569,82.569,0,0,0,67.554,5.122Q71.7,0,72.458,0q2.071,0,2.071,8.17V58.618H89.785q3.917,0,4.79,1.856a8.217,8.217,0,0,1,.547,3.484ZM59.058,152.291a11.529,11.529,0,0,1-11.55,11.55,11.55,11.55,0,1,1,8.174-19.724,11.159,11.159,0,0,1,3.377,8.174" transform="translate(781.658 193.601)" fill="#d6d6d6"/>
  <path id="Path_9" data-name="Path 9" d="M89.564,101.276q0,2.726-8.5,2.726l-75.727.107q-4.03,0-4.9-1.85A10.178,10.178,0,0,1,0,98.768V86.349a8.648,8.648,0,0,1,.544-3.6q.879-1.744,4.8-1.745H20.593q-3.488-4.137-3.488-13.182a32.3,32.3,0,0,1,3.706-15.582A49.889,49.889,0,0,1,36.5,34.7q7.737-4.679,15.474-9.261,7.41-5.119,8.932-12.638a72.182,72.182,0,0,0,.655-8.066c.143-2.9.619-4.468,1.417-4.683Q65.157-.6,67.446,6.593A36.67,36.67,0,0,1,69.41,16.945a49.835,49.835,0,0,1-2.293,14.432q-2.286,7.576-2.286,7.464,0,1.314,3.647,6.757t3.65,7.848q0,2.393-1.742,2.393a50.5,50.5,0,0,1-4.575-2.615A18.707,18.707,0,0,0,56,50.61a13.563,13.563,0,0,0-10.4,4.738,14.932,14.932,0,0,0-4.3,10.189,13.739,13.739,0,0,0,5.119,11.114,15.574,15.574,0,0,0,10.245,3.813A14.915,14.915,0,0,0,66.3,76.98a34.181,34.181,0,0,1,4.631-3.488q1.637,0,3.491,4.468a47.554,47.554,0,0,0,5.226,10.023q.875,1.2,6.21,7.737,3.708,4.469,3.706,5.555" transform="translate(866.103 171.21)" fill="#d6d6d6"/>
  <path id="Path_60" data-name="Path 60" d="M.035,41.428C-.226,35.668.9,33.538,5.7,31.66Q40.869,17.9,76.1,4.287C79.614,2.922,83.127,1.55,87.106,0c-.724,4.751-2.369,8.077-6.519,9.683C68.144,14.5,55.66,19.211,43.264,24.146,30.008,29.424,16.838,34.916,3.621,40.292,2.492,40.752,1.292,41.035.035,41.428Z" transform="translate(365.881 0)" fill="#d6d6d6"/>
  <path id="Path_65" data-name="Path 65" d="M.035,41.428C-.226,35.668.9,33.538,5.7,31.66Q40.869,17.9,76.1,4.287C79.614,2.922,83.127,1.55,87.106,0c-.724,4.751-2.369,8.077-6.519,9.683C68.144,14.5,55.66,19.211,43.264,24.146,30.008,29.424,16.838,34.916,3.621,40.292,2.492,40.752,1.292,41.035.035,41.428Z" transform="translate(262.325 303.453)" fill="#d6d6d6"/>
  <g id="Group_114" data-name="Group 114" transform="translate(620.046 125.466)">
    <path id="Path_62" data-name="Path 62" d="M13.526.267C11.212,9.72,8.66,19.126,6.713,28.656A25.84,25.84,0,0,0,7.2,38.794c.877,4.183,4.8,5.047,7.782,1.877a68.984,68.984,0,0,0,4.74-6.29c1.792,5.754-2.422,17.215-7.146,19.875C7.451,57.144.611,52.492.159,45.306-.125,40.78-.147,35.955,1.1,31.67,3.922,22.009,7.576,12.587,10.976,3.1A15.493,15.493,0,0,1,13.021,0Z" transform="translate(0 0)" fill="#d6d6d6"/>
  </g>
  <g id="Group_115" data-name="Group 115" transform="translate(17.948 151.796)">
    <path id="Path_62-2" data-name="Path 62" d="M9.258.182C7.674,6.653,5.927,13.091,4.6,19.614a17.684,17.684,0,0,0,.336,6.94c.6,2.863,3.283,3.454,5.326,1.285A47.326,47.326,0,0,0,13.5,23.533c1.226,3.938-1.658,11.782-4.891,13.6C5.1,39.114.419,35.93.109,31.011a27.761,27.761,0,0,1,.646-9.333c1.93-6.614,4.43-13.062,6.757-19.556A10.565,10.565,0,0,1,8.912,0Z" transform="translate(0 0)" fill="#d6d6d6"/>
  </g>
  <path id="Path_63" data-name="Path 63" d="M0,64.474,52.652,30.318C49.1,27.3,46.917,25.4,44.688,23.552c-2.877-2.385-3.726-5.2-2.564-8.86C44.2,8.142,48.154,3.279,54.545.76c5.108-2.015,8.317.033,8.846,5.512a20.993,20.993,0,0,1-.416,7.67c-1.266,4.391-1.144,8.029,1.9,11.877,1.2,1.518.754,4.816.246,7.124C63.555,40.08,61.531,47.117,59.84,54.23a7.668,7.668,0,0,0,.186,4.369c.7,1.735,1.733,3.811,3.222,4.571.858.438,3-1.285,4.364-2.3.947-.7,1.564-1.847,2.885-2.541.353,5.234-.954,10.028-4.511,13.788a5.976,5.976,0,0,1-10.144-3.5,59.192,59.192,0,0,1,.325-15.754c.681-4.873,2.763-9.539,3.665-14.4.335-1.806-.927-3.91-1.461-5.879-1.659.764-3.769,1.115-4.911,2.356-13.525,14.7-30.218,23.9-49.4,28.869C3.235,64.029,2.371,64.1,0,64.474ZM59.291,15.351c-2.418-2.364-4.145-4.479-6.339-5.844-.447-.278-2.647,2.259-4.039,3.5,2.207,1.951,4.365,3.967,6.72,5.721C55.814,18.86,57.382,17.134,59.291,15.351Z" transform="translate(693.192 88.524)" fill="#d6d6d6"/>
  <path id="Path_64" data-name="Path 64" d="M1.01,38.526,36.985,19.214l-.8-2.99c-11.823-5.682-23.98-.731-35.969.6C-1.255,8.616,5.012.888,14.359.36A290.639,290.639,0,0,1,44.123.41c6.817.315,9.1,4.8,6.364,10.992C43.874,26.379,18.147,41.27,1.01,38.526Z" transform="translate(861.2 93.709)" fill="#d6d6d6"/>
  <path id="Path_66" data-name="Path 66" d="M30.781,33.607c3.452-9.729,5.86-18.465,9.733-26.495C42.123,3.781,46.773.183,50.212,0c2.878-.152,7.124,3.957,8.682,7.185,1.286,2.666-.473,6.8-.886,10.313-2.349-.373-2.9-.3-3.226-.535-8.714-6.123-10.051-5.92-13.584,4.47C38.607,29.052,37.24,37.076,34.941,44.8c-.981,3.3-2.946,6.309-4.465,9.449l-1.88-.283c-.7-2.038-1.325-4.1-2.1-6.107-2.3-6.013-4.108-12.317-7.238-17.869-1.485-2.636-5.361-4.912-8.471-5.424C5.521,23.7.192,22.075,0,16.849-.131,13.091,3.132,7.264,6.372,5.894c3.1-1.313,9.462.7,12.019,3.458,4.245,4.571,6.7,10.848,9.686,16.524C29.2,28,29.7,30.452,30.781,33.607Z" transform="translate(75.971 146.981)" fill="#d6d6d6"/>
  <path id="Path_67" data-name="Path 67" d="M20.49,22.371c2.3-6.476,3.9-12.292,6.479-17.637C28.039,2.517,31.135.122,33.425,0,35.34-.1,38.166,2.637,39.2,4.786c.857,1.775-.315,4.529-.59,6.865a9.749,9.749,0,0,1-2.147-.356c-5.8-4.076-6.69-3.941-9.042,2.975-1.725,5.069-2.635,10.41-4.165,15.553a43.7,43.7,0,0,1-2.972,6.29l-1.251-.188c-.463-1.357-.882-2.729-1.395-4.066-1.533-4-2.735-8.2-4.818-11.9a8.757,8.757,0,0,0-5.639-3.611C3.675,15.777.128,14.694,0,11.216c-.09-2.5,2.082-6.38,4.239-7.292,2.066-.874,6.3.468,8,2.3,2.826,3.043,4.459,7.221,6.448,11A38.89,38.89,0,0,1,20.49,22.371Z" transform="translate(369.922 110.867)" fill="#d6d6d6"/>
  <path id="Path_68" data-name="Path 68" d="M18.451,6.8,15.246,4.364c-.814,2.076-1.65,3.8-2.167,5.622-.771,2.717-1.4,5.485-1.9,8.264a2.673,2.673,0,0,0,.875,2.049c1.479,1.292,3.333,2.208,4.618,3.648a4.511,4.511,0,0,1,1.07,3.7c-.355,1-1.954,1.778-3.166,2.221-2.113.771-4.394,1.077-6.516,1.827-2.16.763-2.669,2.3-1.84,4.54a105.184,105.184,0,0,1,3.635,11.19c1.49,6.03.294,14.188-2.362,18.144-.084-.249-.24-.462-.19-.6,2.757-7.627,1.1-14.884-1.807-22.045-.444-1.092-.806-2.217-1.213-3.325-2.121-5.777-.216-10.328,5.432-13.01a7.149,7.149,0,0,0,.942-.648c-1.132-1.159-1.132-1.159-5.242.117-.519-2.2.95-3.6,2.15-4.88a3.95,3.95,0,0,0,.87-4.7c-.623-1.525-1.1-3.111-1.676-4.655A3.854,3.854,0,0,0,3.2,8.983C1.97,8.837.007,7.194,0,6.212A5.545,5.545,0,0,1,2.5,2.323c.665-.424,2.816.458,3.534,1.359A30.181,30.181,0,0,1,9.155,9.428a25.252,25.252,0,0,1,.994,2.8c1.075-3.252,1.909-6.433,3.183-9.427C14.52.006,16.087-.581,17.822.525,19.931,1.866,20.257,4.412,18.451,6.8Z" transform="translate(305.833 146.981)" fill="#d6d6d6"/>
  <path id="Path_69" data-name="Path 69" d="M0,30.829c2.716-3.782,5.506-7.513,8.116-11.368,1.256-1.858,2.667-3.847,3.09-5.96A7.358,7.358,0,0,0,10,7.932c-.649-.765-3.326,0-5.024.377A15.245,15.245,0,0,0,1.672,9.974C2.533,4.467,7.044.107,11.97,0,15.576-.074,18.547,1.553,18,5.449c-.586,4.18-1.482,8.756-3.743,12.161C10.7,22.963,5.891,27.479,1.612,32.349Z" transform="translate(130.304 292.086)" fill="#d6d6d6"/>
  <path id="Path_70" data-name="Path 70" d="M2.446,21.545C1.778,17.8,1.175,14.174.475,10.571-.109,7.564-.917,4.547,3.3,3.044l-.522-.32L.291,3.633C.938,2.148,1.193.955,1.906.189,2.247-.178,3.559.047,4.249.381c1.223.591,2.816,1.265,2.5,2.94A3.438,3.438,0,0,1,4.709,5.4c-4.123,1.384-3.44,1.14-2.74,5.049.574,3.206.731,6.486,1.045,9.736a2.179,2.179,0,0,1-.241.9A2.145,2.145,0,0,1,2.446,21.545Z" transform="translate(282.551 289.305)" fill="#d6d6d6"/>
  <path id="Path_71" data-name="Path 71" d="M6.075,11.262C4.065,9.6,3.709,7.911,4.961,5.835,6.6,3.119,8.1.25,11.735,0c.751-.051,2.2.754,2.229,1.23a23.834,23.834,0,0,1-.633,4.792c-2.3-1.009-4.077-2.962-5.966-.247,2.934,3.9,6.174.546,9.216.316-.08,2.627-.591,3.252-3.543,4.742C9.054,12.846,4.866,14.607,2.653,18.9c-.085.165-.132.349-.252.668,1.45,2.414,3.822,3.185,6.478,3.156,7.963-.086,14.428-3.576,19.982-9.032.468-.459.9-.953,1.364-1.42.043-.043.167-.006.512-.006-1.888,4.539-5.241,7.654-9.091,10.248A23.468,23.468,0,0,1,6.331,26.877c-5.852-.466-8.1-4.816-4.813-9.772C2.821,15.139,4.418,13.367,6.075,11.262Z" transform="translate(887.007 166.652)" fill="#d6d6d6"/>
  <path id="Path_72" data-name="Path 72" d="M0,21.664c1.892-2.578,3.421-4.657,4.941-6.742A8.411,8.411,0,0,0,6.5,12.644c.66-2.3,1.094-4.675,1.618-7.019H2.045C3.081,3.246,4.774.9,7.881.179c3.525-.818,5.636,1.238,5.222,4.784C12.414,10.875,6.42,18.778,0,21.664Z" transform="translate(177.087 136.149)" fill="#d6d6d6"/>
  <path id="Path_73" data-name="Path 73" d="M15.5,17.274c1.287-4.151,2.177-7.476,3.372-10.688a18.245,18.245,0,0,1,2.753-4.731C22.93.18,24.708-.681,26.787.655S30.3,3.8,29.674,6.416C29.2,8.4,28.026,9.734,26.017,7.885c-2.544-2.339-3.952-1.064-4.777,1.437-1.582,4.8-2.91,9.685-4.464,14.5a25.5,25.5,0,0,1-2.221,3.948c-1.511-3.975-2.656-7.173-3.941-10.315C9.406,14.5,8.074,11.929,3.951,12.2,2.638,12.29.2,10.325.03,9.067A7.275,7.275,0,0,1,2.163,3.758c.906-.9,3.687-1.232,4.614-.51a26.39,26.39,0,0,1,5.794,6.563C13.831,11.773,14.342,14.215,15.5,17.274Z" transform="translate(914.208 132.564)" fill="#d6d6d6"/>
</svg>
