<svg xmlns="http://www.w3.org/2000/svg" width="182" height="183" viewBox="0 0 182 183">
  <g id="Group_122" data-name="Group 122" transform="translate(-0.494 0.157)">
    <ellipse id="Ellipse_3" data-name="Ellipse 3" cx="91" cy="91.5" rx="91" ry="91.5" transform="translate(0.494 -0.157)" fill="#fff"/>
    <path id="Path_71" data-name="Path 71" d="M23.539,100.378a44.443,44.443,0,0,1,2.178-11.546l8.5-27.231c2.121-6.835,2.826-10.043.888-11.546h-.44c-3.268,0-3.268.109-5.119,3.05L21.591,65.2c-2.723,4.466-3.268,5.446-3.268,6.209s1.634,1.743,3.594,2.07l3.486.654c.871.654.654,2.505-.327,3.159-4.575-.218-8.06-.327-12.526-.327-4.03,0-7.733.109-11.328.327a2.146,2.146,0,0,1-.109-3.159l2.723-.436c4.357-.654,6.209-1.961,10.13-7.516C15.382,64.216,25.73,49.947,29.76,44.065L47.188,19.013c4.139-5.882,6.426-9.694,6.753-11.655,3.921-.218,7.951-3.05,9.8-4.03.871,0,1.743.436,1.743,1.2,0,1.743-.218,6.317-.545,15.685-.436,13.942-.762,27.993-.98,41.935-.218,9.912.218,11,5.664,11.655l2.614.327a2.489,2.489,0,0,1-.436,3.159c-4.575-.218-8.932-.327-14.16-.327q-8.333,0-13.4.327a1.951,1.951,0,0,1-.327-3.159l2.941-.436c4.575-.654,5.119-1.525,5.337-6.644l.654-14.487c.07-1.467-.129-2.082-1.027-2.336C49.706,51.571,48.4,54.488,46.2,61.6L38.353,86.654A51.64,51.64,0,0,0,35.847,99.4c-.109,9.149,4.248,15.249,15.358,15.249,13.942,0,20.586-12.853,24.834-26.032l5.228-16.338a178.284,178.284,0,0,0,4.466-17.428c.654-3.7-.327-5.01-5.01-5.773l-2.832-.436a2.143,2.143,0,0,1,.436-3.05c4.466.218,8.387.327,13.071.327,4.357,0,7.733-.109,12.09-.327.762.654.98,2.4,0,3.05l-2.832.545c-3.268.654-5.664,1.416-7.516,4.9-1.089,1.961-3.05,7.733-6.317,18.19L81.486,89.268c-2.614,8.169-5.991,16.883-12.526,22.765-5.446,4.793-13.724,7.516-21.24,7.516C32.907,119.548,23.1,113.775,23.539,100.378ZM48.495,25,36.4,43.194c-1.089,1.634-.871,1.961,1.961,1.961H50.237c2.178,0,2.505-.218,2.614-2.614l.98-18.408.218-6.971h-.218C53.069,18.468,51.436,20.647,48.495,25Z" transform="translate(40.065 31.158)"/>
  </g>
</svg>
