<svg xmlns="http://www.w3.org/2000/svg" width="470.353" height="364.139" viewBox="0 0 470.353 364.139">
  <g id="Group_186" data-name="Group 186" transform="translate(-30.398 -23.804)">
    <path id="Path_206" data-name="Path 206" d="M272.761,65.742c5.556,12.551,11.66,24.761,14.727,38.087l-1.418,1.012-7.164-5.989c.271,4.606.515,8.578.734,12.55,1.413,25.532,3.232,51.051,4.063,76.6.453,13.933-2.567,27.384-12.02,39.364,5.316.927,10.144,2.038,15.034,2.577q27.838,3.064,55.716,5.753c3.294.314,4.094,1.509,3.158,4.416-.338,1.05-.592,2.127-.957,3.167-3.073,8.766-3.962,8.377-13.126,9.833a213.781,213.781,0,0,0-35.339,8.482c-16.01,5.456-31.584,12.219-47.231,18.7-3.691,1.528-6.984,4.066-10.362,6.29-3.175,2.091-1.387,4.622-.527,7.17.932,2.764,2.875,2.1,4.8,1.825,4.973-.722,9.924-1.717,14.923-2.106,4.647-.361,8.427,1.871,10.862,5.779,5.6,8.992,6.4,18.456,1.689,28.044-3.271,6.655-9.551,8.573-16.937,5.586-5.993-2.424-9.88-7.166-13.366-12.3-1.371-2.019-2.548-4.169-3.881-6.369-4.531,2.286-8.86,4.928-13.519,6.7a83.322,83.322,0,0,1-16.889,4.917c-9.53,1.441-16.1-4.345-17.062-13.976-.141-1.415-.475-2.81-.909-5.3-2.524,2.713-4.534,4.609-6.234,6.751a46.642,46.642,0,0,1-17.961,14.35c-17.935,7.812-31.613.815-35.441-18.28-1.269-6.335-2.336-12.712-3.379-18.432-13.183,27.723-35.628,44.662-64.6,53.628-4.676,1.447-9.977,1.341-14.966,1.191-5.756-.173-9.314-4.044-11.614-9a33.454,33.454,0,0,1-2.494-20.916c1.949-9.7,4.681-19.243,7.055-28.86.194-.788.571-1.837.241-2.4-4.176-7.129-2.724-14.513-1.062-21.872,1.922-8.505,4.888-16.6,10.3-23.733-1.611,5.92-3.579,11.772-4.72,17.781a76.968,76.968,0,0,0-1.054,14.857c.01,1.393,1.85,3.818,2.991,3.9,1.591.121,3.575-1.233,4.909-2.474,1.363-1.268,2.144-3.162,3.322-5,2.321,7.2-3.7,17.493-10.432,18.7a3.5,3.5,0,0,0-2.337,2.124c-1.7,8.283-3.7,16.551-4.644,24.933-1.229,10.9,5.176,16.358,16.046,15.41,19.232-1.677,34.519-11.49,48.775-23.254,5.84-4.82,10.8-10.717,16.071-16.211,5.072-5.287,4.154-11.61,3.105-18.063-2.94-18.1-9.2-35.13-17.2-51.446-3.98-8.115-1-15.162.254-22.661l1.025-.557a35.275,35.275,0,0,1,3.369,3.776c9.48,14.185,15.345,29.882,18.715,46.491,3.465,17.076,6.345,34.271,9.761,51.358,2.064,10.326,7.392,15.211,15.9,14.64,8.582-.575,16.734-2.917,23.526-8.539,3.5-2.9,6.723-6.127,10.067-9.211a62.418,62.418,0,0,1,4.9-4.465,16.569,16.569,0,0,1,3.829-1.585,35.126,35.126,0,0,1,.586,4.132c.04,1.335-.432,2.7-.322,4.015.7,8.376,7.029,13.216,15.6,10.984,6.709-1.746,13.147-4.65,19.529-7.443,1.174-.514,2.214-3.007,2.109-4.5-.854-12.277,4.012-21.694,13.728-28.888,10.572-7.828,22.949-11.577,35.191-15.641,4.1-1.361,8.189-2.758,12.283-4.138l-.18-.948-61.819-8.441c-1.533-6.292,1.57-12.155,7.406-14.072,10.259-3.369,20.539-6.678,30.792-10.065,5.668-1.872,7.2-3.731,6.92-9.716-1.015-21.61-2.1-43.218-3.394-64.814-1.021-17.061-2.382-34.1-3.6-51.149a8.462,8.462,0,0,0-.4-2.908C264.622,78.23,269.21,72.28,272.761,65.742ZM248.2,310.091a17.543,17.543,0,0,0,11.94,7.336c2.2.389,4.723.7,5.147-1.76.228-1.323-1.614-3.622-3.1-4.5C258.079,308.727,253.523,309.626,248.2,310.091Z" transform="translate(0 -10.932)" fill="#cdcdcc"/>
    <path id="Path_207" data-name="Path 207" d="M565.538,269.873c-4.041,7.854-7.429,15.734-16.287,20.359-17.795,9.292-34.492,20.448-49.258,34.182-5.206,4.841-9.824,10.317-14.667,15.542a26.828,26.828,0,0,0-2.107,3.151,24.954,24.954,0,0,0,15.544-1.53,67.041,67.041,0,0,0,13.349-8.292c4.522-3.564,8.4-7.937,12.7-11.8.843-.756,2.343-.78,3.541-1.142a16.948,16.948,0,0,1,.8,3.386c.075,2.315-.5,4.715-.078,6.942,1.146,6.032,5.846,8.993,14.487,9.288,5.286.18,10.584-.01,15.874.1,6.664.136,12.906,1.741,18.253,5.938,7.044,5.529,9.617,12.76,10.334,21.747,2.843,35.591-29.308,65.017-54.308,70.793-11.519,2.662-23.172,3.388-34.751.889-18.826-4.063-29.289-16.393-33-34.882-3.176-15.834-1.91-31.533,1.622-47.158.359-1.591.727-3.667.028-4.931-4.528-8.19-5.2-17.319-6.845-26.22-.332-1.8-.648-3.613-.991-5.529-.37.212-.879.335-.928.557-2.642,12.1-10.815,20.516-19.432,28.434C427,361.115,413.2,370.5,396.636,374.878a54.9,54.9,0,0,1-14.552,1.784c-8.411-.106-14.89-7.123-15.829-16.478-1.443-14.367,1.338-28.115,6.466-41.463a29.949,29.949,0,0,1,2.687-4.5l1.025.442c-1.044,4.418-2.331,8.794-3.075,13.261-1.122,6.743-2.511,13.542-2.6,20.332-.094,7.472,4.855,11.67,12.321,11.674,11.877.006,22.636-3.927,32.84-9.677,12.328-6.948,22.941-15.931,32.636-26.242,6.213-6.608,7.509-13.656,6.04-22.309-3.161-18.606-10.338-35.751-17.9-52.808-3.272-7.381-.967-14.178,1.729-21.68,7.053,8.108,11.368,16.86,14.961,26.02,6.042,15.4,8.948,31.575,11.84,47.762q2.716,15.205,5.86,30.333c.529,2.526,1.944,4.867,3.359,8.275a97.172,97.172,0,0,1,24.462-30.376c-2.339-1.108-3.785-1.871-5.289-2.493-12.992-5.365-22.261-14.625-26.849-27.785-7.338-21.05,6.292-36.842,24.727-40.683,16.132-3.361,30.3,1.82,42.834,12.027a3.758,3.758,0,0,1,.935,1.111,5.973,5.973,0,0,1,.162,1.643c-1.428-.3-2.673-.458-3.85-.832-19.16-6.077-37.311-3.022-54.874,5.891-2.837,1.44-3.472,3.359-2.616,6.274,5.306,18.061,27.4,35.318,49.405,26.224,10.49-4.334,20.118-10.755,30.129-16.245,2.585-1.418,5.1-2.964,7.73-4.3a20.6,20.6,0,0,1,3.64-1.1ZM474.2,358.7c-.613,1.582-1.23,2.911-1.651,4.3-2.6,8.561-2.152,17.368-1,25.973,1.678,12.562,7.075,23.275,18.86,29.527a50.06,50.06,0,0,0,21.557,5.685c21.344.888,39.789-6.326,55.468-20.621,5.992-5.463,11.719-11.277,14.536-19.2,3.112-8.754.792-17.2-7.117-21.838a40.272,40.272,0,0,0-14.492-4.67c-7.27-1.028-14.72-.706-22.05-1.415-8.857-.857-13.069-5.054-14.756-13.792-.31-1.6-.746-3.178-1.4-5.93-2.839,3.226-4.945,5.557-6.982,7.946C504.409,357.278,491.767,364.478,474.2,358.7Z" transform="translate(-87.448 -53.021)" fill="#cdcdcc"/>
    <path id="Path_208" data-name="Path 208" d="M407.894,207.5c0-3.626.018-7.251,0-10.876-.057-9.676.23-19.371-.278-29.024-.86-16.319-2.277-32.608-3.366-48.916-1.36-20.352-2.554-40.717-3.973-61.065a161.974,161.974,0,0,0-2.1-17.042c-1.144-6.438,2.845-11.133,5.155-16.769,5.348,12.636,12.243,24.51,14.262,38.191l-.9.8-6.576-5.441c0,3.045-.16,5.658.025,8.247,1.851,25.857,3.825,51.707,5.627,77.567.983,14.089,2.41,28.194.164,42.3C414.693,193.239,412.6,200.728,407.894,207.5Z" transform="translate(-95.815)" fill="#cdcdcc"/>
    <path id="Path_209" data-name="Path 209" d="M252.827,119.493l-4.99-3.787c-1.267,3.233-2.57,5.923-3.374,8.754-1.2,4.231-2.176,8.54-2.957,12.868a4.167,4.167,0,0,0,1.362,3.192c2.3,2.012,5.19,3.439,7.192,5.68,1.253,1.4,2.225,4.182,1.667,5.758s-3.044,2.77-4.931,3.459c-3.289,1.2-6.842,1.678-10.147,2.846-3.362,1.189-4.156,3.58-2.863,7.07a163.869,163.869,0,0,1,5.66,17.425c2.322,9.39.458,22.093-3.677,28.252-.13-.387-.374-.718-.3-.934,4.293-11.876,1.716-23.176-2.814-34.327-.691-1.7-1.256-3.452-1.889-5.177-3.3-9-.336-16.083,8.458-20.26a11.13,11.13,0,0,0,1.468-1.009c-1.762-1.805-1.762-1.805-8.163.183-.808-3.421,1.479-5.6,3.348-7.6a6.153,6.153,0,0,0,1.356-7.322c-.971-2.375-1.708-4.845-2.611-7.249a6,6,0,0,0-5.541-4.417c-1.921-.228-4.978-2.786-4.989-4.315-.015-2.093,1.98-4.828,3.9-6.055,1.034-.66,4.383.714,5.5,2.117,2.084,2.613,3.363,5.887,4.853,8.947a39.4,39.4,0,0,1,1.546,4.358c1.675-5.063,2.974-10.016,4.957-14.679,1.851-4.35,4.29-5.263,6.994-3.543C255.131,111.818,255.639,115.781,252.827,119.493Z" transform="translate(-50.49 -22.185)" fill="#cdcdcc"/>
    <path id="Path_210" data-name="Path 210" d="M214.458,260.844c-.379-6.247,1.42-9.168,7.024-11.375q22.437-8.84,44.963-17.459c12.263-4.7,24.576-9.273,36.871-13.891.987-.371,2-.662,3.5-1.15-1.378,4.927-2.985,8.549-7.979,10.455-22.593,8.625-45.063,17.57-67.551,26.47-4.106,1.624-8.071,3.6-12.131,5.349C217.745,259.848,216.244,260.242,214.458,260.844Z" transform="translate(-47.966 -50.352)" fill="#cdcdcc"/>
    <path id="Path_211" data-name="Path 211" d="M492.627,206.718c-.276-6.086.912-8.337,5.985-10.321q37.16-14.542,74.384-28.923c3.715-1.443,7.428-2.892,11.631-4.53-.765,5.02-2.5,8.534-6.887,10.231-13.148,5.088-26.339,10.067-39.437,15.283-14.007,5.577-27.922,11.381-41.888,17.06C495.223,206,493.954,206.3,492.627,206.718Z" transform="translate(-120.478 -36.269)" fill="#cdcdcc"/>
    <path id="Path_212" data-name="Path 212" d="M220.044,440.35c2.476-3.807,4.747-7.135,6.838-10.572,1.329-2.184,2.73-2.86,5.081-1.394,4.234,2.642,8.578,5.107,13.223,7.852L235.64,451.1l-16.2-9.514c-2.386,3.836-4.631,7.333-6.754,10.9-1.162,1.955-2.567,2.551-4.546,1.3-3.628-2.289-7.2-4.67-10.872-6.886-2.539-1.532-2.369-3.253-.889-5.419,2.005-2.935,3.948-5.918,5.792-8.957,1.34-2.209,2.77-2.305,4.814-.885C211.185,434.569,215.5,437.334,220.044,440.35Z" transform="translate(-42.985 -105.257)" fill="#cdcdcc"/>
    <path id="Path_213" data-name="Path 213" d="M91.244,220.12c.925-.64,1.828-1.314,2.778-1.913,11.128-7.01,22.28-13.984,33.392-21.018A37.03,37.03,0,0,0,141,181.985c1.828-3.7,3.4-4.122,7.005-1.975,4.766,2.839,6.816,7.566,8.518,12.5a24.814,24.814,0,0,0,2.6,6.082c1.113-4.559,1.944-9.213,3.432-13.646a30.329,30.329,0,0,1,4.668-9c2.223-2.832,4.927-2.353,7.478.534,2.489,2.818,2.92,7.828.566,9.316-.606.383-2.46-.316-3.119-1.065-3.11-3.541-4.516-3.641-5.975.8-2.137,6.5-3.478,13.256-5.274,19.873-.669,2.463-1.666,4.838-2.513,7.253l-1.156-.2q-.373-1.089-.745-2.179c-1.618-4.742-3.115-9.53-4.9-14.208-1.079-2.831-2.162-5.918-6.556-4.308-.871.319-2.546-1.095-3.645-1.969-1.5-1.2-2.8-1.168-3.632.49-8.251,16.526-23.679,23.1-39.758,28.781-2.077.734-4.179,1.4-6.27,2.092Z" transform="translate(-15.86 -39.165)" fill="#cdcdcc"/>
    <path id="Path_214" data-name="Path 214" d="M442.12,113.8l35.1-22.77c-2.365-2.013-3.822-3.28-5.309-4.511a4.994,4.994,0,0,1-1.709-5.907,13.862,13.862,0,0,1,8.28-9.288c3.405-1.343,5.545.023,5.9,3.675a14.026,14.026,0,0,1-.277,5.113c-.844,2.927-.764,5.352,1.268,7.918.8,1.011.5,3.209.164,4.749-1.047,4.758-2.4,9.449-3.523,14.191a5.119,5.119,0,0,0,.125,2.912,5.883,5.883,0,0,0,2.147,3.047c.573.293,2-.857,2.909-1.531.631-.467,1.042-1.232,1.924-1.695a11.722,11.722,0,0,1-3.008,9.192,3.984,3.984,0,0,1-6.762-2.331,39.491,39.491,0,0,1,.216-10.5c.455-3.249,1.842-6.358,2.443-9.6.224-1.2-.617-2.607-.973-3.919-1.107.509-2.513.743-3.275,1.57-9.015,9.8-20.144,15.93-32.932,19.245C444.276,113.5,443.7,113.543,442.12,113.8Zm39.525-32.747a28.3,28.3,0,0,0-4.225-3.9c-.3-.186-1.766,1.506-2.693,2.333,1.472,1.3,2.91,2.645,4.48,3.813A19.79,19.79,0,0,0,481.645,81.049Z" transform="translate(-107.322 -12.254)" fill="#cdcdcc"/>
    <path id="Path_215" data-name="Path 215" d="M261.708,341.079q-2.5-6.439-5-12.876c-.838-2.148-2.313-2.909-4.7-3.329-2.09-.369-5.107-2.038-5.5-3.668-.413-1.706,1.344-4.633,3-5.969,2.129-1.713,4.873-.631,6.514,1.465a46,46,0,0,1,4.371,7.154,59.705,59.705,0,0,1,2.37,6.275c1.11-3.88,1.746-7.025,2.928-9.948a28.9,28.9,0,0,1,4.023-6.882c1.542-1.969,4.163-2.51,5.795-.557a11.013,11.013,0,0,1,2.339,6.454c.028,1.749-1.885,2.14-3.7,1.15-3.689-2.015-4.247-1.882-5.645,2.249-1.213,3.582-1.831,7.361-2.926,10.988-.795,2.631-1.94,5.157-2.929,7.729Z" transform="translate(-56.317 -74.999)" fill="#cdcdcc"/>
    <path id="Path_216" data-name="Path 216" d="M616.34,250.467c1.369-4.412,2.316-7.949,3.586-11.364a19.355,19.355,0,0,1,2.926-5.031c1.389-1.78,3.28-2.695,5.491-1.275s3.731,3.342,3.07,6.125c-.5,2.109-1.753,3.527-3.89,1.562-2.7-2.488-4.2-1.132-5.079,1.527-1.683,5.1-3.094,10.3-4.747,15.413a27.1,27.1,0,0,1-2.361,4.2c-1.607-4.226-2.824-7.627-4.191-10.967-1.284-3.136-2.7-5.873-7.085-5.58-1.4.092-3.992-2-4.168-3.334a7.733,7.733,0,0,1,2.268-5.645c.963-.954,3.92-1.309,4.905-.543a28.059,28.059,0,0,1,6.161,6.98C614.567,244.619,615.11,247.215,616.34,250.467Z" transform="translate(-148.44 -54.296)" fill="#cdcdcc"/>
    <path id="Path_217" data-name="Path 217" d="M98.759,330.145c1.835-5.172,3.114-9.817,5.174-14.085.855-1.771,3.327-3.684,5.156-3.78,1.53-.08,3.788,2.1,4.615,3.82.684,1.418-.251,3.617-.471,5.484a7.776,7.776,0,0,1-1.715-.285c-4.633-3.256-5.343-3.148-7.222,2.376-1.377,4.049-2.1,8.315-3.326,12.422a35.053,35.053,0,0,1-2.374,5.024l-1-.151c-.369-1.083-.7-2.179-1.113-3.247-1.225-3.2-2.185-6.548-3.848-9.5a6.993,6.993,0,0,0-4.5-2.883c-2.8-.461-5.635-1.326-5.734-4.1-.072-2,1.662-5.1,3.385-5.824,1.649-.7,5.03.374,6.39,1.839,2.257,2.429,3.561,5.768,5.149,8.784A31.234,31.234,0,0,1,98.759,330.145Z" transform="translate(-13.554 -75.196)" fill="#cdcdcc"/>
    <path id="Path_218" data-name="Path 218" d="M309.376,184.014c-1.917-4.855-3.529-9.024-5.213-13.163-.96-2.362-2.444-3.5-5.348-3.452a6.01,6.01,0,0,1-4.689-3.056c-.54-1.485.413-4.076,1.582-5.437a5.358,5.358,0,0,1,4.735-1.177,9.36,9.36,0,0,1,4.67,3.749c2.02,3.3,3.473,6.95,5.337,10.822.759-2.763,1.311-5.424,2.234-7.949a30.961,30.961,0,0,1,3.4-7.229c2.63-3.737,4.227-3.853,7.115-1.289,3.065,2.72,3.083,4.8.07,7.939-5.555-2.967-6.563-2.486-8.282,4.074-1.022,3.9-1.859,7.852-3.016,11.709C311.532,181.005,310.426,182.256,309.376,184.014Z" transform="translate(-68.705 -33.96)" fill="#cdcdcc"/>
    <path id="Path_219" data-name="Path 219" d="M294.851,105.539c6.351-4.533,13.988-5.924,19.641-11.744-6.948-3.85-13.23-.206-19.465-.192-1.062-3.747.807-7.091,5.524-8.1,6.373-1.368,12.9-1.773,19.315.189,2.08.637,2.566,2,1.947,4C319.277,97.88,303.482,107.506,294.851,105.539Z" transform="translate(-68.905 -15.781)" fill="#cdcdcc"/>
    <path id="Path_220" data-name="Path 220" d="M534.2,144.315l19.126-10.268-.427-1.589c-6.285-3.021-12.749-.389-19.122.32-.781-4.365,2.551-8.473,7.52-8.754a154.329,154.329,0,0,1,15.824.027c3.624.168,4.836,2.554,3.384,5.844C556.987,137.857,543.31,145.774,534.2,144.315Z" transform="translate(-131.184 -26.074)" fill="#cdcdcc"/>
    <path id="Path_221" data-name="Path 221" d="M303.515,450.117c-1.495,1.548-2.705,3.752-4.528,4.54-15.633,6.759-31.377,13.263-47.093,19.828-.2.082-.472-.027-.949-.067-1.144-3.337.513-5.254,3.415-6.417q14.843-5.949,29.729-11.792c6.134-2.418,12.288-4.786,18.433-7.177Z" transform="translate(-57.394 -110.843)" fill="#cdcdcc"/>
    <path id="Path_222" data-name="Path 222" d="M196.881,284.945c1.408,4.647-1.87,13.161-5.646,15.053-2.321,1.162-4.829,1.063-6.279-1.139-1.432-2.175-3.053-4.848-3-7.271a65.722,65.722,0,0,1,9.322-31.872l.887.242c-1.451,5.449-3.205,10.84-4.245,16.365a31.419,31.419,0,0,0-.382,11.518c.848,4.352,3.36,4.641,6.346,1.295A49.516,49.516,0,0,0,196.881,284.945Z" transform="translate(-39.505 -61.495)" fill="#cdcdcc"/>
    <path id="Path_223" data-name="Path 223" d="M456.346,148.288c-1.735,7.087-3.649,14.139-5.107,21.282a19.351,19.351,0,0,0,.367,7.6c.657,3.136,3.6,3.784,5.833,1.408a51.98,51.98,0,0,0,3.554-4.716c1.343,4.314-1.816,12.9-5.358,14.9-3.845,2.166-8.973-1.321-9.31-6.709a30.386,30.386,0,0,1,.707-10.223c2.114-7.244,4.853-14.307,7.4-21.42a11.588,11.588,0,0,1,1.533-2.323Z" transform="translate(-108.387 -32.397)" fill="#cdcdcc"/>
    <path id="Path_224" data-name="Path 224" d="M641.532,317.247c-1.612,6.321-3.5,12.589-4.717,18.985a23.526,23.526,0,0,0,.338,9.65c.8,3.311,2.945,3.64,5.422,1.238a55.631,55.631,0,0,0,4.128-4.993l1.191.543c-1.628,4.171-2.877,8.548-4.993,12.456a5.049,5.049,0,0,1-9.024.107c-1.514-2.749-2.675-6.285-2.392-9.322a70.525,70.525,0,0,1,8.454-27.533A10.406,10.406,0,0,1,641,317.02Z" transform="translate(-156.672 -76.432)" fill="#cdcdcc"/>
    <path id="Path_225" data-name="Path 225" d="M395.065,349.408c1.639-5.679,9.454-8.044,12.46-4.22.889,1.13.353,4.306-.643,5.8-2.088,3.135-5.01,5.7-7.391,8.662A19.622,19.622,0,0,0,397.5,363.8c1.411.486,2.835,1.416,4.231,1.376,4.859-.139,9.708-.614,14.386-.949-3.119,5.2-13.709,8.314-18.975,5-1.337-.842-2.653-3.351-2.373-4.778a21.91,21.91,0,0,1,3.527-7.816c1.609-2.361,3.906-4.254,6.724-7.217Z" transform="translate(-94.971 -83.287)" fill="#cdcdcc"/>
    <path id="Path_226" data-name="Path 226" d="M341.185,488.067c-1.29-7.23-2.454-14.225-3.805-21.183-1.127-5.8-2.686-11.629,5.447-14.528l-1.008-.62-4.794,1.756c1.249-2.868,1.742-5.169,3.118-6.649.66-.709,3.192-.274,4.524.37,2.361,1.141,5.437,2.443,4.831,5.674-.294,1.568-2.307,3.47-3.945,4.02-7.957,2.673-6.641,2.2-5.289,9.748,1.108,6.187,1.412,12.52,2.018,18.794a4.2,4.2,0,0,1-.464,1.746A4.153,4.153,0,0,1,341.185,488.067Z" transform="translate(-79.781 -110.178)" fill="#cdcdcc"/>
    <path id="Path_227" data-name="Path 227" d="M360.99,36.169l4.381,6.255c1.658-1.459,3.08-2.709,4.5-3.963,1.006-.889,1.884-2.248,3.043-2.559,1.493-.4,3.565-.484,4.712.294.818.555,1.145,3.073.589,4.142A11.377,11.377,0,0,1,373.97,44.9a27.242,27.242,0,0,1-7.636,2.528c-1.171.246-2.545-.469-4.187-.827-1.573,2.607-4.363,2.971-7.653,2.554-1.553-.2-3.225.554-4.858.878-.859-3.408.735-5.805,4.23-6.033a23.9,23.9,0,0,1,2.943.1c2.582.152,4.573-.005,3.155-3.587-.463-1.169.045-2.721.109-4.1Zm14.921,4.468-.716-1.745-6.344,2.476q.309.814.62,1.628Z" transform="translate(-83.155 -3.076)" fill="#cdcdcc"/>
    <path id="Path_228" data-name="Path 228" d="M461.268,444.645c2.011-2.743,3.637-4.952,5.253-7.169a8.933,8.933,0,0,0,1.653-2.424c.7-2.451,1.164-4.97,1.72-7.462h-6.453c1.1-2.531,2.9-5.025,6.206-5.791,3.748-.87,5.992,1.316,5.552,5.086C474.467,433.173,468.094,441.576,461.268,444.645Z" transform="translate(-112.314 -103.695)" fill="#cdcdcc"/>
    <path id="Path_229" data-name="Path 229" d="M139.443,441.067c1.914-2.666,3.882-5.3,5.72-8.014a12.455,12.455,0,0,0,2.179-4.2,5.185,5.185,0,0,0-.848-3.926c-.458-.54-2.345,0-3.542.265a10.763,10.763,0,0,0-2.33,1.174c.607-3.882,3.787-6.956,7.259-7.03,2.543-.054,4.636,1.093,4.251,3.84-.413,2.946-1.044,6.171-2.639,8.573-2.5,3.772-5.9,6.956-8.914,10.389Z" transform="translate(-28.424 -103.102)" fill="#cdcdcc"/>
    <path id="Path_230" data-name="Path 230" d="M382.766,41.8l-6.44,2.359q-.31-.814-.62-1.628l6.344-2.476Z" transform="translate(-90.01 -4.235)" fill="#cdcdcc"/>
    <path id="Path_231" data-name="Path 231" d="M598.868,430.437c-2.6-2.144-3.055-4.327-1.438-7.008,2.115-3.507,4.054-7.212,8.748-7.532.97-.067,2.841.974,2.879,1.59.115,1.91-.453,3.861-.818,6.188-2.974-1.3-5.265-3.825-7.7-.319,3.788,5.033,7.972.706,11.9.408-.1,3.393-.764,4.2-4.576,6.125-5.144,2.6-10.553,4.869-13.411,10.415-.109.213-.172.449-.325.861,1.872,3.117,4.935,4.114,8.366,4.076,10.284-.111,18.632-4.617,25.806-11.664.6-.593,1.165-1.231,1.761-1.834.055-.055.216-.007.66-.007-2.438,5.861-6.768,9.884-11.741,13.234-5.94,4-12.436,6.218-19.777,5.634-7.557-.6-10.457-6.219-6.216-12.618C594.667,435.445,596.729,433.157,598.868,430.437Z" transform="translate(-146.137 -102.205)" fill="#cdcdcc"/>
    <path id="Path_232" data-name="Path 232" d="M560.067,431.932l-14.747-9.747,8.321-13.749c4.277,2.957,8.292,5.555,12.06,8.473.866.671,1.595,2.806,1.166,3.639C564.92,424.333,562.538,427.893,560.067,431.932Z" transform="translate(-134.223 -100.261)" fill="#cdcdcc"/>
  </g>
</svg>
