<svg xmlns="http://www.w3.org/2000/svg" xmlns:xlink="http://www.w3.org/1999/xlink" width="272" height="55" viewBox="0 0 272 55">
  <defs>
    <clipPath id="clip-Artboard_1">
      <rect width="272" height="55"/>
    </clipPath>
  </defs>
  <g id="Artboard_1" data-name="Artboard – 1" clip-path="url(#clip-Artboard_1)">
    <g id="Group_146" data-name="Group 146" transform="translate(-25.25 -11)">
      <g id="Group_144" data-name="Group 144" transform="translate(24.75 -77)">
        <g id="Group_21" data-name="Group 21">
          <text id="Project_by" data-name="Project by" transform="translate(197 110)" fill="#fff" font-size="16.5" font-family="Helvetica"><tspan x="0" y="0">Project</tspan><tspan y="0" font-family="Baghdad"> </tspan><tspan y="0">by</tspan></text>
        </g>
        <g id="Group_25" data-name="Group 25">
          <line id="Line_1" data-name="Line 1" x1="271" transform="translate(0.5 141.5)" fill="none" stroke="#fff" stroke-width="1"/>
          <line id="Line_2" data-name="Line 2" x1="271" transform="translate(0.5 89.5)" fill="none" stroke="#fff" stroke-width="1"/>
        </g>
      </g>
      <g id="Group_145" data-name="Group 145" transform="translate(60.434 -169.385)">
        <g id="Group_110" data-name="Group 110" transform="translate(86.316 210.906)">
          <path id="Path_49" data-name="Path 49" d="M86.316,225.836v-14.87h6.408a4.516,4.516,0,0,1,2.01.45,5.214,5.214,0,0,1,1.582,1.174,5.493,5.493,0,0,1,1.037,1.654,4.963,4.963,0,0,1,.377,1.874,5.326,5.326,0,0,1-.357,1.917,5.4,5.4,0,0,1-.994,1.655,4.746,4.746,0,0,1-1.55,1.151,4.622,4.622,0,0,1-2,.43H90.4v4.566ZM90.4,217.71h2.157a.959.959,0,0,0,.7-.345,1.831,1.831,0,0,0,.325-1.247,1.644,1.644,0,0,0-.377-1.256,1.139,1.139,0,0,0-.753-.335H90.4Z" transform="translate(-86.316 -210.883)" fill="#fff"/>
          <path id="Path_50" data-name="Path 50" d="M103.694,225.98a7.156,7.156,0,0,1-3.078-.649,7.586,7.586,0,0,1-2.367-1.708,7.718,7.718,0,0,1-1.529-2.418,7.49,7.49,0,0,1-.544-2.807,7.294,7.294,0,0,1,.566-2.826,7.484,7.484,0,0,1,1.581-2.4,7.733,7.733,0,0,1,2.408-1.654,7.436,7.436,0,0,1,3.048-.618,7.156,7.156,0,0,1,3.078.649,7.547,7.547,0,0,1,2.367,1.718,7.731,7.731,0,0,1,1.519,2.429,7.587,7.587,0,0,1,.534,2.786,7.215,7.215,0,0,1-.566,2.816,7.629,7.629,0,0,1-1.57,2.387,7.729,7.729,0,0,1-2.4,1.665A7.318,7.318,0,0,1,103.694,225.98Zm-3.371-7.54a5.043,5.043,0,0,0,.209,1.455,3.806,3.806,0,0,0,.629,1.247,3.155,3.155,0,0,0,1.057.879,3.574,3.574,0,0,0,3.048-.01,3.079,3.079,0,0,0,1.057-.9,3.86,3.86,0,0,0,.607-1.266,5.32,5.32,0,0,0,.2-1.446,5.057,5.057,0,0,0-.21-1.455,3.581,3.581,0,0,0-.639-1.235,3.22,3.22,0,0,0-1.067-.86,3.614,3.614,0,0,0-3.016.01,3.13,3.13,0,0,0-1.057.89,3.762,3.762,0,0,0-.618,1.257A5.245,5.245,0,0,0,100.322,218.441Z" transform="translate(-83.527 -210.901)" fill="#fff"/>
          <path id="Path_51" data-name="Path 51" d="M121.264,214.527h-4.272v11.309h-4.083V214.527h-4.294v-3.561h12.649Z" transform="translate(-80.008 -210.883)" fill="#fff"/>
          <path id="Path_52" data-name="Path 52" d="M126.663,225.98a7.162,7.162,0,0,1-3.079-.649,7.6,7.6,0,0,1-2.366-1.708,7.718,7.718,0,0,1-1.529-2.418,7.492,7.492,0,0,1-.545-2.807,7.294,7.294,0,0,1,.566-2.826,7.509,7.509,0,0,1,1.582-2.4,7.7,7.7,0,0,1,2.408-1.654,7.43,7.43,0,0,1,3.047-.618,7.158,7.158,0,0,1,3.079.649,7.562,7.562,0,0,1,2.367,1.718,7.7,7.7,0,0,1,1.518,2.429,7.561,7.561,0,0,1,.534,2.786,7.214,7.214,0,0,1-.564,2.816,7.61,7.61,0,0,1-1.572,2.387,7.7,7.7,0,0,1-2.4,1.665A7.312,7.312,0,0,1,126.663,225.98Zm-3.371-7.54a5.043,5.043,0,0,0,.209,1.455,3.806,3.806,0,0,0,.629,1.247,3.143,3.143,0,0,0,1.057.879,3.571,3.571,0,0,0,3.047-.01,3.084,3.084,0,0,0,1.058-.9,3.86,3.86,0,0,0,.607-1.266,5.369,5.369,0,0,0,.2-1.446,5.057,5.057,0,0,0-.209-1.455,3.581,3.581,0,0,0-.639-1.235,3.233,3.233,0,0,0-1.067-.86,3.285,3.285,0,0,0-1.5-.325,3.243,3.243,0,0,0-1.518.335,3.147,3.147,0,0,0-1.058.89,3.784,3.784,0,0,0-.617,1.257A5.2,5.2,0,0,0,123.292,218.441Z" transform="translate(-77.029 -210.901)" fill="#fff"/>
          <path id="Path_53" data-name="Path 53" d="M139.478,225.98a7.158,7.158,0,0,1-3.079-.649,7.616,7.616,0,0,1-2.367-1.708,7.737,7.737,0,0,1-1.528-2.418,7.491,7.491,0,0,1-.545-2.807,7.294,7.294,0,0,1,.566-2.826,7.509,7.509,0,0,1,1.582-2.4,7.7,7.7,0,0,1,2.408-1.654,7.426,7.426,0,0,1,3.047-.618,7.158,7.158,0,0,1,3.079.649,7.562,7.562,0,0,1,2.367,1.718,7.7,7.7,0,0,1,1.518,2.429,7.561,7.561,0,0,1,.534,2.786,7.238,7.238,0,0,1-.564,2.816,7.61,7.61,0,0,1-1.572,2.387,7.7,7.7,0,0,1-2.4,1.665A7.316,7.316,0,0,1,139.478,225.98Zm-3.371-7.54a5.044,5.044,0,0,0,.209,1.455,3.781,3.781,0,0,0,.629,1.247,3.143,3.143,0,0,0,1.057.879,3.571,3.571,0,0,0,3.047-.01,3.1,3.1,0,0,0,1.058-.9,3.886,3.886,0,0,0,.607-1.266,5.369,5.369,0,0,0,.2-1.446,5.1,5.1,0,0,0-.209-1.455,3.58,3.58,0,0,0-.639-1.235,3.225,3.225,0,0,0-1.069-.86,3.275,3.275,0,0,0-1.5-.325,3.239,3.239,0,0,0-1.518.335,3.147,3.147,0,0,0-1.058.89,3.759,3.759,0,0,0-.617,1.257A5.2,5.2,0,0,0,136.107,218.441Z" transform="translate(-73.404 -210.901)" fill="#fff"/>
        </g>
        <g id="Group_111" data-name="Group 111" transform="translate(163.5 210.885)">
          <path id="Path_54" data-name="Path 54" d="M156.407,214.487a3.206,3.206,0,0,0-.608-.493,6.153,6.153,0,0,0-.931-.493,6.906,6.906,0,0,0-1.173-.376,5.792,5.792,0,0,0-1.31-.148,3.566,3.566,0,0,0-2.189.545,1.8,1.8,0,0,0-.7,1.507,1.638,1.638,0,0,0,.221.89,1.891,1.891,0,0,0,.68.607,5.335,5.335,0,0,0,1.152.461q.691.2,1.613.43a18.282,18.282,0,0,1,2.042.608,5.838,5.838,0,0,1,1.539.816,3.35,3.35,0,0,1,.974,1.183,3.851,3.851,0,0,1,.345,1.708,4.148,4.148,0,0,1-.428,1.947,3.661,3.661,0,0,1-1.174,1.33,5.157,5.157,0,0,1-1.727.753,8.9,8.9,0,0,1-2.115.241,10.539,10.539,0,0,1-3.278-.513,9.344,9.344,0,0,1-2.858-1.5l1.067-2.01a5.092,5.092,0,0,0,.785.607,7.344,7.344,0,0,0,1.194.618,10.324,10.324,0,0,0,1.477.481,6.753,6.753,0,0,0,1.655.2,3.973,3.973,0,0,0,2.136-.481,1.582,1.582,0,0,0,.753-1.424,1.527,1.527,0,0,0-.282-.943,2.431,2.431,0,0,0-.807-.659,7.065,7.065,0,0,0-1.276-.513q-.754-.231-1.718-.481a17.868,17.868,0,0,1-1.937-.618,4.867,4.867,0,0,1-1.371-.785,3.081,3.081,0,0,1-.827-1.079,3.579,3.579,0,0,1-.284-1.5,4.314,4.314,0,0,1,.42-1.937,4.132,4.132,0,0,1,1.142-1.424,5,5,0,0,1,1.706-.87,7.469,7.469,0,0,1,2.136-.293,7.84,7.84,0,0,1,2.785.481,9.259,9.259,0,0,1,2.241,1.194Z" transform="translate(-146.48 -210.885)" fill="#fff"/>
          <path id="Path_55" data-name="Path 55" d="M167.894,213.039h-4.943v12.8h-2.367v-12.8h-4.962v-2.073h12.272Z" transform="translate(-143.894 -210.862)" fill="#fff"/>
          <path id="Path_56" data-name="Path 56" d="M172.412,223.826a3.768,3.768,0,0,0,1.949-.461,3.7,3.7,0,0,0,1.246-1.2,5.057,5.057,0,0,0,.67-1.7,9.591,9.591,0,0,0,.2-1.959v-7.54h2.367v7.54a11.261,11.261,0,0,1-.357,2.88,6.663,6.663,0,0,1-1.13,2.367,5.387,5.387,0,0,1-2,1.6,6.761,6.761,0,0,1-2.943.588,6.62,6.62,0,0,1-3-.618,5.409,5.409,0,0,1-1.979-1.655,6.78,6.78,0,0,1-1.089-2.377,11.445,11.445,0,0,1-.335-2.785v-7.54h2.345v7.54a9.692,9.692,0,0,0,.2,1.979,5.086,5.086,0,0,0,.671,1.7,3.551,3.551,0,0,0,1.256,1.194A3.843,3.843,0,0,0,172.412,223.826Z" transform="translate(-140.957 -210.862)" fill="#fff"/>
          <path id="Path_57" data-name="Path 57" d="M177.872,225.836v-14.87h5.278a7.878,7.878,0,0,1,3.152.586,6.51,6.51,0,0,1,2.262,1.592,6.7,6.7,0,0,1,1.371,2.357,8.872,8.872,0,0,1,.461,2.879,8.694,8.694,0,0,1-.513,3.069,6.714,6.714,0,0,1-1.455,2.345,6.478,6.478,0,0,1-2.284,1.509,8.04,8.04,0,0,1-2.994.534Zm10.136-7.456a6.844,6.844,0,0,0-.325-2.157,4.69,4.69,0,0,0-.953-1.686,4.422,4.422,0,0,0-1.528-1.1,5.034,5.034,0,0,0-2.053-.4h-2.933v10.724h2.933a5.028,5.028,0,0,0,2.083-.409,4.3,4.3,0,0,0,1.529-1.13,4.869,4.869,0,0,0,.931-1.708A6.994,6.994,0,0,0,188.008,218.38Z" transform="translate(-137.6 -210.862)" fill="#fff"/>
          <path id="Path_58" data-name="Path 58" d="M188.989,225.836v-14.87h2.345v14.87Z" transform="translate(-134.455 -210.862)" fill="#fff"/>
          <path id="Path_59" data-name="Path 59" d="M199.244,225.964a6.52,6.52,0,0,1-2.9-.639,7.215,7.215,0,0,1-2.251-1.7,7.661,7.661,0,0,1-1.456-2.418,7.825,7.825,0,0,1-.513-2.785,7.594,7.594,0,0,1,.545-2.848,7.9,7.9,0,0,1,1.5-2.409,7.156,7.156,0,0,1,2.262-1.665,6.611,6.611,0,0,1,2.858-.617,6.349,6.349,0,0,1,2.9.659,7.305,7.305,0,0,1,2.241,1.728,7.916,7.916,0,0,1,1.445,2.418,7.758,7.758,0,0,1-.021,5.6,7.5,7.5,0,0,1-1.5,2.4,7.357,7.357,0,0,1-2.272,1.655A6.57,6.57,0,0,1,199.244,225.964Zm-4.734-7.54a6.226,6.226,0,0,0,.336,2.031,5.488,5.488,0,0,0,.952,1.738,4.646,4.646,0,0,0,1.5,1.2,4.253,4.253,0,0,0,1.968.45,4.128,4.128,0,0,0,2-.472,4.685,4.685,0,0,0,1.477-1.246,5.61,5.61,0,0,0,.921-1.738,6.315,6.315,0,0,0,.314-1.968,6.239,6.239,0,0,0-.335-2.042,5.427,5.427,0,0,0-.953-1.718,4.772,4.772,0,0,0-1.487-1.193,4.46,4.46,0,0,0-3.947.021,4.782,4.782,0,0,0-1.487,1.225,5.5,5.5,0,0,0-.933,1.728A6.208,6.208,0,0,0,194.51,218.425Z" transform="translate(-133.568 -210.885)" fill="#fff"/>
        </g>
      </g>
    </g>
  </g>
</svg>
