<svg xmlns="http://www.w3.org/2000/svg" width="301.408" height="341.648" viewBox="0 0 301.408 341.648">
  <g id="Group_179" data-name="Group 179" transform="translate(-150.254 -235.478)">
    <path id="Path_92" data-name="Path 92" d="M353.464,373.329Q327.6,358.8,301.76,344.2a2.716,2.716,0,0,0-3.157.061q-25.548,15.224-51.172,30.32a2.578,2.578,0,0,0-1.477,2.6q.4,29.93.682,59.859a2.427,2.427,0,0,0,1.429,2.424q26.121,14.62,52.176,29.353a2.582,2.582,0,0,0,2.994-.07q25.48-15.171,51.027-30.227a2.964,2.964,0,0,0,1.722-3q-.416-29.58-.7-59.164a15.488,15.488,0,0,1,.247-2.024l-.179-.3A13.073,13.073,0,0,1,353.464,373.329ZM337,413.663c-1.155-1.564-2.227-.554-3.335.166.348-3.119.781-3.469,4.989-3.852a6.73,6.73,0,0,0-1.495,1.546,7.063,7.063,0,0,0-.159,2.14Zm9.349,9.061c.635.659.39,2.158.549,3.313-3.13.026-3.308-.09-4.215-2.578-.51-1.405-1-2.821-1.5-4.227.08-.071.162-.145.247-.215a35.567,35.567,0,0,1,4.921,3.707Zm-3.017,7.21c-2.281,1.189-3.819.995-5.139-.85a36.865,36.865,0,0,0-3.23-3.452A37.558,37.558,0,0,1,341.3,427.1c.9.373,1.353,1.832,2.027,2.833Zm-25.186,5.517a2.955,2.955,0,0,1-3.778-.9c-.363-.6.427-3.145,1.228-3.242a5.281,5.281,0,0,1,3.448.471c1.032.758.338,2.913-.895,3.671Zm2.442-.238c.925,2.524,3.148,4.454,1.752,7.3-3.244.027-3.821-3.016-5.842-5,1.986-.047,3.453-.443,4.094-2.293Zm-30.7,6.559c-1.108-1.754-2.422-1.021-3.736-.586,1.526-3.283,1.656-3.346,5.669-2.7-1.1.926-2.931,1.161-1.931,3.29Zm6.5,14.118c-2.977-.836-2.98-.834-3.323-3.592-.176-1.371-.342-2.744-.508-4.115a2.071,2.071,0,0,1,.13-.4c1.371,1.5,2.638,2.9,3.909,4.287s.01,2.553-.2,3.823Zm-20.973-9.743c2.35.485,2.384-1.286,3.1-2.583.209.663.371,1.162.57,1.793.513-.108.993-.209,1.35-.286-.218,1.131-.444,2.3-.667,3.447-1.235-.956-2.062.493-3.127,1.376-.156-1.326,1.314-2.951-1.221-3.742Zm2.233-5.205a11.26,11.26,0,0,1-.478,1.127,3.386,3.386,0,0,1-5.455,1.526c-1.922-1.31-3.817-2.647-5.718-3.979a2.083,2.083,0,0,1-.279-.47,70.629,70.629,0,0,1,7.6-3.32c2.647-.82,5.189,2.355,4.328,5.118Zm-19.953-32.6c-1.4.135-2.992-.821-3.639,1.3.182-2.071-1.458-2.015-2.9-2.544,1-.4,1.714-.69,2.478-1,.076-.492.154-1,.181-1.174q1.767.529,3.494,1.042c-.2.206-.562.586-1,1.043.468.448.861.818,1.386,1.329Zm-1.877,1.756c2.156.215,4.235-.085,5.915,1.668a3.456,3.456,0,0,1,.25,4.88,3.386,3.386,0,0,1-.4.381c-2,1.59-4.056,3.117-6.386,4.9-.308-2.963-.764-5.609-.781-8.263,0-1.164.889-2.327,1.407-3.565Zm27.973-32.523a2.816,2.816,0,0,1,3.772.874c.332.58-.5,2.916-1.185,3.357-.739.471-3.265.033-3.616-.623a2.905,2.905,0,0,1,1.029-3.607Zm-2.722-.228c-.7-2.065-2.83-4.019-1.49-6.88,3.264.029,3.835,3.068,5.416,4.554Zm30.991-6.055c1.1,1.715,2.428.921,3.921.514-2.174,3.35-2.174,3.35-5.851,2.684.869-.911,2.857-1.083,1.93-3.2Zm-6.835-10.676c-.516-.851-.024-2.307.017-3.575,3.267.854,3.276.854,3.627,3.62.182,1.428.333,2.858.486,4.286.005.021-.09.053-.221.131a31.18,31.18,0,0,1-3.909-4.462Zm33.4,41.514c-4.448-.2-3.881.358-5.262-3.608,1.2.235,2.326,1.925,3.669-.044-.953,1.962.479,2.687,1.6,3.65Zm-37.359,37.192c.05-2.418-1.788-1.841-3.043-2.181,2.681-2.335,3.138-2.348,6.457.041-1.782-.037-3.163.041-3.412,2.139Zm6.7-.433c.353-.009.718.353,1.077.557,2.319,1.3,2.711,3.5.963,5.572-1.567,1.857-3.165,3.693-4.987,5.816a75.572,75.572,0,0,1-2.407-7.842c-.232-1.175.094-3.2.867-3.659,1.175-.706,2.962-.412,4.489-.445Zm-30.636-4.437c.417-1.008.866-2.106,1.28-3.113,2.321,2.08,2.361,2.382.522,5.936-.594-1.147-.139-3.1-1.8-2.824Zm-4.3-11.519c.959-1.256.959-1.256.019-3.372,2.876.427,3.459,1.32,3.271,5.48a6.8,6.8,0,0,0-1.339-1.756,5.588,5.588,0,0,0-1.949-.353Zm43.275-39.48c1.519-.325,3.825.672,3.92-2.2a9.031,9.031,0,0,1,3.357,9.421,10.934,10.934,0,0,1-7.27-7.221Zm7.407,12.644c-.426-.615-.723-1.042-1.14-1.642l-1.159.156c0-.971.009-1.946.011-2.822,2.465,1.034,2.465,1.034,2.29,4.307ZM318.1,381.4c-.836.837-3.217-.005-3.928-1.2-.758-1.278-.528-2.685.526-3.224,1.083-.557,3.073.354,3.964,1.671.792,1.168.1,2.091-.563,2.752Zm-5.287-.033a10.8,10.8,0,0,1-10.067-2.443,9.031,9.031,0,0,1,9.731-2.066c-2,1.549-.673,2.967.338,4.508Zm11.055,22.171a1.579,1.579,0,0,1-.913,1.031,6.861,6.861,0,0,1-4.73.316c-1.849-.639-3.8-.989-5.953-1.528,1.941-1.977,3.562-3.882,5.456-5.456a9.823,9.823,0,0,1,3.535-1.26,1.033,1.033,0,0,1,.818.4,8.49,8.49,0,0,1,1.788,6.5Zm2.164,5.007c-.371-.75-.8-1.6-1.143-2.308.336-.745.725-1.615,1.085-2.411,1.738,2.4,1.738,2.4.06,4.718Zm-16.7,11.217c-3.152-1.505-4.739-3.966-4.057-6.044,3.753.472,2.2,4.034,4.059,6.042Zm-5.362-8.225c-.257.845-.515,1.707-.819,2.7-.741-.645-1.387-1.207-2.129-1.855l-2.014,1.893c-.3-.866-.577-1.654-.915-2.622-.833.18-1.72.371-2.717.583.18-.925.346-1.815.53-2.763-.9-.264-1.718-.506-2.7-.8.682-.762,1.272-1.422,1.893-2.12-.641-.688-1.214-1.3-1.93-2.075l2.663-.82c-.186-.879-.369-1.744-.591-2.785.97.215,1.794.4,2.75.61.247-.827.489-1.642.8-2.678.735.628,1.363,1.165,2.114,1.8l2.033-1.86c.319.915.593,1.7.917,2.633.895-.208,1.758-.41,2.782-.646-.223.98-.407,1.81-.617,2.754.886.285,1.74.557,2.691.863l-1.844,2.078c.623.694,1.192,1.323,1.888,2.1l-2.644.829c.195.879.384,1.713.617,2.747-.967-.2-1.78-.374-2.755-.575Zm-2.61,10.178c-1.935-3.053-2.006-5.325-.2-6.758,2.931,2.323-.127,4.552.2,6.756Zm-10.329,7.623c-2.6.673-2.7.623-4.683-2.423,1.135.15,2.272,1.55,3.321-.219-1.028,1.9.581,2.026,1.365,2.641Zm-2.7-4.163c-.154.165-.661.143-.934.033a8.188,8.188,0,0,1-4.814-4.693c-.12-.3-.115-.889.077-1.047a16.148,16.148,0,0,1,3.662-2.7,53.971,53.971,0,0,1,6.48-1.85,72.609,72.609,0,0,1-2,7.228,11.1,11.1,0,0,1-2.469,3.024Zm-10.27-15.823a1.379,1.379,0,0,1,.812-.9,7.3,7.3,0,0,1,4.9-.325c1.785.641,3.686.962,5.872,1.5a74.83,74.83,0,0,1-5.5,5.563,9.53,9.53,0,0,1-3.559,1.171c-.184.048-.523-.187-.675-.382a8.257,8.257,0,0,1-1.843-6.634Zm-2.124-4.677c.33.672.679,1.4,1.048,2.133l-1.015,2.3c-1.823-2.2-1.823-2.954-.035-4.43Zm16.772,1.755c-2.5,3.169-4.722.178-6.984.12a39.935,39.935,0,0,1,4.892-1.317c.571-.083,1.281.71,2.091,1.2Zm-5.161-7.184c.062-.147.12-.287.177-.43a36.581,36.581,0,0,1,4.778,1.382c.588.249.84,1.294,1.349,2.154-3.778,1.4-4.212-2.257-6.3-3.107Zm6.168,11.6c-.344,3.787-3.937,2.175-5.649,3.646l-.228-.384a36.094,36.094,0,0,0,2.509-2.627,2.285,2.285,0,0,1,3.131-.8,2.215,2.215,0,0,1,.235.161Zm3.029,3.1c.967,1.954.176,3.384-3.055,5.534.064-3.706.9-5.21,3.051-5.533Zm-3.648-20.39c3.686,2.362,4.334,3.429,3.49,5.746-3.638-.6-2.234-3.935-3.5-5.746Zm17.756-9.923c3.265-.313,3.265-.313,4.6,2.5-1.076-.332-2.176-1.534-3.079.269a1.935,1.935,0,0,0-.9-2.586,1.913,1.913,0,0,0-.628-.182Zm2.8,4.161c.185-.176.829.071,1.232.21a8.152,8.152,0,0,1,4.7,5.043c-2.237,4.071-6.636,3.569-10.573,5.16.768-2.814,1.264-5.279,2.154-7.591a9.042,9.042,0,0,1,2.478-2.826Zm.8,10.709a40.436,40.436,0,0,1-3.764,3.8c-.528.409-1.56.166-2.387.22-.187-1.848.511-2.666,2.093-2.939,1.187-.2,2.343-.619,4.051-1.085Zm-7.132-.643c-.274.667-1.263,1.038-2.1,1.669-.937-2.675-.471-3.468,3.341-6.4a34.481,34.481,0,0,1-1.252,4.729Zm-6.306.192a2.137,2.137,0,0,1-1.355-3.031,37.172,37.172,0,0,0,.938-3.69l.443-.044c-.233,2.237,2.689,4.38-.036,6.765Zm7.072,12.843c2.365-1.3,1.91-1.474,6.292,3.214a39.7,39.7,0,0,1-4.94-1.3c-.615-.241-.911-1.242-1.365-1.915Zm1.2-4.058c.808-1.7,1.695-2.178,3.194-1.636a35.412,35.412,0,0,0,3.85.954l-.013.293a35.686,35.686,0,0,1-4.637,1.216c-.726.093-1.543-.508-2.4-.827Zm-11.847-30.92c1.383-.222,3.008.018,3.15-2.116.145,2.134,1.8,1.808,3.132,2.08-3.415,2.5-2.75,2.426-6.293.036Zm1.989-5.436c.217,1.033-.3,2.958-1.031,3.3a11.153,11.153,0,0,1-4.533.3c-.409,0-.815-.413-1.218-.639a3.293,3.293,0,0,1-1.032-5.083c1.635-2.028,3.385-3.947,5.3-6.172.906,2.907,1.929,5.556,2.5,8.3Zm4.019,11.189-2.116.073c-.179.469-.372.986-.57,1.507-.121-1.828-1.47-1.456-2.57-1.518,2.217-2.024,2.233-2.024,5.245-.062Zm-.7,1.983a8.414,8.414,0,0,1,7.657,1.929c-.03,4.556-3.955,6.375-6.607,9.691-.665-4.2-3.233-7.675-1.06-11.62Zm-4.9,11.565a77.7,77.7,0,0,1-5.537-5.495,9.267,9.267,0,0,1-1.246-3.56c-.059-.222.366-.641.652-.879a8.477,8.477,0,0,1,6.945-1.633c2.23,4.027-.264,7.536-.822,11.571Zm-8.668-9.086c-.944-.038-1.928-.071-2.937-.109,1.026-2.539,1.161-2.619,4.287-2.182-.764.725-2.407.979-1.362,2.3Zm-1.6,1.768c3.913,2.237,3.484,6.561,5.175,10.52-3.982-1.536-8.293-1-10.7-4.9a8.306,8.306,0,0,1,5.513-5.609Zm2.028,15.73c-4.076.7-7.568,3.274-11.563,1.062a8.274,8.274,0,0,1,1.478-6.848A1.979,1.979,0,0,1,281,397.2a6.566,6.566,0,0,1,4.39,2.211c1.2,1.4,2.6,2.633,4.213,4.229Zm-9.444-8.61-1.043-.1-.947,1.56c-.869-2.533-.562-3.129,2.023-4.239-.028.92-.035,1.8-.047,2.785Zm-7.748-4.55c1.954.911,2.552-.574,3.376-1.7.715,3.593.715,3.593-2.948,5.58.155-1.346,1.544-2.768-.445-3.871Zm-8.377-8.831a63.224,63.224,0,0,1,7.52-1.486c1.373-.1,3.453.24,4.052,1.148.692,1.052.3,2.985.008,4.463a7.034,7.034,0,0,1-1.65,2.413c-.49.632-3.2.442-4.088-.43-1.94-1.89-3.758-3.893-5.851-6.1Zm11.873,13.068a11.061,11.061,0,0,1-2.6,10.059c-.914-1.433-1.44-3.612-3.966-2.224,1.205-4.586,1.857-5.347,6.552-7.827Zm5.226,26.724c-2.964-1.145-2.964-1.145-3.015-4.532.821.838,1.223,2.388,2.878,1.374-1.173,1.041-1.014,2.01.124,3.166Zm-4.931-2.718a9.019,9.019,0,0,1-6.68-7.48c2.5,1.093,2.9-.97,3.791-2.36a10.806,10.806,0,0,1,2.877,9.849Zm-4.688-13.281c.736,1.242.38,3.665-.778,4.029-.895.283-2.048.448-2.7-.786-.807-1.522-.564-3.792.553-4.381,1.074-.564,2.155-.141,2.918,1.146Zm-5.743,3.728c-2.133-.43-4.927.41-6.734-2.158,1.743-2.772,4.591-1.876,6.725-2.379-.009,1.56,0,2.983,0,4.546Zm-2.288,1.763c4.049.061,3.78-.345,5.069,3.536-1.19-.167-2.306-2.015-3.7.007,1.25-2.055-.648-2.531-1.383-3.535Zm3.177,4.921a8.09,8.09,0,0,1,3.783,2.439,6.6,6.6,0,0,1,1.167,2.5c.307.808-1.412,2.967-2.64,3.355-.329.106-.672.171-1.011.253-2.229.522-4.462,1.051-6.963,1.637a73.363,73.363,0,0,1,2.683-7.9c.476-1.037,2.055-2.388,2.969-2.268Zm11.694,6.508a10.77,10.77,0,0,1,7.23,7.176c-1.441.429-3.843-.787-3.8,2.311a8.958,8.958,0,0,1-3.435-9.473Zm4.917,11.854a3.057,3.057,0,0,1,.665-2.656c.919-.843,3.1.071,3.847,1.35.736,1.254.523,2.5-.531,3.077a3.274,3.274,0,0,1-3.99-1.757Zm5.867-2.6a10.8,10.8,0,0,1,10,2.446,9,9,0,0,1-9.67,2.092c1.836-1.5.864-3.009-.34-4.524Zm12.553,1.37a11.949,11.949,0,0,1-2.233-1.248l2.446-.851c.067-.464,1.424,1.144,1.752,1.12s-.963,1.372-1.973,1Zm-2.044-4.659a1.556,1.556,0,0,1-1.552,1.218,8.818,8.818,0,0,1-6.554-2.081c.008-4.6,3.908-6.377,6.435-9.279.659,3.416,3.008,6.432,1.664,10.158Zm4.576-10.228c2.5,2.873,6.495,4.491,6.607,9.074a8.3,8.3,0,0,1-7.571,2.136c-2.342-3.877.251-7.435.958-11.193Zm8.986,8.709c.623,1.175,1.543.267,2.476-.317-.375,2.515-1,2.928-4,2.779Zm.493-2.191a6.864,6.864,0,0,1-2.787-4.223c-.33-1.8-.95-3.548-1.563-5.759,3.85,1.458,8.1.955,10.52,4.814a8.117,8.117,0,0,1-4.86,5.349,1.57,1.57,0,0,1-1.317-.159Zm-1.553-15.245c4.2-.67,7.659-3.292,11.69-1.089a8.371,8.371,0,0,1-1.994,7.627c-4.48.024-6.306-3.877-9.7-6.515Zm8.93,8.417,1.744.319c.33-.591.639-1.137.973-1.734.685,2.92.572,3.137-2.435,4.552.3-.66.532-1.15.81-1.755-.3-.363-.641-.782-1.1-1.359Zm6.047,8.19a3.162,3.162,0,0,1,4.906-.711c2,1.822,3.768,3.889,5.838,6.073A79.2,79.2,0,0,1,329.6,433c-1.119.114-3.047-.549-3.362-1.349-.51-1.307-.054-3.019.114-4.546.043-.383.514-.737.785-1.116Zm2.932-3.335-3.571,1.721s.309-.346-.134-1.233a2.934,2.934,0,0,1,.165-2.164s1.079-1.9,2.054-1.616,1.484,3.313,1.484,3.313Zm-4.078-4.516a10.744,10.744,0,0,1,2.667-9.9c.979,1.266,1.318,3.579,3.85,2.262a8.912,8.912,0,0,1-6.52,7.662Zm4.434-10.51c-.743-1.254-.361-3.717.707-4.081a2.056,2.056,0,0,1,2.81.9c.7,1.408.508,3.752-.6,4.2-1.279.539-2.541.542-2.924-1Zm-1.878-3.588a10.8,10.8,0,0,1-2.833-9.793c4.321,1.725,4.939,2.389,6.729,7.326-2.135-.021-2.135-.021-3.9,2.487Zm-2.923-16.072c.947,1.28,1.46,2.793,3.363,1.881-1.657,1.268-.6,2.479-.024,3.738-3.46-1.075-3.627-1.343-3.341-5.6Zm-.243-9.3c-2.272.29-1.688,1.867-1.719,3.438-3.092-3.493-2.6-2.522-.859-6.49.492,1.354.273,3.163,2.576,3.074ZM335.32,397.1a7.043,7.043,0,0,1-3.744-2.207,7.183,7.183,0,0,1-1.33-2.817c-.3-.828,1.691-3,3.043-3.335,2.421-.6,4.857-1.146,7.645-1.8a72.162,72.162,0,0,1-2.64,7.825,4.255,4.255,0,0,1-2.978,2.366Zm-3.586-10.267c-.918.8-2.9,1.471-3.733,1.006-1.174-.661-1.761-2.407-2.513-3.736-.182-.308-.041-.8-.047-1.2a3.226,3.226,0,0,1,3.634-3.6c2.678.312,5.317.964,8.222,1.516a69.486,69.486,0,0,1-5.559,6.051Zm-6.447-10.377c-.889-1-.717-2.974-.939-4.536-.04-.294.225-.65.4-.95.445-.761.872-2.1,1.386-2.136a7.911,7.911,0,0,1,4.109.678,67.382,67.382,0,0,1,6.257,4.229,63.249,63.249,0,0,1-7.027,2.983c-1.317.421-3.495.527-4.182-.235Zm-5.081.465-3.967-2.253c1.482-1.591,2.03-4.576,5.262-4.7,1.508,2.86-.692,4.871-1.3,6.984ZM306.192,374.2c-.463,0-.926-.079-1.388-.123a3.283,3.283,0,0,1-3.138-4.051c.626-2.583,1.5-5.1,2.348-7.946a78.468,78.468,0,0,1,5.679,6.408c1.643,2.331-.558,5.733-3.5,5.745Zm-4.219-11.441a44.952,44.952,0,0,0-1.454,4.719,39.515,39.515,0,0,1-1.9-6.24c-.131-.949.858-2.052,1.4-3.217,2.078,1.394,2.87,2.71,1.961,4.771Zm-7.617-.362a35.383,35.383,0,0,0-2.848,3.256,42.906,42.906,0,0,1,.836-6.785c.23-.808,1.728-1.257,2.632-1.858,1.617,2.314,1.073,3.919-.62,5.419ZM289.4,367.52c-.26,1.148-1.463,2.822-2.369,2.911-1.358.141-2.851-.872-4.26-1.463-.273-.119-.409-.552-.623-.825a3.412,3.412,0,0,1,1.408-5.621c2.166-1,4.331-2.013,6.818-3.172a71.985,71.985,0,0,1-.974,8.2Zm1.554,6.961c-2.863,1.3-3.411,1.084-5.98-2.577a7.822,7.822,0,0,0,2.367.72,4.825,4.825,0,0,0,1.714-.95c-.661,1.71.694,2.218,1.9,2.841Zm-2.289,2.62c3.812-1.253,7.066-.814,9.831,1.878a10.9,10.9,0,0,1-9.956,2.689c.932-1.522,2.3-2.987.125-4.535Zm-3.536,6.573a10.893,10.893,0,0,1-7.124,7.46,8.99,8.99,0,0,1,3.074-9.5c.318,2.654,2.3,2.1,4.053,2.083Zm-9.219-4.474c2.263.04,2.076-1.666,2.462-3.007,2.013,3.146,2.006,3.166-.568,6.411-.242-1.388.449-3.07-1.888-3.368Zm1.027-5.672a6.754,6.754,0,0,1-.506,2.894c-.222.849-2.714,1.771-3.952,1.312-2.544-.946-5.023-2.051-7.777-3.19,2.17-1.584,4.1-2.9,5.9-4.366a4.1,4.1,0,0,1,4.55-.605c1.043.671,1.463,2.567,1.787,3.991Zm-7.994,4.736a3.7,3.7,0,0,1,.472.364,37.158,37.158,0,0,1-6.219,1.2c-.924.029-1.879-1.156-2.859-1.8,2.234-2.4,2.331-2.426,4.9-1.336q1.86.816,3.707,1.608Zm-2.377,8.66-.135.308a31.618,31.618,0,0,1-5.879-1.376c-.87-.373-1.242-1.908-1.817-2.88,2.265-1.292,3.8-.773,5.128,1.039a32.082,32.082,0,0,0,2.708,2.942ZM268.5,389.6c1.161.4,2.739,1.782,2.763,2.75.03,1.351-1.182,2.758-1.942,4.092-.173.3-.673.431-1.023.639a3.387,3.387,0,0,1-5.176-2.01c-.825-2.334-1.642-4.668-2.55-7.247a67.952,67.952,0,0,1,7.933,1.809Zm-.207,9.565c-.407,3.239-1,3.706-4.816,3.713.712-1.044,2.418-1.7,1.272-3.524,1.42,1.709,2.443.281,3.549-.155Zm-8.939-9.443a37.182,37.182,0,0,0,1.538,4.5,43.376,43.376,0,0,1-5.52-4.139c-.573-.582-.17-2.124-.213-3.219,2.356-.091,3.755.621,4.2,2.891Zm2.222,7.3c2.137,1.843.992,5.564-1.885,6.393-1.044.3-2.5.766-3.195.3a9.448,9.448,0,0,1-2.292-3.277c-.172-.289.014-.795.049-1.2.2-2.3.39-4.608.6-7.167,2.377,1.766,4.68,3.224,6.724,4.984ZM257.436,422.4a33.945,33.945,0,0,0,3.716-2.8A40.518,40.518,0,0,1,259,425.964c-.4.773-1.943.949-3.047,1.431-.872-2.32-.519-3.856,1.486-4.963Zm5.368,5.044c1.292-.309,2.586-.606,3.88-.906a2.488,2.488,0,0,1,.5.045,36.082,36.082,0,0,1-4.3,4.6c-.743.575-2.225.19-3.416.243.479-3.267.477-3.27,3.339-3.951Zm2.99,6.752a19.512,19.512,0,0,1,4.022,1.088,40.029,40.029,0,0,1-5.909,2.487c-.759.2-1.857-.919-2.807-1.445,1.808-2.667,1.808-2.667,4.7-2.1Zm6.654-.582c-2.524-.395-5.022-.939-7.821-1.477a60.869,60.869,0,0,1,5.132-5.591c1.054-.9,3.02-1.9,3.965-1.477,1.229.547,1.89,2.434,2.711,3.792.184.3.045.8.05,1.2a3.352,3.352,0,0,1-4.03,3.58Zm9.248,2.476,3.995,2.176c-1.449,1.587-2.028,4.449-5.263,4.752-1.485-2.737.634-4.791,1.274-6.893Zm14.038,2.654a14.388,14.388,0,0,1,1.566.14,3.239,3.239,0,0,1,3.064,3.407,3.314,3.314,0,0,1-.1.642c-.642,2.588-1.509,5.121-2.348,7.913-2.015-2.22-4.064-4.143-5.7-6.366s.61-5.682,3.525-5.7Zm4.192,11.624c.451-1.486.908-2.97,1.492-4.885a39.4,39.4,0,0,1,1.875,6.218c.129.946-.858,2.044-1.348,3.087-2.569-1.548-2.747-1.979-2.014-4.386Zm7.65.185a33.819,33.819,0,0,0,2.832-3.243,36.289,36.289,0,0,1-.756,6.4c-.283.954-1.69,1.576-2.617,2.369-1.663-2.383-1.17-3.99.541-5.485Zm4.926-5.058a4.42,4.42,0,0,1,2.481-3.018c1.253-.217,2.747.841,4.1,1.432.329.143.514.617.765.935a3.283,3.283,0,0,1-1.1,5.357c-2.261,1.168-4.605,2.179-7.192,3.389a66.953,66.953,0,0,1,.948-8.061Zm-1.194-7.305c3.352-.723,3.663-.585,5.152,2.28l-3.261.339c-.544-.717-1.22-1.652-1.89-2.583Zm1.952-2.33c-3.783,1.228-7.017.816-9.794-1.917a10.742,10.742,0,0,1,9.858-2.662c-.731,1.573-2.341,3.06-.063,4.616Zm3.546-6.614a10.811,10.811,0,0,1,7.1-7.424,8.979,8.979,0,0,1-3.036,9.491c-.315-2.548-2.318-2.045-4.059-2.033Zm8.5,4.286-2,2.908c-1.631-2.96-1.631-2.96.8-6.135.285,1.473-.472,3.2,1.205,3.261Zm-.338,5.679c-.126-.385.156-.9.241-1.356a3.244,3.244,0,0,1,3.656-2.773,3.277,3.277,0,0,1,.578.134c2.554.867,5,2.038,7.75,3.18a67.775,67.775,0,0,1-6.581,4.7c-1.08.6-3.15.884-3.894.261-1.026-.822-1.272-2.661-1.748-4.109Zm8.005-4.526a5.407,5.407,0,0,1-.545-.354,32.782,32.782,0,0,1,5.983-1.178c1.057-.019,2.129,1.056,3.283,1.684-2.268,2.407-2.505,2.469-4.874,1.474q-1.925-.771-3.846-1.591Zm.456-11.344c-1.16-.4-2.735-1.789-2.756-2.762-.028-1.352,1.175-2.761,1.952-4.09.205-.349.773-.49,1.174-.728a3.336,3.336,0,0,1,4.8,1.486c.991,2.472,1.771,5.029,2.752,7.87a67,67,0,0,1-7.921-1.744Zm2.693-14.928c.029-1.561.054-2.966.087-4.569,2.073.357,4.837-.486,6.65,2.121-1.651,2.877-4.579,1.82-6.736,2.483Zm3.96-12.279c2.073-1.746,4.319-3.292,6.669-5.059a75.344,75.344,0,0,1,.74,8.146c-.011,1.185-.775,3.147-1.587,3.368-1.384.388-3.085-.263-4.632-.583-.4-.084-.716-.561-1.061-.864a3.311,3.311,0,0,1-.419-4.664,3.146,3.146,0,0,1,.292-.308Zm4.378-5.556c-1.157.707-2.2,1.6-3.719,2.73a38.762,38.762,0,0,1,2.168-6.264c.444-.809,1.98-1.024,2.981-1.493,1.085,2.511.392,3.947-1.428,5.063ZM339,385.563a30.768,30.768,0,0,0-4.43,1,35.168,35.168,0,0,1,4.35-4.7c.8-.61,2.327-.274,3.55-.368-.166,2.583-1.065,3.946-3.469,4.112Zm-2.7-6.786c-1.4-.279-2.8-.539-4.7-.9a33.931,33.931,0,0,1,5.757-2.466c1.047-.234,2.326.577,3.6.95-1.876,3-1.888,3-4.654,2.451Zm.037-7.322q-1.707-1.189-3.411-2.388c-.037-.027-.038-.1-.114-.336a32.845,32.845,0,0,0,4.256-.036,3.232,3.232,0,0,1,3.956,2.29,3.474,3.474,0,0,1,.084.43c-2.415,1.711-2.415,1.711-4.77.073Zm1.592-4.842c-.021.107-.048.213-.071.32-2.576,0-5.156.118-7.722-.044a3.267,3.267,0,0,1-2.9-3.6,3.08,3.08,0,0,1,.049-.315c.119-.617.235-1.239.4-2.133ZM315.6,354.067c3.547,1.985,6.887,3.856,10.4,5.824-.467.456-.759.735-1.047,1.017-2.157,2.079-4.38,1.78-5.942-.809-1.084-1.794-2.15-3.594-3.219-5.4a4.5,4.5,0,0,1-.2-.6Zm5.95,10.192c1.729,1.089,2.6-.178,3.712-1.125.222,1.282-1.172,2.878,1.08,3.588-2.12-.3-2.235,1.308-2.907,2.677-.236-.709-.412-1.239-.616-1.844l-1.638.453c.209-1.187,2.141-2.141.369-3.714Zm-1.483,1.486c-.33,1.348-1.767,2.451-2.816,3.579-.273.3-.863.309-1.3.455a3.372,3.372,0,0,1-4.417-2.586c-.438-2.577-.678-5.176-1.045-8.1a74.3,74.3,0,0,1,7.555,3.489c1.009.632,2.239,2.326,2.027,3.194Zm-5.406-9.494c.522,1.149,1.271,2.192,2.182,3.73a43.01,43.01,0,0,1-6.229-2.928c-.7-.467-.644-2.05-.92-3.065,2.683-.832,4.035.242,4.967,2.3Zm-17.668-8.907c2.326-1.677,4.247-1.812,6.653-.108,2.439,1.729,5.2,3.007,8.164,4.683-1.535.042-2.7.07-4,.106.15,1.374.291,2.623.448,4.064l-3.824-1.587-1.223,3.9c-.994-1.053-1.842-1.948-2.82-2.978-.889.975-1.714,1.895-2.728,3.014-.484-1.322-.916-2.525-1.379-3.8l-3.753,1.58c.124-1.386.233-2.61.36-4.007-1.179-.01-2.3-.016-3.947-.027,2.958-1.718,5.643-3.065,8.05-4.805Zm-6.267,6.378c.41,2.515-.264,3.95-2.412,4.655a44.173,44.173,0,0,0-4.293,1.962,36.548,36.548,0,0,1,3.345-5.583c.646-.712,2.192-.675,3.359-1Zm-5.77.933c-1.885,2.58-2.11,6.286-5.516,7.887-1.14.537-1.894.565-2.727-.359-.5-.557-1.094-1.022-1.738-1.614Zm-9.005,9.2c.851.665,1.682,2.067,3.338.8-1.314,1.537-.116,2.505.639,3.561l-.26.406-1.888-.95c.111.923.183,1.505.255,2.088-1.1-1.11-1.146-2.877-2.71-2.382.2-1.1.407-2.281.626-3.49Zm-2.767-2.173c.157.567.273.95.365,1.339.665,2.813-.718,4.536-3.71,4.609-2.206.056-4.4.093-6.944.147Zm-9.6,7.873c1.5-.026,2.991-.021,4.486-.021.028,0,.054.09.148.249a34.491,34.491,0,0,1-4.921,3.384c-.867.413-2.21-.183-3.376-.321.774-2.895,1.151-3.212,3.662-3.258Zm-15.739,15.851c-.039-2.555-.1-5.112-.062-7.662a2.117,2.117,0,0,1,.738-1.554c3.359-2.08,6.772-4.062,10.58-6.318-.746,1.366-1.278,2.346-1.875,3.442,1.209.529,2.357,1.027,3.7,1.614-1.115.889-2.083,1.666-3.178,2.543l2.693,3.033-3.962.9c.4,1.257.781,2.466,1.263,3.973-1.407-.3-2.664-.563-4.033-.852-.142,1.4-.274,2.7-.427,4.159-1.17-.833-2.187-1.551-3.348-2.375-.617,1.07-1.183,2.053-1.989,3.447-.032-1.687-.079-3-.1-4.321Zm1.57,6.961c-.335-.935.459-2.272.73-3.394,2.578.843,3.331,2.329,2.812,4.635a34.554,34.554,0,0,0-.384,4.309,35.2,35.2,0,0,1-3.159-5.516Zm-1.462,2c1.371,2.911,4.464,4.957,4.24,8.695-.079,1.284-.419,2.049-1.77,2.272a16.338,16.338,0,0,0-2.326.751c-.053-4.036-.1-7.861-.145-11.685Zm.158,13.8a2.923,2.923,0,0,1,.627.032c1.1.352,2.212.71,3.2,1.035,1.6,4.5-2.092,7.147-3.669,10.591q-.078-5.753-.155-11.625Zm2.378,11.844a38.669,38.669,0,0,0,2.273-4.071,46.057,46.057,0,0,1,.594,6.846c-.044.8-1.388,1.536-2.159,2.325-1.877-1.7-2.056-3.251-.709-5.067Zm9.35,23.571c-.059.092-.121.182-.176.272-.821-.442-1.648-.876-2.464-1.33-2.584-1.455-5.178-2.889-7.733-4.389a1.969,1.969,0,0,1-.972-1.216c-.116-4.038-.136-8.08.112-12.214l1.785,3.012c1.154-.809,2.17-1.521,3.326-2.329.176,1.4.327,2.643.507,4.047l4.056-.883-1.27,3.962c1.355.272,2.6.523,4.046.812l-2.648,3.141,3.3,2.4c-1.276.6-2.364,1.112-3.643,1.711Zm1-2.008c2.039-1.682,2.453-1.7,4.576-.223,1.222.852,2.439,1.708,4.084,2.859a36.83,36.83,0,0,0-4.791.036,3.124,3.124,0,0,1-3.8-2.258,3.241,3.241,0,0,1-.071-.381Zm13.215,10.416q-5.061-2.85-10.085-5.67c.017-.1.029-.2.046-.307a66.533,66.533,0,0,1,7.888.084c2.941.382,3.545,2.269,2.151,5.925Zm12.226,6.6c.013.021-.05.087-.126.214-3.354-1.883-6.7-3.772-10.252-5.767.533-.488.874-.792,1.215-1.111,2.022-1.924,4.234-1.613,5.7.8,1.168,1.982,2.312,3.94,3.462,5.894Zm-4.37-11.384c.126-1.3,1.807-2.48,2.882-3.648.24-.256.758-.247,1.144-.38a3.242,3.242,0,0,1,4.235,1.752,3.279,3.279,0,0,1,.208.741c.469,2.613.7,5.272,1.067,8.176a56.172,56.172,0,0,1-6.918-3.173c-1.2-.72-2.727-2.348-2.618-3.436Zm5.494,9.642a44.226,44.226,0,0,0-2.257-3.865,46.327,46.327,0,0,1,6.254,2.959c.654.43.57,1.992.823,3.032a3.468,3.468,0,0,1-4.631-1.614,3.419,3.419,0,0,1-.189-.48Zm25.185,4.208c-3.425,2.029-6.84,4.077-10.287,6.055a1.717,1.717,0,0,1-1.418-.056c-3.409-1.862-6.782-3.786-10.165-5.693.034-.114.064-.229.1-.342,1.029-.028,2.059-.052,3.309-.087-.147-1.334-.29-2.614-.459-4.107l3.78,1.634c.421-1.263.83-2.483,1.3-3.89,1,1.054,1.865,1.958,2.817,2.959l2.732-3.005c.48,1.375.872,2.5,1.336,3.837,1.2-.523,2.355-1.025,3.787-1.646-.132,1.407-.247,2.684-.376,4.047,1.217,0,2.339.007,3.465.009a2.87,2.87,0,0,0,.083.319Zm-1.222-1.863c-.577-2.783-.3-3.407,1.759-4.354,1.448-.662,2.9-1.334,4.779-2.2a42.413,42.413,0,0,1-3.42,5.7c-.567.714-2.052.628-3.118.89Zm5.183-.623c1.464-2.529,2.594-4.747,3.971-6.8,1.6-2.388,3.7-2.143,6.381.664Zm9.436-9.493c-.834-.508-1.613-2.132-3.314-.807,1.326-1.592,0-2.545-.524-3.882.456.248.92.5,1.444.787l.675-1.92c.864.954.726,2.9,2.328,2.3-.193,1.15-.4,2.339-.609,3.557Zm12.773-3.579-9.954,5.9c-.169-.58-.327-1.056-.441-1.543-.611-2.681.79-4.441,3.632-4.527,2.243-.066,4.488-.093,6.732-.136.008.132.021.237.034.339Zm-.99-2.057a39.281,39.281,0,0,0-4.487.059,43.125,43.125,0,0,1,5.568-3.874c.77-.378,2.1.373,3.19.62-.589,2.708-2.036,3.467-4.273,3.228Zm16.275-18.61c.052,3.428.111,6.856.1,10.283a2.187,2.187,0,0,1-.6,1.621c-3.386,2.108-6.84,4.11-10.5,5.955l1.658-3.039L341,438c1.12-.882,2.09-1.65,3.192-2.513-.9-1.008-1.721-1.934-2.7-3.045l3.975-.922c-.42-1.295-.81-2.489-1.3-3.988l4.06.891c.13-1.356.257-2.649.4-4.158,1.182.826,2.23,1.558,3.361,2.351.605-1.027,1.127-1.919,1.815-3.088a9.742,9.742,0,0,1,.23,1.325Zm-1.475-4.254c.329.933-.506,2.275-.817,3.434-2.484-.9-3.319-2.327-2.791-4.636a35.475,35.475,0,0,0,.415-4.414,34.968,34.968,0,0,1,3.2,5.646Zm-4.855-7.32c-.179,2.371-.4,4.736-.605,7.1a1.551,1.551,0,0,1-.195.393,70.784,70.784,0,0,1-6.412-4.752c-.876-.8-1.78-2.693-1.4-3.476.626-1.288,2.266-2.1,3.522-3.056.238-.182.673-.1,1.02-.14a3.359,3.359,0,0,1,4.074,3.956ZM344.29,407.4l1.291-1.424c-.4-.4-.788-.787-1.325-1.329,1.34-.186,3.08.831,3.635-1.449-.246,2.264,1.556,2.1,2.84,2.729-1.285.587-3,.584-2.788,2.727-.572-2.016-2.116-1.284-3.648-1.224Zm9.685,11.649a80.765,80.765,0,0,1-4.2-7.226c-.9-1.982.228-3.728,2.337-4.4l1.725-.553c.049,4.073.1,7.879.146,12.212Zm-.166-14.1c-1.29-.413-2.939-.459-3.332-1.183a5.842,5.842,0,0,1-.515-4.224,45.179,45.179,0,0,1,3.389-6.436c.107.03.217.058.328.086.044,3.873.089,7.716.134,11.789Zm-2.3-12.222c-.7,1.3-1.415,2.59-2.338,4.27a39.214,39.214,0,0,1-.592-6.542c.064-.918,1.324-1.754,2.087-2.674,2.15,2.575,2.15,2.575.848,4.98Zm2.088-12.468a57.084,57.084,0,0,0-.037,7.8c0,.025-.091.054-.211.125l-1.76-2.97c-1.108.77-2.168,1.5-3.37,2.343-.175-1.389-.337-2.637-.508-4.028-1.336.282-2.567.543-4,.843.408-1.375.782-2.626,1.18-3.97-1.33-.257-2.569-.486-4.06-.768.967-1.119,1.807-2.085,2.719-3.138l-3.325-2.4c1.281-.609,2.4-1.15,3.643-1.746l-1.787-3.015.213-.266a60.2,60.2,0,0,0,6.883,3.8c3.5,1.437,4.947,3.6,4.428,7.417Z" fill="#d5d6d5"/>
    <g id="Group_176" data-name="Group 176">
      <g id="Group_175" data-name="Group 175">
        <path id="Path_152" data-name="Path 152" d="M201.313,319.885a.5.5,0,0,1,.236.662,16.391,16.391,0,0,1-1.113,1.937q-.248.393-1.436,2.181-2.381,3.571-3.242,4.948-1.019,1.621-1.74,2.881-1.443,2.519-2,3.4-.833,1.326-1.324,1.018t1.217-3.139a4.665,4.665,0,0,0,.549-1.093q.4-.848-.1-1.157a17.218,17.218,0,0,0-2.432-.7l-3.841-.971q-1.266-.384-4.78-1.22l-.556.884-2.4,3.832q-1.344,2.034-2.7,4.4.708,1.058,3.375,4.444l2.515,3.085a4.67,4.67,0,0,0,1.024.986q.837.523,1.76-.4.2-.215,1.707-2.284c.318-.44.6-.581.849-.426q.417.262-.137,1.146l-5.087,8.107-.4.638q-.432.689-.923.38-.294-.184.562-1.77,1.134-2.025.835-2.967a21.8,21.8,0,0,0-3.016-4.359q-1.87-2.473-5.576-7.264l-12.63-16.21q-.8-1.12-2.619-3.355-1.332-1.589-1.147-1.884t2.938.337q3.516.837,28.32,5.722,3.173.617,6.441,1.3,2.784.585,3.8.055a8.109,8.109,0,0,0,2.256-2.83C200.748,319.8,201.019,319.7,201.313,319.885Zm-21.3,8.409c-.119-.029-.5-.11-1.149-.245q-6.935-1.6-9.8-2.157-.789-.17-2.291-.521l-1.079-.219q1.56,2.208,4.492,5.821,3.285,4.039,4.555,5.722l.678-1.08.679-1.082,1.726-2.75Q178.534,330.652,180.015,328.294Z" fill="#d5d6d5"/>
        <path id="Path_153" data-name="Path 153" d="M212.3,293.212a12.942,12.942,0,0,1,3.588,12.193,14.622,14.622,0,0,1-4.176,7.73,16.057,16.057,0,0,1-4.124,2.479,8.159,8.159,0,0,0-2.207,1.3,5.5,5.5,0,0,0-1.514,3.038,1.145,1.145,0,0,1-.218.529.405.405,0,0,1-.576.068,20.8,20.8,0,0,1-1.481-1.474L181.65,298.1c-.106-.113-.36-.378-.759-.8q-.56-.588-1-1.05l-1.758-1.85q-1.04-1.094-1.753-1.056a4.04,4.04,0,0,0-2.042,1.3q-1.121,1.065-1.4.77c-.186-.195-.108-.456.233-.78a40.514,40.514,0,0,0,7.316-8.956l.683.632,11.787,12.4a7.488,7.488,0,0,1,2.453-6.733,10.591,10.591,0,0,1,8.348-3.091A12.837,12.837,0,0,1,212.3,293.212Zm-6.1,6.121q-7.751-8.156-11.157-4.919a4.023,4.023,0,0,0-1.1,4.4,5.7,5.7,0,0,0,1.1,1.955q.8.966,4.833,5.21l2.437,2.566q3.756,3.951,5.5,4.734a2.845,2.845,0,0,0,3.341-.736,4.341,4.341,0,0,0,1.052-5.08Q211.067,304.462,206.192,299.333Z" fill="#d5d6d5"/>
        <path id="Path_154" data-name="Path 154" d="M247.514,284.9q.238.4-.578.954a57.364,57.364,0,0,0-5.988,4.227,9.048,9.048,0,0,0-2.286,2.956,1.186,1.186,0,0,1-.429.526c-.132.081-.278-.013-.436-.278l-.671-1.12q-.252-.423-.61-1.02a6.6,6.6,0,0,0-.527-.766q-1.117,5.2-4.771,7.384a7.629,7.629,0,0,1-6.391.979q-1.96-.587-4.051-4.079l-2.12-3.542-1.761-2.943-3.881-6.485q-.657-1.1-1.125-1.156a4.56,4.56,0,0,0-1.969.772q-1.3.714-1.514.365-.239-.4.458-.816l.548-.327q.747-.447,2.31-1.281t2.109-1.161q.1-.059.976-.685t2.668-1.7l.945-.566,3.232,5.4q2.306,3.85,3.284,5.71t.828,1.61q3.141,5.252,4.592,6.15a2.6,2.6,0,0,0,2.894.034,4.666,4.666,0,0,0,1.98-3.693,2.587,2.587,0,0,0-.149-1.436q-.27-.618-1.612-2.863l-5.137-8.582q-2.178-3.642-2.726-4.332a1.212,1.212,0,0,0-1.793-.214l-1.374.822q-.687.41-.923.013-.18-.3,2.495-1.9,2.326-1.392,7.348-4.466,1.134,1.893,3.634,6.073l6.046,10.1a22.976,22.976,0,0,0,1.754,2.7,1,1,0,0,0,1.088.127,22.475,22.475,0,0,0,2.747-1.509Q247.276,284.5,247.514,284.9Z" fill="#d5d6d5"/>
        <path id="Path_155" data-name="Path 155" d="M274.236,277.287q.129.386-.972.751l-2.479.818A13.985,13.985,0,0,0,265.534,282a2.465,2.465,0,0,1-.35.233q-.495.164-.879-.808a8.52,8.52,0,0,0-.62-1.323,8,8,0,0,1-5.054,4.3,10.689,10.689,0,0,1-9.169-.937,13.989,13.989,0,0,1-6.145-8.048,13.464,13.464,0,0,1,.2-10.114,11.533,11.533,0,0,1,7.286-6.229,7.321,7.321,0,0,1,6.4.693l-2.55-7.709q-1.639-4.956-2.38-5.719t-3.2.112q-1.432.474-1.558.088c-.086-.256.094-.459.538-.605a33.029,33.029,0,0,0,9.18-4.687,3.693,3.693,0,0,1,.872-.532q.61-.2,1.048,1.119l.912,2.753,1.748,5.286,8.689,26.266a2.2,2.2,0,0,0,.694,1.175q.552.369,2.074-.2Q274.073,276.793,274.236,277.287Zm-11.77-1.6-3.972-12a6.93,6.93,0,0,0-2.052-3.414A3.537,3.537,0,0,0,253,259.7q-5.319,1.758-1.438,13.488a20.391,20.391,0,0,0,4.035,7.645q2.3,2.415,4.742,1.609a3.9,3.9,0,0,0,2.259-2.184A6.146,6.146,0,0,0,262.466,275.683Z" fill="#d5d6d5"/>
        <path id="Path_156" data-name="Path 156" d="M289.5,276.344q.068.429-2.1.764-.514.081-3.216.379-1.38.156-2.694.358-1.257.193-4.665.837l-1.7.322c-.832.166-1.271.1-1.318-.207s.371-.507,1.256-.605q2.015-.252,2.259-.757a9.71,9.71,0,0,0-.213-3.484l-4.656-30.162q-.3-1.947-.764-2.254a4.442,4.442,0,0,0-2.441-.005c-.969.149-1.473.082-1.517-.2q-.076-.487,1.4-.777a30.1,30.1,0,0,0,10.139-3.561l3.1,20.12,2.2,14.273a26.826,26.826,0,0,0,.9,4.526q.3.629,1.5.386l1.719-.266Q289.434,275.913,289.5,276.344Z" fill="#d5d6d5"/>
        <path id="Path_157" data-name="Path 157" d="M318.648,276.578c0,.232-.18.345-.528.339l-1.159-.021-2.029-.034-1.451-.025a60.689,60.689,0,0,1-6.144-.279l-.928-.016-1.394.149c-.5.03-.752-.12-.747-.449,0-.25.1-.374.3-.37l1.334.023q1.275.08,1.461-.671.124-.462.216-5.8l.149-8.641q.092-5.4-.41-6.389a2.9,2.9,0,0,0-2.85-1.557,3.81,3.81,0,0,0-3.487,1.981,9.977,9.977,0,0,0-.649,4.244l-.157,9.15q-.073,4.252-.08,4.662l-.012.7-.024,1.4q-.073.875,2.373.916c.34,0,.51.126.506.358q-.008.408-.761.4l-.464-.009a4.261,4.261,0,0,0-1.389-.2l-2.551-.044-3.249,0-3.424.057-1.74-.03c-.58-.011-.868-.131-.864-.363a.235.235,0,0,1,.121-.23,1.436,1.436,0,0,1,.523-.049,10.21,10.21,0,0,0,2.612-.13q.408-.166.545-1.324.069-.694.178-6.958l.365-21.283a50.286,50.286,0,0,0-.137-7.224q-.244-.962-2.449-1c-1.121-.018-1.679-.145-1.676-.376s.66-.376,1.971-.431a36.031,36.031,0,0,0,8.393-1.364,4.322,4.322,0,0,1,1.1-.213q.463.008.406,3.256l-.02,1.16q-.02,1.16-.053,3.074c-.02,1.236-.036,2.087-.043,2.55l-.159,9.221a10.531,10.531,0,0,1,3.333-3.192,9.069,9.069,0,0,1,4.335-.795q5.742.1,7.111,4.763a16.293,16.293,0,0,1,.439,4.881l-.233,13.511q-.024,1.509.461,1.864a5.233,5.233,0,0,0,2.459.39C318.461,276.168,318.652,276.308,318.648,276.578Z" fill="#d5d6d5"/>
        <path id="Path_158" data-name="Path 158" d="M343.793,279.721c-.068.306-.466.659-1.189,1.059a8.738,8.738,0,0,1-6.5.887,4.963,4.963,0,0,1-3.147-1.733,5.918,5.918,0,0,1-.6-3.809q-3.591,4.065-8.005,3.07a5.393,5.393,0,0,1-3.587-2.415,5.542,5.542,0,0,1-.606-4.3q1.608-7.129,14.122-5.674l.268-1.188a35.193,35.193,0,0,0,1.174-7.048l.008-.3q-.156-3.008-3.38-3.734a4.279,4.279,0,0,0-3.241.4,3.075,3.075,0,0,0-1.6,1.839c-.084.377.316.7,1.205.985q2,.629,1.475,2.949a2.869,2.869,0,0,1-1.286,1.88,2.94,2.94,0,0,1-2.307.342,3.849,3.849,0,0,1-2.464-1.6,3.4,3.4,0,0,1-.479-2.754,5.814,5.814,0,0,1,3.428-3.865,10.055,10.055,0,0,1,6.841-.537q5.885,1.324,7.731,3.943,1.471,2.175.489,6.531l-2.182,9.676q-.639,2.829-.684,3.294-.254,2.44,1.105,2.746a4,4,0,0,0,2.683-.822.8.8,0,0,1,.516-.181A.259.259,0,0,1,343.793,279.721Zm-10.3-9.4.625-2.773q-5.73-.16-6.892,4.987-.893,3.96,1.823,4.572a2.267,2.267,0,0,0,2.532-1.212A18.851,18.851,0,0,0,333.488,270.316Z" fill="#d5d6d5"/>
        <path id="Path_159" data-name="Path 159" d="M381.683,301.611q-.243.465-.96-.038l-.928-.48-1.493-.774q-1.5-.773-3.606-1.867l-2.883-1.494-.773-.4q-.618-.321-1.134-.587l-.669-.347q-.721-.375-.559-.685.133-.256,1.368.313,1.548.74,2.006-.145l5.993-11.569q2.768-5.343,2.968-6.621.261-1.775-1.816-2.85a3.852,3.852,0,0,0-3.869.1,3.27,3.27,0,0,0-1.3,1.231q-.614.932-2.865,5.277l-5.093,9.834q-.8,1.553-.655,1.958t1.8,1.259c.308.161.419.326.329.5q-.214.414-.78.121a5.985,5.985,0,0,1-.8-.478l-9.938-5.278c-.309-.16-.41-.344-.3-.55s.572-.1,1.4.33c.617.319,1.022.421,1.215.3l.37-.463,6.551-12.649q2.516-4.852,2.469-6.153t-1.8-2.208a3.829,3.829,0,0,0-4.053.133,4.236,4.236,0,0,0-1.15,1.146q-.438.658-2.181,4.023l-5.309,10.249q-1.233,2.382-1.07,2.762c.107.253.541.574,1.3.966l.772.4c.343.178.467.361.367.552-.115.221-.327.253-.635.092q-.67-.345-1.236-.64l-2.164-1.12q-4.152-2.073-4.425-2.175-2.5-1.218-3.689-1.832l-.721-.373c-.447-.232-.6-.485-.456-.759.124-.24.341-.281.651-.12l1.077.819a2.245,2.245,0,0,0,1.657.332q.6-.149,1.539-1.961l4.425-8.544a71.311,71.311,0,0,0,3.789-7.82q-.171-.681-2.952-2.12c-.481-.25-.658-.494-.534-.735q.213-.411.882-.065a22.381,22.381,0,0,0,10.342,2.482,1.871,1.871,0,0,1,.8.09c.172.088.185.27.044.545-.267.516-.508.935-.719,1.261l-1.121,2.163a8.654,8.654,0,0,1,8.992-.242q5.191,2.689,3.931,7.392a8.655,8.655,0,0,1,4.559-1.756,10.036,10.036,0,0,1,4.978,1.34q6.529,3.381,2.777,10.623c-.053.1-.188.362-.4.776s-.394.76-.535,1.034l-5.654,10.916a9.727,9.727,0,0,0-.916,2.084c-.039.285.171.571.634.855q.978.637,1.8,1.063Q381.842,301.3,381.683,301.611Z" fill="#d5d6d5"/>
        <path id="Path_160" data-name="Path 160" d="M391.837,312.625c-.175.206-.4.2-.658-.028l-5.851-4.984-4.224-3.6c-.176-.151-.4-.338-.66-.562l-.4-.338q-.528-.45-.286-.732.179-.212,1.224.617,1.539,1.236,2.05,1.172t1.759-1.528l10.849-12.738q1.437-1.686,1.432-2.263t-1.46-1.819a8.684,8.684,0,0,1-1.044-.966c-.079-.117-.042-.264.109-.44.174-.205.483-.122.925.255a28.613,28.613,0,0,0,9.58,5.568q-.365.6-2.261,3.1l-4.777,5.607-7.069,8.3q-1.542,1.811-1.475,2.4t2.011,2.245C391.938,312.178,392.014,312.419,391.837,312.625ZM412.59,282a3.851,3.851,0,0,1-2.663,1.388,3.664,3.664,0,0,1-2.83-.886,3.83,3.83,0,0,1-1.409-2.647,3.729,3.729,0,0,1,.947-2.85,3.471,3.471,0,0,1,2.589-1.3,4.1,4.1,0,0,1,2.889,1.09,3.664,3.664,0,0,1,1.356,2.525A3.493,3.493,0,0,1,412.59,282Z" fill="#d5d6d5"/>
        <path id="Path_161" data-name="Path 161" d="M411.07,333.788q-.312.26-1.055-.63l-1.673-2a14,14,0,0,0-4.858-3.726,2.384,2.384,0,0,1-.345-.241q-.335-.4.428-1.114a8.318,8.318,0,0,0,1-1.062,8,8,0,0,1-5.855-3.12,10.692,10.692,0,0,1-2.5-8.871,13.985,13.985,0,0,1,5.226-8.673,13.468,13.468,0,0,1,9.479-3.535,11.542,11.542,0,0,1,8.472,4.486A7.329,7.329,0,0,1,421.1,311.5l6.231-5.2q4.008-3.347,4.443-4.316t-1.281-2.936q-.966-1.156-.654-1.418c.207-.172.462-.08.762.279a32.955,32.955,0,0,0,7.732,6.814,3.747,3.747,0,0,1,.815.615q.416.495-.654,1.387l-2.225,1.859-4.274,3.569-21.233,17.737a2.173,2.173,0,0,0-.837,1.078q-.141.645.944,1.855Q411.471,333.454,411.07,333.788Zm-2.836-11.537,9.7-8.106a6.933,6.933,0,0,0,2.421-3.164,3.538,3.538,0,0,0-.736-3.415q-3.591-4.3-13.072,3.622a20.372,20.372,0,0,0-5.627,6.563q-1.4,3.03.248,5a3.9,3.9,0,0,0,2.86,1.3A6.144,6.144,0,0,0,408.234,322.251Z" fill="#d5d6d5"/>
        <path id="Path_162" data-name="Path 162" d="M429.535,383.275q-.276.074-.431-.509l-1.121-4.237-.333-1.258-.324-1.228c-.108-.409-.081-.635.084-.679s.4.4.72,1.345q.262.748.5.817a4.516,4.516,0,0,0,1.467-.256l9.009-2.383-2.463-9.313-8.755,2.316a3.508,3.508,0,0,0-1.582.651,2.737,2.737,0,0,0,.044,1.543q.15.82-.067.878c-.184.05-.332-.133-.441-.545l-.074-.278q-.2-.742-.413-1.562l-.257-.975q-.115-.434-.344-1.3t-.687-2.6c-.109-.413-.082-.641.083-.684s.322.134.473.537c.091.263.186.535.282.819.162.442.34.7.538.785a7.683,7.683,0,0,0,1.754-.366l16.311-4.312a5.27,5.27,0,0,0,1.6-.573q.208-.2.02-1.047-.189-.977-.2-1.156c-.008-.119.063-.2.216-.238.173-.046.3.064.366.333.023.082.058.261.109.534q.141.789.9,3.667.418,1.578.628,2.185a2.817,2.817,0,0,1,.193.543c.1.372.044.584-.163.639-.186.05-.368-.262-.545-.931s-.361-1.052-.553-1.145a3.1,3.1,0,0,0-1.527.189l-7.139,1.888,2.463,9.311,6.673-1.764a4.29,4.29,0,0,0,1.874-.76c.153-.219.088-.818-.194-1.8-.082-.309-.03-.489.156-.538s.326.1.419.453l.041.154q.115.432.4,1.516.3,1.113.444,1.67.5,1.887.673,2.553t.226.851c.114.432.079.674-.107.723s-.409-.377-.669-1.279a2.124,2.124,0,0,0-.217-.572.541.541,0,0,0-.444-.3,7.593,7.593,0,0,0-1.473.307l-16.458,4.352a5.329,5.329,0,0,0-1.693.611q-.26.4.128,1.862Q429.845,383.194,429.535,383.275Z" fill="#d5d6d5"/>
        <path id="Path_163" data-name="Path 163" d="M432.17,396.5q-.54.072-1.274-.971a4.668,4.668,0,0,1-.874-2.084,2.07,2.07,0,0,1,1.951-2.571,3.965,3.965,0,0,1-2.84-3.412,3.217,3.217,0,0,1,.512-2.349,2.71,2.71,0,0,1,1.96-1.158q2.6-.346,4.536,2.565a17.306,17.306,0,0,1,1.506,3.574l.794-.106a14.948,14.948,0,0,0,3.641-.772,2.182,2.182,0,0,0,1.316-2.5,2.876,2.876,0,0,0-.849-1.776,1.894,1.894,0,0,0-1.621-.545c-.169.024-.237.166-.2.431a.934.934,0,0,1-.287.764,1.318,1.318,0,0,1-.815.431,1.245,1.245,0,0,1-1.581-1.211,1.621,1.621,0,0,1,.332-1.271,1.744,1.744,0,0,1,1.191-.641,3.4,3.4,0,0,1,2.724.833,5.246,5.246,0,0,1,1.653,3.46q.463,3.49-1.336,4.535a9.487,9.487,0,0,1-2.848.669l-5.933.786q-1.459.192-1.708.258-1.122.309-1.02,1.072a1.887,1.887,0,0,0,.827,1.374c.261.181.4.324.413.43S432.3,396.48,432.17,396.5Zm2.623-6.028,2.314-.307a8.08,8.08,0,0,0-1.855-3.174,2.94,2.94,0,0,0-2.467-.707,2.432,2.432,0,0,0-1.589.8,1.879,1.879,0,0,0-.458,1.54,2.453,2.453,0,0,0,1.809,1.955A7.076,7.076,0,0,0,434.793,390.468Z" fill="#d5d6d5"/>
        <path id="Path_164" data-name="Path 164" d="M431.125,416.916c-.16,0-.24-.181-.242-.543,0-.043,0-.271,0-.689s-.006-.976-.01-1.68q0-.1-.017-3.391c0-.278.067-.418.208-.418.158,0,.238.116.239.351l0,.256,0,.8c.021.319.1.505.226.557a5.79,5.79,0,0,0,1.348.074l7.956-.041a5.245,5.245,0,0,0,2.643-.506,1.814,1.814,0,0,0,.778-1.673,2.66,2.66,0,0,0-.5-1.54,2.631,2.631,0,0,0-1.27-.994,24.714,24.714,0,0,0-3.552-.109l-6.047.031a12.162,12.162,0,0,0-1.217.037.507.507,0,0,0-.381.569l.005.913c0,.272-.079.41-.236.41-.14,0-.21-.159-.212-.478l0-.224q0-.322-.011-2.176c0-.428-.005-1-.009-1.713s-.006-1.146-.006-1.295l0-.352c0-.256.084-.385.254-.386.107,0,.17.064.193.191s.035.554.039,1.281c.022.341.13.521.321.542l.448.029,8.907-.046a5,5,0,0,0,2.55-.475,1.81,1.81,0,0,0,.7-1.64,2.733,2.733,0,0,0-.745-1.951,2.441,2.441,0,0,0-1.856-.77l-9.064.048a2.481,2.481,0,0,0-1.133.147c-.117.1-.174.406-.171.931v.252a2.119,2.119,0,0,1,.034.346c0,.231-.084.347-.254.347q-.224,0-.225-.415l0-.319q.029-.77-.012-2.4l-.017-3.136q0-.449.253-.45c.15,0,.225.137.226.416a4.582,4.582,0,0,0,.119,1.407.489.489,0,0,0,.4.222l8.3-.043a20.988,20.988,0,0,0,2.809-.111q.414-.1.41-.93l0-.449c0-.191,0-.394,0-.607q0-.416.221-.416c.129,0,.2.046.225.142s.056.443.1,1.041a7.3,7.3,0,0,0,.394,1.84,2.784,2.784,0,0,0,.614,1.264c.235.234.353.4.354.511s-.084.171-.255.193-.767.047-1.792.073a4.328,4.328,0,0,1,2.069,3.933q.015,2.85-2.125,3.472a4.291,4.291,0,0,1,2.164,3.995,3.228,3.228,0,0,1-1.68,3.215,7.168,7.168,0,0,1-2.972.464l-7.9.04a3.125,3.125,0,0,0-1.2.116,2.44,2.44,0,0,0-.172.993l0,.568C431.354,416.8,431.284,416.914,431.125,416.916Z" fill="#d5d6d5"/>
        <path id="Path_165" data-name="Path 165" d="M429.988,423.53c-.191-.02-.267-.211-.229-.571q0,.031.143-.757.165-.948.231-1.585l.348-3.308a.612.612,0,0,1-.087-.4c.024-.233.115-.342.272-.325q.339.034.271.672a2.977,2.977,0,0,0,.036,1.34,3.853,3.853,0,0,0,1.309.25l9.642,1.012a5.548,5.548,0,0,0,.949.02c.1-.022.159-.15.185-.382l.1-.923c.01-.086.02-.191.034-.318.024-.235.111-.342.259-.327.13.014.185.2.166.557a7.63,7.63,0,0,0,.613,3.715l.153.333a4.171,4.171,0,0,1-1.774.068l-.316-.034c-.255-.025-.667-.07-1.239-.13l-8.668-.911a12.164,12.164,0,0,0-1.5-.109.386.386,0,0,0-.322.3,5.846,5.846,0,0,0-.274,1.386C430.258,423.408,430.157,423.548,429.988,423.53Zm20.077-.3a1.274,1.274,0,0,1-1.281-1.583,1.422,1.422,0,0,1,.505-.978,1.459,1.459,0,0,1,2.359,1.277A1.275,1.275,0,0,1,450.065,423.229Z" fill="#d5d6d5"/>
        <path id="Path_166" data-name="Path 166" d="M427.807,438.124c-.148-.029-.193-.189-.136-.482l.029-.158c.031-.168.066-.345.1-.534l.049-.252a5.312,5.312,0,0,0-.111-2.723,2.049,2.049,0,0,1-.14-.582c.036-.189.18-.258.431-.211l.969.217a4.455,4.455,0,0,1-.741-3.463,5.542,5.542,0,0,1,2.866-3.966,7.926,7.926,0,0,1,5.52-.724,8.008,8.008,0,0,1,4.945,2.717,5.7,5.7,0,0,1,1.168,4.865,3.708,3.708,0,0,1-2.151,2.912l4.9.934a11.618,11.618,0,0,0,3,.347c.338-.066.52-.223.547-.475q.076-.916.112-1.1c.052-.268.172-.385.36-.349s.26.168.218.4l-.246,1.118a7.293,7.293,0,0,0,.333,3.041.545.545,0,0,1,.022.232q-.061.312-.815.168l-.66-.126-.88-.167-10.845-2.067q-7.451-1.419-8.008-1.394c-.156.014-.322.493-.5,1.435C428.086,438.024,427.974,438.154,427.807,438.124Zm8.776-3.149q3.02.573,3.992.076a2.7,2.7,0,0,0,1.483-1.966,3.092,3.092,0,0,0-1.246-3.039,9.652,9.652,0,0,0-4.524-1.9,12.247,12.247,0,0,0-5.009-.043,3.534,3.534,0,0,0-1.611.849,2.586,2.586,0,0,0-.841,1.42,2.943,2.943,0,0,0,.247,1.871,2.681,2.681,0,0,0,1.2,1.288A43.452,43.452,0,0,0,436.583,434.975Z" fill="#d5d6d5"/>
        <path id="Path_167" data-name="Path 167" d="M401.815,491.533a.5.5,0,0,1-.244-.658,16.371,16.371,0,0,1,1.091-1.951q.242-.4,1.408-2.2,2.337-3.6,3.183-4.989,1-1.635,1.7-2.9,1.413-2.537,1.956-3.427.816-1.335,1.312-1.034t-1.179,3.153a4.813,4.813,0,0,0-.536,1.1q-.384.85.111,1.155a17.208,17.208,0,0,0,2.442.676l3.851.924q1.27.369,4.8,1.162l.544-.891,2.358-3.861q1.317-2.049,2.641-4.436-.72-1.05-3.427-4.4l-2.553-3.054a4.641,4.641,0,0,0-1.037-.972q-.843-.516-1.754.424-.2.216-1.679,2.3c-.313.444-.6.588-.844.437q-.422-.258.123-1.149l4.988-8.167.393-.643q.424-.695.918-.391c.2.121.017.713-.54,1.777q-1.111,2.04-.8,2.977a21.828,21.828,0,0,0,3.069,4.321q1.9,2.451,5.664,7.2L442.6,490.071q.817,1.111,2.66,3.324,1.35,1.57,1.169,1.869t-2.943-.3q-3.523-.795-28.385-5.377-3.182-.582-6.457-1.223-2.792-.549-3.8-.009a8.1,8.1,0,0,0-2.222,2.857Q402.261,491.8,401.815,491.533Zm21.2-8.668q.177.044,1.15.233,6.954,1.512,9.825,2.038c.53.105,1.293.268,2.3.492l1.081.206q-1.584-2.189-4.562-5.766-3.333-4-4.623-5.667-.273.445-.665,1.089l-.665,1.089-1.693,2.773Q424.461,480.489,423.011,482.865Z" fill="#d5d6d5"/>
        <path id="Path_168" data-name="Path 168" d="M391.143,518.35a12.943,12.943,0,0,1-3.735-12.15,14.605,14.605,0,0,1,4.083-7.779,16.025,16.025,0,0,1,4.094-2.528,8.131,8.131,0,0,0,2.191-1.326,5.488,5.488,0,0,0,1.477-3.055,1.148,1.148,0,0,1,.212-.532.406.406,0,0,1,.575-.074,20.46,20.46,0,0,1,1.5,1.455l20.19,20.738.768.79c.378.387.714.733,1.012,1.039l1.779,1.828c.7.721,1.29,1.064,1.766,1.034a4.032,4.032,0,0,0,2.026-1.325q1.107-1.079,1.391-.788t-.223.784a40.495,40.495,0,0,0-7.209,9.042l-.689-.624-11.936-12.26a7.484,7.484,0,0,1-2.373,6.763,10.6,10.6,0,0,1-8.309,3.192A12.845,12.845,0,0,1,391.143,518.35Zm6.029-6.195q7.85,8.063,11.216,4.785a4.022,4.022,0,0,0,1.043-4.416,5.716,5.716,0,0,0-1.122-1.942q-.809-.955-4.895-5.152l-2.468-2.534q-3.8-3.908-5.555-4.668a2.849,2.849,0,0,0-3.334.775,4.345,4.345,0,0,0-.991,5.093Q392.236,507.085,397.172,512.155Z" fill="#d5d6d5"/>
        <path id="Path_169" data-name="Path 169" d="M356.033,527.076q-.244-.395.567-.961a57.049,57.049,0,0,0,5.936-4.3,9.057,9.057,0,0,0,2.251-2.984,1.174,1.174,0,0,1,.422-.531c.131-.082.278.01.44.273q.426.691.683,1.112l.623,1.013a6.951,6.951,0,0,0,.535.76q1.055-5.211,4.683-7.44a7.626,7.626,0,0,1,6.38-1.056q1.967.564,4.1,4.03l2.163,3.517q.365.592,1.8,2.922t3.959,6.437q.671,1.091,1.139,1.143a4.585,4.585,0,0,0,1.959-.795q1.3-.732,1.51-.384c.162.264.012.536-.449.821l-.543.333q-.742.456-2.293,1.309t-2.1,1.186q-.1.062-.968.7t-2.647,1.729l-.94.577-3.3-5.362q-2.35-3.825-3.35-5.671t-.849-1.6q-3.2-5.212-4.666-6.094a2.6,2.6,0,0,0-2.893,0,4.667,4.667,0,0,0-1.936,3.716,2.6,2.6,0,0,0,.167,1.433q.275.615,1.646,2.845l5.238,8.519q2.223,3.616,2.778,4.3a1.212,1.212,0,0,0,1.8.193l1.363-.839c.455-.28.762-.287.924-.024q.185.3-2.473,1.929-2.309,1.419-7.293,4.554-1.156-1.878-3.707-6.028l-6.168-10.03a23.007,23.007,0,0,0-1.785-2.681,1,1,0,0,0-1.09-.113,22.443,22.443,0,0,0-2.728,1.542C356.49,527.34,356.194,527.34,356.033,527.076Z" fill="#d5d6d5"/>
        <path id="Path_170" data-name="Path 170" d="M329.4,535.008c-.089-.256.234-.509.965-.761l2.468-.849a13.959,13.959,0,0,0,5.213-3.21,2.586,2.586,0,0,1,.347-.238q.5-.17.889.8a8.37,8.37,0,0,0,.636,1.314,8,8,0,0,1,5-4.359,10.7,10.7,0,0,1,9.179.828,13.989,13.989,0,0,1,6.241,7.974,13.459,13.459,0,0,1-.077,10.116,11.535,11.535,0,0,1-7.211,6.316,7.321,7.321,0,0,1-6.408-.618L349.29,560q1.7,4.935,2.448,5.69t3.2-.15c.952-.328,1.47-.363,1.558-.107s-.089.46-.531.612a32.932,32.932,0,0,0-9.122,4.8,3.8,3.8,0,0,1-.866.543q-.61.208-1.063-1.107l-.942-2.742-1.813-5.264-9-26.161a2.192,2.192,0,0,0-.708-1.167q-.555-.362-2.071.222Q329.573,535.5,329.4,535.008Zm11.79,1.464,4.114,11.956a6.941,6.941,0,0,0,2.093,3.389,3.541,3.541,0,0,0,3.454.529q5.3-1.823,1.276-13.5a20.412,20.412,0,0,0-4.126-7.6q-2.334-2.387-4.762-1.551a3.9,3.9,0,0,0-2.232,2.21A6.155,6.155,0,0,0,341.193,536.472Z" fill="#d5d6d5"/>
        <path id="Path_171" data-name="Path 171" d="M314.138,536.137q-.072-.429,2.094-.789.513-.086,3.211-.418,1.379-.172,2.689-.389,1.256-.21,4.655-.893l1.7-.341q1.245-.267,1.321.19t-1.249.62q-2.013.276-2.251.785a9.687,9.687,0,0,0,.256,3.48l5.013,30.1q.326,1.942.792,2.246a4.449,4.449,0,0,0,2.44-.024c.967-.161,1.473-.1,1.52.184q.081.484-1.389.794a30.059,30.059,0,0,0-10.1,3.68q-.288-1.716-3.346-20.082l-2.371-14.245a27.053,27.053,0,0,0-.958-4.516q-.309-.624-1.5-.367l-1.718.286Q314.211,536.565,314.138,536.137Z" fill="#d5d6d5"/>
        <path id="Path_172" data-name="Path 172" d="M284.984,536.252c0-.232.176-.347.524-.345l1.16.006,2.029.011,1.451.008a60.19,60.19,0,0,1,6.147.206l.927.005,1.393-.168q.755-.054.752.441c0,.25-.1.375-.292.373l-1.334-.007q-1.275-.064-1.454.689-.117.462-.146,5.8l-.045,8.641q-.03,5.394.485,6.383a2.9,2.9,0,0,0,2.868,1.523,3.809,3.809,0,0,0,3.465-2.022,9.98,9.98,0,0,0,.6-4.252l.048-9.15q.021-4.254.023-4.664l.005-.7.007-1.4q.063-.875-2.384-.886c-.341,0-.512-.12-.51-.353q0-.408.756-.4l.464,0a4.182,4.182,0,0,0,1.392.182l2.55.014,3.25-.042,3.422-.1,1.74.009c.579,0,.87.121.869.352a.235.235,0,0,1-.118.232,1.456,1.456,0,0,1-.522.055,10.387,10.387,0,0,0-2.611.16q-.406.174-.529,1.332-.062.7-.1,6.959l-.111,21.287a50.022,50.022,0,0,0,.224,7.221q.257.96,2.46.97c1.122.006,1.68.125,1.679.357s-.655.383-1.964.454a36.046,36.046,0,0,0-8.377,1.464,4.179,4.179,0,0,1-1.1.226q-.463,0-.445-3.25l.007-1.16q0-1.163.015-3.073.01-1.859.013-2.553l.049-9.222a10.5,10.5,0,0,1-3.294,3.231,9.045,9.045,0,0,1-4.325.847q-5.743-.03-7.168-4.676a16.255,16.255,0,0,1-.5-4.876l.07-13.514q.009-1.508-.484-1.859a5.254,5.254,0,0,0-2.462-.36C285.176,536.659,284.982,536.522,284.984,536.252Z" fill="#d5d6d5"/>
        <path id="Path_173" data-name="Path 173" d="M259.845,533.42q.1-.461,1.176-1.073a8.735,8.735,0,0,1,6.493-.967,4.969,4.969,0,0,1,3.168,1.7,5.927,5.927,0,0,1,.642,3.8q3.545-4.108,7.969-3.167a5.4,5.4,0,0,1,3.616,2.37,5.543,5.543,0,0,1,.658,4.292q-1.52,7.148-14.051,5.845l-.254,1.191a35.216,35.216,0,0,0-1.088,7.062l0,.3q.192,3,3.424,3.692a4.274,4.274,0,0,0,3.236-.437,3.077,3.077,0,0,0,1.581-1.858q.122-.567-1.217-.971-2.006-.6-1.51-2.93a2.87,2.87,0,0,1,1.262-1.9,2.953,2.953,0,0,1,2.3-.37,3.838,3.838,0,0,1,2.483,1.567,3.4,3.4,0,0,1,.513,2.748,5.82,5.82,0,0,1-3.382,3.906,10.068,10.068,0,0,1-6.833.621q-5.9-1.256-7.779-3.85-1.5-2.155-.567-6.525l2.063-9.7q.6-2.837.645-3.3.223-2.444-1.139-2.732a3.989,3.989,0,0,0-2.672.854.8.8,0,0,1-.515.187A.26.26,0,0,1,259.845,533.42Zm10.419,9.279-.592,2.779q5.733.093,6.832-5.069.843-3.972-1.879-4.551a2.271,2.271,0,0,0-2.518,1.244A18.866,18.866,0,0,0,270.264,542.7Z" fill="#d5d6d5"/>
        <path id="Path_174" data-name="Path 174" d="M221.68,511.979q.236-.468.961.027l.932.469,1.5.755,3.627,1.824,2.9,1.459c.1.051.363.182.778.39l1.139.574.674.338c.485.244.673.469.569.678q-.131.26-1.372-.3-1.559-.717-2,.17l-5.854,11.642q-2.7,5.375-2.889,6.656-.237,1.777,1.851,2.827a3.849,3.849,0,0,0,3.866-.143,3.271,3.271,0,0,0,1.283-1.247q.6-.937,2.8-5.313l4.974-9.892q.786-1.563.633-1.967t-1.814-1.238c-.31-.156-.423-.321-.335-.494q.21-.417.78-.13a5.964,5.964,0,0,1,.8.468l10,5.158c.311.157.413.338.309.546s-.57.1-1.4-.312q-.932-.471-1.218-.288l-.365.467-6.4,12.727q-2.454,4.883-2.393,6.183t1.822,2.185a3.83,3.83,0,0,0,4.052-.181,4.27,4.27,0,0,0,1.133-1.16q.432-.664,2.133-4.049l5.186-10.313q1.2-2.4,1.037-2.774a2.977,2.977,0,0,0-1.308-.951l-.776-.39c-.345-.173-.471-.356-.374-.547.112-.224.323-.257.635-.1l1.243.625,2.176,1.094q4.179,2.023,4.452,2.121,2.518,1.19,3.711,1.788l.725.366q.673.337.465.752c-.12.242-.338.286-.648.128l-1.087-.8a2.253,2.253,0,0,0-1.662-.313q-.6.156-1.514,1.979l-4.322,8.6a71.633,71.633,0,0,0-3.7,7.867q.18.678,2.978,2.084c.483.244.664.485.544.727q-.21.416-.883.076a22.409,22.409,0,0,0-10.37-2.357,1.879,1.879,0,0,1-.8-.079c-.173-.088-.189-.27-.051-.545q.39-.779.7-1.27l1.094-2.175a8.655,8.655,0,0,1-8.987.349q-5.223-2.626-4.019-7.344a8.66,8.66,0,0,1-4.539,1.811,10.046,10.046,0,0,1-4.993-1.279q-6.568-3.3-2.9-10.59c.052-.105.182-.364.392-.781s.384-.764.524-1.041l5.521-10.982a9.742,9.742,0,0,0,.891-2.1q.054-.429-.646-.846a20.59,20.59,0,0,0-1.813-1.041Q221.523,512.292,221.68,511.979Z" fill="#d5d6d5"/>
        <path id="Path_175" data-name="Path 175" d="M191.013,531.969a3.855,3.855,0,0,1,2.646-1.422,3.667,3.667,0,0,1,2.84.852,3.822,3.822,0,0,1,1.44,2.63,3.725,3.725,0,0,1-.912,2.862,3.471,3.471,0,0,1-2.572,1.332,4.113,4.113,0,0,1-2.9-1.056,3.665,3.665,0,0,1-1.386-2.508A3.5,3.5,0,0,1,191.013,531.969Zm20.378-30.877c.173-.209.393-.2.66.019l5.911,4.912,4.267,3.545.667.555.4.332c.355.3.455.538.3.729-.119.142-.529-.058-1.235-.6q-1.552-1.215-2.062-1.146t-1.74,1.549l-10.694,12.869q-1.414,1.7-1.4,2.281t1.482,1.8a8.7,8.7,0,0,1,1.056.952c.08.116.045.263-.1.442-.172.207-.483.127-.928-.243a28.587,28.587,0,0,0-9.647-5.453q.355-.607,2.223-3.129l4.707-5.666,6.969-8.386q1.521-1.83,1.445-2.42t-2.038-2.22C211.295,501.54,211.219,501.3,211.391,501.092Z" fill="#d5d6d5"/>
        <path id="Path_176" data-name="Path 176" d="M191.906,480.166q.311-.264,1.063.617l1.7,1.983a13.989,13.989,0,0,0,4.9,3.668,2.618,2.618,0,0,1,.35.236q.339.4-.417,1.119a8.476,8.476,0,0,0-.988,1.075,8,8,0,0,1,5.893,3.049,10.691,10.691,0,0,1,2.606,8.84,13.991,13.991,0,0,1-5.12,8.735,13.461,13.461,0,0,1-9.436,3.649,11.527,11.527,0,0,1-8.524-4.383,7.323,7.323,0,0,1-1.784-6.185l-6.168,5.281q-3.964,3.393-4.391,4.369t1.316,2.92q.982,1.146.673,1.41c-.205.175-.461.086-.765-.27A33,33,0,0,0,165,509.56a3.686,3.686,0,0,1-.823-.606q-.42-.489.637-1.394l2.2-1.886,4.229-3.621,21.017-17.992a2.188,2.188,0,0,0,.825-1.088q.132-.648-.968-1.844Q191.511,480.505,191.906,480.166Zm2.976,11.5-9.606,8.223a6.931,6.931,0,0,0-2.382,3.192,3.537,3.537,0,0,0,.778,3.4q3.644,4.257,13.027-3.779a20.38,20.38,0,0,0,5.547-6.63q1.362-3.048-.308-5a3.9,3.9,0,0,0-2.875-1.264A6.15,6.15,0,0,0,194.882,491.668Z" fill="#d5d6d5"/>
        <path id="Path_177" data-name="Path 177" d="M172.846,430.9c.184-.051.331.118.438.5l1.171,4.223c.08.286.195.7.348,1.255s.265.959.34,1.224c.113.408.087.634-.077.68s-.41-.4-.735-1.338q-.273-.744-.507-.81a4.551,4.551,0,0,0-1.463.274l-8.98,2.49,2.574,9.283,8.727-2.421a3.522,3.522,0,0,0,1.575-.668,2.767,2.767,0,0,0-.064-1.544q-.159-.819.055-.879c.186-.051.336.13.449.54l.077.277q.205.741.432,1.558c.151.545.241.868.27.972q.12.431.359,1.3t.718,2.589c.114.412.09.639-.074.686s-.325-.132-.48-.532c-.095-.261-.191-.533-.292-.816-.167-.44-.35-.7-.548-.777a7.676,7.676,0,0,0-1.75.386l-16.258,4.507a5.314,5.314,0,0,0-1.592.591q-.209.209-.008,1.049.2.975.215,1.152c.009.12-.061.2-.213.243q-.259.072-.371-.329c-.023-.082-.061-.26-.116-.533q-.15-.787-.947-3.656c-.29-1.049-.508-1.773-.652-2.177a2.77,2.77,0,0,1-.2-.542c-.1-.37-.05-.584.156-.64q.277-.078.557.925c.184.667.373,1.047.564,1.137a3.068,3.068,0,0,0,1.525-.207l7.117-1.972-2.575-9.282-6.651,1.844a4.279,4.279,0,0,0-1.865.783q-.227.329.217,1.8c.084.309.035.488-.151.541s-.328-.1-.425-.447l-.043-.154q-.118-.432-.418-1.512c-.206-.739-.36-1.3-.461-1.664q-.522-1.881-.707-2.545l-.234-.848c-.12-.431-.088-.673.1-.724s.413.373.684,1.271a2.066,2.066,0,0,0,.224.568.534.534,0,0,0,.446.291,7.541,7.541,0,0,0,1.471-.324l16.4-4.549a5.3,5.3,0,0,0,1.686-.631q.255-.4-.151-1.86C172.6,431.139,172.641,430.953,172.846,430.9Z" fill="#d5d6d5"/>
        <path id="Path_178" data-name="Path 178" d="M170.051,417.694q.539-.076,1.286.956a4.689,4.689,0,0,1,.9,2.074,2.069,2.069,0,0,1-1.92,2.594A3.967,3.967,0,0,1,173.2,426.7a3.214,3.214,0,0,1-.484,2.354,2.712,2.712,0,0,1-1.946,1.182q-2.6.375-4.568-2.511a17.356,17.356,0,0,1-1.548-3.556l-.793.114a14.909,14.909,0,0,0-3.631.818,2.182,2.182,0,0,0-1.286,2.513,2.882,2.882,0,0,0,.87,1.766,1.893,1.893,0,0,0,1.628.523c.169-.023.234-.168.2-.431a.929.929,0,0,1,.277-.768,1.319,1.319,0,0,1,.81-.441,1.244,1.244,0,0,1,1.594,1.192,1.62,1.62,0,0,1-.317,1.275,1.74,1.74,0,0,1-1.182.656,3.4,3.4,0,0,1-2.735-.8,5.246,5.246,0,0,1-1.693-3.44q-.506-3.486,1.281-4.551a9.5,9.5,0,0,1,2.841-.7l5.922-.857c.971-.14,1.541-.233,1.706-.278q1.117-.324,1.007-1.084a1.889,1.889,0,0,0-.844-1.365c-.263-.177-.4-.319-.417-.425S169.924,417.713,170.051,417.694Zm-2.551,6.06-2.312.334a8.084,8.084,0,0,0,1.895,3.152,2.942,2.942,0,0,0,2.475.678,2.436,2.436,0,0,0,1.579-.818,1.88,1.88,0,0,0,.439-1.545,2.452,2.452,0,0,0-1.832-1.934A7.04,7.04,0,0,0,167.5,423.754Z" fill="#d5d6d5"/>
        <path id="Path_179" data-name="Path 179" d="M170.85,397.278c.16,0,.242.178.248.54q0,.064.012.688t.029,1.68q0,.1.058,3.391.007.416-.2.419-.238.006-.245-.348l-.005-.255-.014-.8q-.039-.48-.234-.556a5.846,5.846,0,0,0-1.348-.057l-7.955.137a5.236,5.236,0,0,0-2.637.539,1.813,1.813,0,0,0-.757,1.682,2.656,2.656,0,0,0,.523,1.533,2.627,2.627,0,0,0,1.28.98,24.9,24.9,0,0,0,3.554.066l6.047-.1q1.056-.02,1.215-.053a.507.507,0,0,0,.375-.574l-.016-.913c-.006-.271.073-.41.232-.413.139,0,.212.157.218.478l0,.223q0,.319.038,2.175.01.642.029,1.712c.013.715.019,1.148.022,1.3l.006.352q.008.384-.248.388c-.106,0-.172-.06-.195-.188s-.041-.554-.054-1.279c-.027-.341-.137-.521-.328-.538l-.448-.026-8.906.154a5.01,5.01,0,0,0-2.544.505,1.811,1.811,0,0,0-.674,1.65,2.733,2.733,0,0,0,.767,1.942,2.435,2.435,0,0,0,1.865.747l9.063-.157a2.482,2.482,0,0,0,1.131-.161c.116-.1.169-.407.16-.933l0-.252a2.052,2.052,0,0,1-.038-.345c0-.232.079-.348.249-.351.149,0,.227.135.231.412l.006.32q-.018.768.041,2.4l.055,3.136c.005.3-.077.449-.248.451q-.223,0-.23-.411a4.584,4.584,0,0,0-.136-1.407.491.491,0,0,0-.4-.217l-8.3.144a21.081,21.081,0,0,0-2.807.144q-.414.1-.4.935l.007.448c0,.192.007.4.01.608.006.277-.066.418-.216.42-.128,0-.2-.045-.226-.141s-.061-.442-.114-1.039a7.322,7.322,0,0,0-.417-1.836,2.807,2.807,0,0,0-.628-1.256c-.24-.23-.36-.4-.362-.507s.083-.172.253-.2.767-.056,1.79-.1a4.323,4.323,0,0,1-2.115-3.906q-.05-2.85,2.084-3.5a4.289,4.289,0,0,1-2.213-3.969,3.229,3.229,0,0,1,1.64-3.234,7.134,7.134,0,0,1,2.967-.5l7.9-.137a3.062,3.062,0,0,0,1.2-.131,2.43,2.43,0,0,0,.158-.995l-.01-.567C170.622,397.4,170.689,397.281,170.85,397.278Z" fill="#d5d6d5"/>
        <path id="Path_180" data-name="Path 180" d="M151.831,391.218a1.272,1.272,0,0,1,1.3,1.566,1.426,1.426,0,0,1-.492.984,1.46,1.46,0,0,1-2.375-1.249A1.272,1.272,0,0,1,151.831,391.218Zm20.073-.549c.191.018.269.208.236.568,0-.02-.042.232-.134.759q-.153.951-.212,1.587l-.308,3.314a.6.6,0,0,1,.093.394q-.031.351-.269.329c-.224-.02-.318-.243-.279-.669a2.972,2.972,0,0,0-.052-1.338,3.812,3.812,0,0,0-1.312-.234l-9.654-.9a5.533,5.533,0,0,0-.948-.007c-.1.023-.159.151-.18.384l-.086.925c-.008.084-.018.191-.029.319q-.033.35-.255.329c-.13-.012-.189-.2-.174-.555a7.658,7.658,0,0,0-.657-3.707l-.158-.332a4.181,4.181,0,0,1,1.772-.089l.317.029,1.24.116,8.68.8a12.079,12.079,0,0,0,1.5.091.385.385,0,0,0,.317-.308,5.754,5.754,0,0,0,.257-1.39C171.635,390.794,171.734,390.654,171.9,390.669Z" fill="#d5d6d5"/>
        <path id="Path_181" data-name="Path 181" d="M173.909,376.044c.148.025.2.186.142.48l-.028.157c-.03.169-.061.347-.1.536l-.045.252a5.3,5.3,0,0,0,.142,2.723,1.991,1.991,0,0,1,.148.579c-.033.189-.177.261-.429.216l-.971-.2a4.46,4.46,0,0,1,.784,3.454,5.542,5.542,0,0,1-2.818,4,7.928,7.928,0,0,1-5.51.791,8.018,8.018,0,0,1-4.979-2.657,5.7,5.7,0,0,1-1.227-4.85,3.711,3.711,0,0,1,2.116-2.939l-4.914-.874a11.7,11.7,0,0,0-3-.31q-.506.1-.54.481c-.044.612-.078.98-.1,1.1q-.072.4-.356.354t-.222-.4l.231-1.122a7.3,7.3,0,0,0-.369-3.036.512.512,0,0,1-.024-.23q.057-.313.811-.179l.662.118.882.157,10.87,1.933q7.467,1.329,8.025,1.3c.154-.016.315-.5.484-1.442C173.631,376.146,173.742,376.014,173.909,376.044Zm-8.737,3.256q-3.024-.538-3.993-.029a2.7,2.7,0,0,0-1.458,1.984A3.087,3.087,0,0,0,161,384.278a9.658,9.658,0,0,0,4.547,1.849,12.223,12.223,0,0,0,5.009-.019,3.522,3.522,0,0,0,1.6-.869,2.557,2.557,0,0,0,.823-1.43,2.927,2.927,0,0,0-.268-1.868,2.7,2.7,0,0,0-1.22-1.273A43.257,43.257,0,0,0,165.172,379.3Z" fill="#d5d6d5"/>
      </g>
    </g>
    <g id="Group_178" data-name="Group 178">
      <g id="Group_177" data-name="Group 177">
        <path id="Path_182" data-name="Path 182" d="M285.329,333.833l-2.154-9.982-2.434.524-.2-.93a7.6,7.6,0,0,0,1.691-.526,1.531,1.531,0,0,0,.749-.653,1.4,1.4,0,0,0,.086-.868l.982-.211,2.665,12.347Z" fill="#14ff00"/>
        <path id="Path_183" data-name="Path 183" d="M293.561,332.706a4.677,4.677,0,0,1-1.92-.2,3.94,3.94,0,0,1-1.568-.944,3.46,3.46,0,0,1-.91-1.623l1.331-.129a2.6,2.6,0,0,0,1.1,1.353,2.821,2.821,0,0,0,1.8.38,3.24,3.24,0,0,0,1.939-.817,3.7,3.7,0,0,0,1.043-2.038,9.806,9.806,0,0,0-.016-3.334,3.246,3.246,0,0,1-.568,1.325,3.445,3.445,0,0,1-1.085.966,3.67,3.67,0,0,1-1.474.456,4.708,4.708,0,0,1-2.217-.27,3.511,3.511,0,0,1-1.592-1.249,4.332,4.332,0,0,1-.736-2.126,4.754,4.754,0,0,1,.29-2.284,3.74,3.74,0,0,1,1.309-1.655,4.478,4.478,0,0,1,2.216-.771,4.137,4.137,0,0,1,2.538.511,4.81,4.81,0,0,1,1.828,2,9.055,9.055,0,0,1,.9,3.331,10.154,10.154,0,0,1-.211,3.62,4.886,4.886,0,0,1-1.423,2.442A4.4,4.4,0,0,1,293.561,332.706Zm-.332-5.8a3.085,3.085,0,0,0,2.353-1.512,2.147,2.147,0,0,0,.293-1.318,4.141,4.141,0,0,0-.526-1.748,2.925,2.925,0,0,0-1.143-1.13,2.7,2.7,0,0,0-1.59-.3,2.657,2.657,0,0,0-1.393.528,2.63,2.63,0,0,0-.864,1.172,3.546,3.546,0,0,0-.191,1.638,3.163,3.163,0,0,0,.9,2.071A2.615,2.615,0,0,0,293.229,326.91Z" fill="#14ff00"/>
        <path id="Path_184" data-name="Path 184" d="M304.887,319.4a4.574,4.574,0,0,1,1.853.453A3.763,3.763,0,0,1,308.123,321a3.579,3.579,0,0,1,.661,1.753l-1.3-.051a2.725,2.725,0,0,0-.9-1.514,2.754,2.754,0,0,0-1.729-.619,2.94,2.94,0,0,0-1.98.581,3.808,3.808,0,0,0-1.226,1.914,10.278,10.278,0,0,0-.394,3.2,3.3,3.3,0,0,1,.769-1.2,3.435,3.435,0,0,1,1.2-.779,3.642,3.642,0,0,1,1.473-.234,4.648,4.648,0,0,1,2.147.566,3.485,3.485,0,0,1,1.388,1.441,4.263,4.263,0,0,1,.434,2.181,4.706,4.706,0,0,1-.6,2.223,3.738,3.738,0,0,1-1.535,1.46,4.53,4.53,0,0,1-2.308.459,4.156,4.156,0,0,1-2.45-.854,4.814,4.814,0,0,1-1.545-2.233,8.982,8.982,0,0,1-.442-3.419,10.219,10.219,0,0,1,.69-3.495,5.018,5.018,0,0,1,1.72-2.262A4.251,4.251,0,0,1,304.887,319.4Zm-.4,5.789a3.1,3.1,0,0,0-2.539,1.175,2.155,2.155,0,0,0-.469,1.267,4.1,4.1,0,0,0,.283,1.8,2.96,2.96,0,0,0,.976,1.272,2.69,2.69,0,0,0,1.528.51,2.741,2.741,0,0,0,1.467-.326,2.64,2.64,0,0,0,1.034-1.043,3.477,3.477,0,0,0,.422-1.592,3.614,3.614,0,0,0-.255-1.584,2.306,2.306,0,0,0-.908-1.059A3.1,3.1,0,0,0,304.491,325.191Z" fill="#14ff00"/>
        <path id="Path_185" data-name="Path 185" d="M310.067,332.564l.162-.9.084-.473a3.621,3.621,0,0,1,.655-1.591,4.24,4.24,0,0,1,1.168-1.053,8.681,8.681,0,0,1,1.456-.707c.516-.2,1.033-.383,1.547-.564a12.739,12.739,0,0,0,1.437-.6,3.885,3.885,0,0,0,1.126-.82,2.379,2.379,0,0,0,.6-1.248,2.1,2.1,0,0,0-.42-1.755,2.824,2.824,0,0,0-1.794-.963,2.927,2.927,0,0,0-2.192.356,2.781,2.781,0,0,0-1.18,1.742l-1.359-.242a4.061,4.061,0,0,1,.865-1.82,3.722,3.722,0,0,1,1.7-1.139,4.88,4.88,0,0,1,2.441-.107,4.829,4.829,0,0,1,2.022.807,3.33,3.33,0,0,1,1.168,1.463,3.426,3.426,0,0,1,.164,1.919,3.586,3.586,0,0,1-.65,1.584,4.142,4.142,0,0,1-1.151,1.037,8.184,8.184,0,0,1-1.435.69q-.765.281-1.534.535a11.533,11.533,0,0,0-1.423.572,3.711,3.711,0,0,0-1.106.8,2.4,2.4,0,0,0-.584,1.24l-.05.284,6.614,1.176-.217,1.222Z" fill="#14ff00"/>
        <path id="Path_186" data-name="Path 186" d="M356.712,357.23l7.669-6.742-1.644-1.87.715-.629a7.649,7.649,0,0,0,1.283,1.221,1.54,1.54,0,0,0,.936.336,1.405,1.405,0,0,0,.8-.348l.664.754-9.487,8.341Z" fill="#d5d6d5"/>
        <path id="Path_187" data-name="Path 187" d="M361.7,363.872a4.684,4.684,0,0,1-.76-1.774A3.938,3.938,0,0,1,361,360.27a3.433,3.433,0,0,1,.975-1.583l.761,1.1a2.608,2.608,0,0,0-.646,1.621,2.814,2.814,0,0,0,.547,1.763,3.233,3.233,0,0,0,1.656,1.3,3.7,3.7,0,0,0,2.287-.08,9.806,9.806,0,0,0,2.9-1.635,3.237,3.237,0,0,1-1.432.147,3.4,3.4,0,0,1-1.372-.478,3.634,3.634,0,0,1-1.116-1.066,4.661,4.661,0,0,1-.841-2.068,3.489,3.489,0,0,1,.315-2,4.326,4.326,0,0,1,1.5-1.677,4.749,4.749,0,0,1,2.138-.858,3.741,3.741,0,0,1,2.082.338,4.481,4.481,0,0,1,1.751,1.561,4.151,4.151,0,0,1,.788,2.467,4.814,4.814,0,0,1-.857,2.569,9.071,9.071,0,0,1-2.471,2.407,10.177,10.177,0,0,1-3.265,1.575,4.88,4.88,0,0,1-2.828-.056A4.4,4.4,0,0,1,361.7,363.872Zm4.9-3.108a3.1,3.1,0,0,0,2.466,1.321,2.158,2.158,0,0,0,1.295-.386,4.144,4.144,0,0,0,1.271-1.31,2.954,2.954,0,0,0,.432-1.548,2.884,2.884,0,0,0-1.653-2.495,2.641,2.641,0,0,0-1.444-.184,3.524,3.524,0,0,0-1.524.63,3.158,3.158,0,0,0-1.369,1.8A2.615,2.615,0,0,0,366.6,360.764Z" fill="#d5d6d5"/>
        <path id="Path_188" data-name="Path 188" d="M376.364,362.845l3.965,7.754-1.072.548a23.776,23.776,0,0,0-2.558-.222q-1.38-.049-2.809,0t-2.766.193q-1.336.139-2.45.351a13.163,13.163,0,0,0-1.846.467l-.676-1.321a20.5,20.5,0,0,1,2.2-.517q1.334-.25,2.984-.408t3.493-.152a30.876,30.876,0,0,1,3.728.237l-3.265-6.385Z" fill="#d5d6d5"/>
        <path id="Path_189" data-name="Path 189" d="M383.058,377.229a5.445,5.445,0,0,1,.336,2.151,3.454,3.454,0,0,1-.6,1.792,3.092,3.092,0,0,1-1.565,1.133,2.736,2.736,0,0,1-1.834.061,3.48,3.48,0,0,1-1.5-1.022,2.8,2.8,0,0,1-.146,1.377,3.852,3.852,0,0,1-.768,1.3,2.894,2.894,0,0,1-1.209.827,3.145,3.145,0,0,1-1.978.08,3.783,3.783,0,0,1-1.734-1.142,6.515,6.515,0,0,1-1.258-2.219,6.416,6.416,0,0,1-.411-2.5,3.783,3.783,0,0,1,.63-1.974,3.14,3.14,0,0,1,1.587-1.183,2.9,2.9,0,0,1,1.459-.122,3.769,3.769,0,0,1,1.413.523,2.824,2.824,0,0,1,.981.978,3.59,3.59,0,0,1,.519-1.741,2.693,2.693,0,0,1,1.461-1.119,3.063,3.063,0,0,1,1.929-.1,3.475,3.475,0,0,1,1.6,1.024A5.4,5.4,0,0,1,383.058,377.229Zm-11.182,3.959a3.882,3.882,0,0,0,1.425,2.025,2.113,2.113,0,0,0,1.973.246,2.2,2.2,0,0,0,1.1-.818,2.729,2.729,0,0,0,.469-1.371,4.19,4.19,0,0,0-.27-1.744,4.108,4.108,0,0,0-.88-1.5,2.715,2.715,0,0,0-1.226-.77,2.2,2.2,0,0,0-1.367.054,2.106,2.106,0,0,0-1.377,1.432A3.824,3.824,0,0,0,371.876,381.188Zm5.878-2.082a3.177,3.177,0,0,0,1.224,1.689,1.975,1.975,0,0,0,1.815.164,2.05,2.05,0,0,0,1.336-1.289,3.508,3.508,0,0,0-1.33-3.745,2.054,2.054,0,0,0-1.847-.162,1.969,1.969,0,0,0-1.3,1.277A3.177,3.177,0,0,0,377.754,379.106Z" fill="#d5d6d5"/>
        <path id="Path_190" data-name="Path 190" d="M371.818,428.7l9.727,3.112.758-2.372.906.29a7.657,7.657,0,0,0-.387,1.729,1.551,1.551,0,0,0,.192.975,1.416,1.416,0,0,0,.71.506l-.306.956-12.031-3.847Z" fill="#d5d6d5"/>
        <path id="Path_191" data-name="Path 191" d="M368.688,436.4a4.7,4.7,0,0,1,1.13-1.565,3.927,3.927,0,0,1,1.6-.889,3.441,3.441,0,0,1,1.86.021l-.55,1.218a2.6,2.6,0,0,0-1.723.281,2.822,2.822,0,0,0-1.23,1.376,3.227,3.227,0,0,0-.256,2.088,3.681,3.681,0,0,0,1.246,1.92,9.784,9.784,0,0,0,2.9,1.648,3.258,3.258,0,0,1-.866-1.152,3.428,3.428,0,0,1-.3-1.424,3.62,3.62,0,0,1,.339-1.505,4.673,4.673,0,0,1,1.339-1.786,3.49,3.49,0,0,1,1.875-.759,4.318,4.318,0,0,1,2.211.423,4.73,4.73,0,0,1,1.835,1.39,3.708,3.708,0,0,1,.783,1.958,4.454,4.454,0,0,1-.437,2.3,4.12,4.12,0,0,1-1.707,1.947,4.8,4.8,0,0,1-2.642.589,9.092,9.092,0,0,1-3.337-.877,10.176,10.176,0,0,1-3.032-1.989,4.886,4.886,0,0,1-1.41-2.451A4.424,4.424,0,0,1,368.688,436.4Zm5.191,2.6a3.094,3.094,0,0,0,.138,2.793,2.142,2.142,0,0,0,1,.911,4.145,4.145,0,0,0,1.777.415,2.939,2.939,0,0,0,1.549-.428,2.7,2.7,0,0,0,1.05-1.232,2.6,2.6,0,0,0-.35-2.8,3.541,3.541,0,0,0-1.324-.981,3.164,3.164,0,0,0-2.247-.247A2.616,2.616,0,0,0,373.879,439Z" fill="#d5d6d5"/>
        <path id="Path_192" data-name="Path 192" d="M374.632,452.781a5.423,5.423,0,0,1-1.483,1.6,3.453,3.453,0,0,1-1.777.64,3.084,3.084,0,0,1-1.856-.528,2.741,2.741,0,0,1-1.187-1.4,3.508,3.508,0,0,1-.124-1.809,2.8,2.8,0,0,1-1.172.737,3.825,3.825,0,0,1-1.5.2,2.894,2.894,0,0,1-1.4-.438,3.133,3.133,0,0,1-1.286-1.5,3.763,3.763,0,0,1-.176-2.069,6.48,6.48,0,0,1,.963-2.361,6.405,6.405,0,0,1,1.7-1.867,3.786,3.786,0,0,1,1.942-.728,3.136,3.136,0,0,1,1.911.515,2.92,2.92,0,0,1,1,1.069,3.754,3.754,0,0,1,.464,1.435,2.808,2.808,0,0,1-.16,1.375,3.586,3.586,0,0,1,1.688-.67,2.7,2.7,0,0,1,1.785.455,3.071,3.071,0,0,1,1.271,1.454,3.469,3.469,0,0,1,.183,1.887A5.411,5.411,0,0,1,374.632,452.781ZM364.6,446.45a3.866,3.866,0,0,0-.706,2.373,2.106,2.106,0,0,0,1.026,1.7,2.195,2.195,0,0,0,1.322.354,2.714,2.714,0,0,0,1.366-.481,4.2,4.2,0,0,0,1.2-1.291,4.142,4.142,0,0,0,.633-1.619,2.718,2.718,0,0,0-.154-1.44,2.206,2.206,0,0,0-.888-1.04,2.107,2.107,0,0,0-1.978-.2A3.822,3.822,0,0,0,364.6,446.45Zm5.275,3.329a3.169,3.169,0,0,0-.569,2.006,1.971,1.971,0,0,0,.994,1.527,2.047,2.047,0,0,0,1.839.251,3.506,3.506,0,0,0,2.119-3.363,2.053,2.053,0,0,0-1.016-1.55,1.965,1.965,0,0,0-1.81-.233A3.166,3.166,0,0,0,369.875,449.779Z" fill="#d5d6d5"/>
        <path id="Path_193" data-name="Path 193" d="M367.526,462.489a3.77,3.77,0,0,1-3.306,1.388,10.493,10.493,0,0,1-7.449-6.277,3.992,3.992,0,0,1,4.133-4.913,8.141,8.141,0,0,1,4.465,2.211,10.412,10.412,0,0,1,2.419,2.756,4.626,4.626,0,0,1,.681,2.586A3.809,3.809,0,0,1,367.526,462.489Zm-9.012-7.591a2.361,2.361,0,0,0-.438,2.442,8.173,8.173,0,0,0,2.593,3.159,8.307,8.307,0,0,0,3.606,2.059,2.379,2.379,0,0,0,2.349-.841,2.408,2.408,0,0,0,.432-2.47,8.169,8.169,0,0,0-2.619-3.215,7.95,7.95,0,0,0-3.564-2A2.428,2.428,0,0,0,358.514,454.9Z" fill="#d5d6d5"/>
        <path id="Path_194" data-name="Path 194" d="M319.274,478.254l2.488,9.9,2.414-.606.232.923a7.527,7.527,0,0,0-1.673.582,1.53,1.53,0,0,0-.725.678,1.39,1.39,0,0,0-.057.869l-.974.246L317.9,478.6Z" fill="#d5d6d5"/>
        <path id="Path_195" data-name="Path 195" d="M311.062,479.662a4.661,4.661,0,0,1,1.925.133,3.926,3.926,0,0,1,1.6.891,3.454,3.454,0,0,1,.964,1.59l-1.325.175a2.612,2.612,0,0,0-1.148-1.315,2.83,2.83,0,0,0-1.818-.32,3.249,3.249,0,0,0-1.909.883,3.692,3.692,0,0,0-.974,2.072,9.794,9.794,0,0,0,.128,3.331,3.25,3.25,0,0,1,.522-1.342,3.423,3.423,0,0,1,1.053-1,3.627,3.627,0,0,1,1.458-.5,4.7,4.7,0,0,1,2.225.194,3.522,3.522,0,0,1,1.634,1.195,4.325,4.325,0,0,1,.8,2.1,4.711,4.711,0,0,1-.212,2.292,3.725,3.725,0,0,1-1.251,1.7,4.471,4.471,0,0,1-2.188.844,4.126,4.126,0,0,1-2.554-.424,4.812,4.812,0,0,1-1.894-1.935,9.043,9.043,0,0,1-1.013-3.3,10.145,10.145,0,0,1,.088-3.624,4.887,4.887,0,0,1,1.341-2.49A4.4,4.4,0,0,1,311.062,479.662Zm.526,5.781a3.1,3.1,0,0,0-2.3,1.59,2.159,2.159,0,0,0-.248,1.328,4.141,4.141,0,0,0,.585,1.73,2.976,2.976,0,0,0,1.18,1.091,2.705,2.705,0,0,0,1.6.242,2.673,2.673,0,0,0,1.373-.574,2.638,2.638,0,0,0,.824-1.2,3.543,3.543,0,0,0,.135-1.643,3.169,3.169,0,0,0-.973-2.039A2.619,2.619,0,0,0,311.588,485.443Z" fill="#d5d6d5"/>
        <path id="Path_196" data-name="Path 196" d="M300.274,493.341a5.436,5.436,0,0,1-2.135-.422,3.434,3.434,0,0,1-1.479-1.175,3.09,3.09,0,0,1-.529-1.857,2.73,2.73,0,0,1,.57-1.746,3.482,3.482,0,0,1,1.473-1.057,2.818,2.818,0,0,1-1.243-.609,3.825,3.825,0,0,1-.959-1.167,2.889,2.889,0,0,1-.364-1.418,3.143,3.143,0,0,1,.6-1.886,3.759,3.759,0,0,1,1.667-1.238,7.239,7.239,0,0,1,5,.045,3.791,3.791,0,0,1,1.64,1.268,3.141,3.141,0,0,1,.567,1.9,2.931,2.931,0,0,1-.384,1.411,3.781,3.781,0,0,1-.975,1.148,2.821,2.821,0,0,1-1.256.587,3.577,3.577,0,0,1,1.458,1.084,2.69,2.69,0,0,1,.551,1.756,3.069,3.069,0,0,1-.566,1.848,3.489,3.489,0,0,1-1.509,1.147A5.4,5.4,0,0,1,300.274,493.341Zm.109-11.862a3.885,3.885,0,0,0-2.391.646,2.112,2.112,0,0,0-.907,1.77,2.19,2.19,0,0,0,.394,1.309,2.733,2.733,0,0,0,1.127.91,4.224,4.224,0,0,0,1.731.344,4.173,4.173,0,0,0,1.712-.312,2.725,2.725,0,0,0,1.143-.89,2.2,2.2,0,0,0,.417-1.3,2.11,2.11,0,0,0-.874-1.786A3.834,3.834,0,0,0,300.383,481.479Zm-.057,6.236a3.171,3.171,0,0,0-2,.571,1.977,1.977,0,0,0-.776,1.649,2.048,2.048,0,0,0,.753,1.7,3.5,3.5,0,0,0,3.974.032,2.053,2.053,0,0,0,.786-1.679,1.967,1.967,0,0,0-.755-1.662A3.169,3.169,0,0,0,300.326,487.715Z" fill="#d5d6d5"/>
        <path id="Path_197" data-name="Path 197" d="M287.9,492.338a5.4,5.4,0,0,1-2.053-.723,3.438,3.438,0,0,1-1.3-1.375,3.1,3.1,0,0,1-.258-1.913,2.748,2.748,0,0,1,.814-1.646,3.473,3.473,0,0,1,1.61-.835,2.826,2.826,0,0,1-1.143-.783,3.849,3.849,0,0,1-.783-1.291,2.891,2.891,0,0,1-.155-1.456,3.141,3.141,0,0,1,.866-1.78,3.771,3.771,0,0,1,1.828-.987,6.5,6.5,0,0,1,2.549-.058,6.415,6.415,0,0,1,2.392.82,3.766,3.766,0,0,1,1.441,1.49,3.128,3.128,0,0,1,.291,1.958,2.925,2.925,0,0,1-.582,1.343,3.784,3.784,0,0,1-1.13,1,2.821,2.821,0,0,1-1.327.4,3.579,3.579,0,0,1,1.289,1.28,2.7,2.7,0,0,1,.294,1.818,3.072,3.072,0,0,1-.825,1.746,3.489,3.489,0,0,1-1.658.921A5.408,5.408,0,0,1,287.9,492.338Zm.857-5.56a3.17,3.17,0,0,0-2.067.279,1.967,1.967,0,0,0-1,1.52,2.037,2.037,0,0,0,.5,1.787,3.5,3.5,0,0,0,3.929.6,2.05,2.05,0,0,0,1.016-1.549,1.965,1.965,0,0,0-.509-1.753A3.155,3.155,0,0,0,288.755,486.778Zm.949-6.164a3.881,3.881,0,0,0-2.458.3,2.113,2.113,0,0,0-1.152,1.621,2.2,2.2,0,0,0,.2,1.353,2.723,2.723,0,0,0,.986,1.062,4.2,4.2,0,0,0,1.663.588,4.123,4.123,0,0,0,1.738-.064,2.736,2.736,0,0,0,1.26-.716,2.2,2.2,0,0,0,.6-1.23,2.114,2.114,0,0,0-.609-1.892A3.843,3.843,0,0,0,289.7,480.614Z" fill="#d5d6d5"/>
        <path id="Path_198" data-name="Path 198" d="M245.2,455.159l-7.7,6.705,1.634,1.878-.719.625a7.6,7.6,0,0,0-1.276-1.228,1.538,1.538,0,0,0-.933-.34,1.4,1.4,0,0,0-.8.345l-.66-.758,9.529-8.294Z" fill="#d5d6d5"/>
        <path id="Path_199" data-name="Path 199" d="M240.242,448.49a4.666,4.666,0,0,1,.751,1.778,3.924,3.924,0,0,1-.071,1.828,3.446,3.446,0,0,1-.984,1.578l-.755-1.1a2.6,2.6,0,0,0,.655-1.618,2.832,2.832,0,0,0-.537-1.765,3.241,3.241,0,0,0-1.65-1.3,3.7,3.7,0,0,0-2.289.068,9.809,9.809,0,0,0-2.914,1.62,3.263,3.263,0,0,1,1.435-.14,3.425,3.425,0,0,1,1.369.486,3.644,3.644,0,0,1,1.11,1.071,4.69,4.69,0,0,1,.831,2.073,3.507,3.507,0,0,1-.325,2,4.322,4.322,0,0,1-1.51,1.669,4.766,4.766,0,0,1-2.141.846,3.732,3.732,0,0,1-2.079-.348,4.448,4.448,0,0,1-1.742-1.571,4.119,4.119,0,0,1-.777-2.469,4.79,4.79,0,0,1,.869-2.565,9.044,9.044,0,0,1,2.483-2.394,10.172,10.172,0,0,1,3.273-1.56,4.9,4.9,0,0,1,2.828.07A4.407,4.407,0,0,1,240.242,448.49Zm-4.918,3.083a3.094,3.094,0,0,0-2.46-1.333,2.153,2.153,0,0,0-1.3.379,4.169,4.169,0,0,0-1.278,1.305,2.935,2.935,0,0,0-.439,1.545,2.7,2.7,0,0,0,.506,1.537,2.6,2.6,0,0,0,2.579,1.157,3.542,3.542,0,0,0,1.526-.622,3.166,3.166,0,0,0,1.378-1.791A2.622,2.622,0,0,0,235.324,451.573Z" fill="#d5d6d5"/>
        <path id="Path_200" data-name="Path 200" d="M235.069,439.8a4.618,4.618,0,0,1,.5,1.863,3.914,3.914,0,0,1-.321,1.8,3.451,3.451,0,0,1-1.189,1.429l-.6-1.2a2.6,2.6,0,0,0,.87-1.513,2.828,2.828,0,0,0-.289-1.823,3.245,3.245,0,0,0-1.457-1.518,3.68,3.68,0,0,0-2.274-.246,9.762,9.762,0,0,0-3.11,1.2,3.256,3.256,0,0,1,1.441.057,3.461,3.461,0,0,1,1.291.669,3.673,3.673,0,0,1,.951,1.214,4.683,4.683,0,0,1,.54,2.166,3.5,3.5,0,0,1-.6,1.934,4.327,4.327,0,0,1-1.723,1.446,4.734,4.734,0,0,1-2.237.545,3.718,3.718,0,0,1-2.013-.631,4.465,4.465,0,0,1-1.511-1.793,4.124,4.124,0,0,1-.43-2.554,4.813,4.813,0,0,1,1.212-2.42,9.071,9.071,0,0,1,2.79-2.033,10.145,10.145,0,0,1,3.456-1.094,4.873,4.873,0,0,1,2.79.457A4.392,4.392,0,0,1,235.069,439.8Zm-5.295,2.379a2.985,2.985,0,0,0-.937-1.105,3.036,3.036,0,0,0-1.316-.554,2.154,2.154,0,0,0-1.335.2,4.161,4.161,0,0,0-1.446,1.116,2.951,2.951,0,0,0-.647,1.471,2.7,2.7,0,0,0,.292,1.591,2.6,2.6,0,0,0,2.393,1.5,3.525,3.525,0,0,0,1.6-.407,3.16,3.16,0,0,0,1.611-1.585A2.616,2.616,0,0,0,229.774,442.182Z" fill="#d5d6d5"/>
        <path id="Path_201" data-name="Path 201" d="M218.735,434.4a3.769,3.769,0,0,1,.518-3.548,10.487,10.487,0,0,1,9.219-3.143,3.989,3.989,0,0,1,2.076,6.075,8.136,8.136,0,0,1-4.2,2.684,10.42,10.42,0,0,1-3.609.651,4.64,4.64,0,0,1-2.566-.75A3.819,3.819,0,0,1,218.735,434.4Zm11.153-3.8a2.369,2.369,0,0,0-1.867-1.636,8.186,8.186,0,0,0-4.042.592,8.315,8.315,0,0,0-3.625,2.027,2.385,2.385,0,0,0-.492,2.446,2.412,2.412,0,0,0,1.893,1.645,8.149,8.149,0,0,0,4.106-.586,7.936,7.936,0,0,0,3.552-2.02A2.432,2.432,0,0,0,229.888,430.593Z" fill="#d5d6d5"/>
        <path id="Path_202" data-name="Path 202" d="M233.36,376.029l-9.308-4.2-1.024,2.269-.868-.392a7.542,7.542,0,0,0,.582-1.673,1.538,1.538,0,0,0-.08-.989,1.417,1.417,0,0,0-.647-.585l.413-.915,11.513,5.193Z" fill="#d5d6d5"/>
        <path id="Path_203" data-name="Path 203" d="M237.337,368.748a4.66,4.66,0,0,1-1.3,1.428,3.94,3.94,0,0,1-1.689.7,3.443,3.443,0,0,1-1.846-.231l.685-1.148a2.607,2.607,0,0,0,1.743-.084,2.829,2.829,0,0,0,1.379-1.228,3.249,3.249,0,0,0,.492-2.045,3.687,3.687,0,0,0-1.023-2.049,9.78,9.78,0,0,0-2.69-1.966,3.27,3.27,0,0,1,.727,1.243,3.383,3.383,0,0,1,.134,1.447,3.635,3.635,0,0,1-.508,1.457,4.675,4.675,0,0,1-1.532,1.624,3.5,3.5,0,0,1-1.949.541,4.319,4.319,0,0,1-2.148-.671,4.743,4.743,0,0,1-1.667-1.588,3.742,3.742,0,0,1-.556-2.035,4.488,4.488,0,0,1,.7-2.241,4.136,4.136,0,0,1,1.917-1.74,4.812,4.812,0,0,1,2.693-.286,9.1,9.1,0,0,1,3.216,1.251,10.214,10.214,0,0,1,2.787,2.318,4.882,4.882,0,0,1,1.122,2.6A4.407,4.407,0,0,1,237.337,368.748Zm-4.861-3.173a3.1,3.1,0,0,0,.18-2.792,2.154,2.154,0,0,0-.889-1.017,4.145,4.145,0,0,0-1.718-.614,2.95,2.95,0,0,0-1.588.248,2.712,2.712,0,0,0-1.183,1.106,2.6,2.6,0,0,0,.03,2.825,3.528,3.528,0,0,0,1.205,1.125,3.155,3.155,0,0,0,2.2.5A2.616,2.616,0,0,0,232.476,365.575Z" fill="#d5d6d5"/>
        <path id="Path_204" data-name="Path 204" d="M243.046,360.413a4.683,4.683,0,0,1-1.481,1.238,3.925,3.925,0,0,1-1.769.465,3.438,3.438,0,0,1-1.8-.479l.835-1.044a2.6,2.6,0,0,0,1.738.153,2.821,2.821,0,0,0,1.533-1.03,3.246,3.246,0,0,0,.765-1.959,3.7,3.7,0,0,0-.734-2.168,9.818,9.818,0,0,0-2.4-2.314,3.26,3.26,0,0,1,.553,1.331,3.45,3.45,0,0,1-.063,1.452,3.645,3.645,0,0,1-.7,1.375,4.655,4.655,0,0,1-1.737,1.4,3.5,3.5,0,0,1-2,.271,4.3,4.3,0,0,1-2.037-.955,4.738,4.738,0,0,1-1.436-1.8,3.739,3.739,0,0,1-.275-2.091,4.51,4.51,0,0,1,.991-2.126,4.147,4.147,0,0,1,2.137-1.464,4.809,4.809,0,0,1,2.706.082,9.052,9.052,0,0,1,3.017,1.676,10.167,10.167,0,0,1,2.447,2.675,4.9,4.9,0,0,1,.759,2.724A4.4,4.4,0,0,1,243.046,360.413Zm-4.387-3.8a3.085,3.085,0,0,0,.557-2.741,2.16,2.16,0,0,0-.741-1.129,4.174,4.174,0,0,0-1.621-.841,2.945,2.945,0,0,0-1.607.032,2.7,2.7,0,0,0-1.321.934,2.666,2.666,0,0,0-.593,1.365,2.637,2.637,0,0,0,.239,1.438,3.565,3.565,0,0,0,1.041,1.278,3.16,3.16,0,0,0,2.116.795A2.617,2.617,0,0,0,238.659,356.609Z" fill="#d5d6d5"/>
        <path id="Path_205" data-name="Path 205" d="M248.7,353.775l-7.2-7.244-1.765,1.755-.671-.676a7.629,7.629,0,0,0,1.141-1.355,1.533,1.533,0,0,0,.277-.953,1.4,1.4,0,0,0-.4-.777l.713-.708,8.9,8.961Z" fill="#d5d6d5"/>
      </g>
    </g>
  </g>
</svg>
