<svg xmlns="http://www.w3.org/2000/svg" width="280.013" height="28.226" viewBox="0 0 280.013 28.226">
  <g id="Group_125" data-name="Group 125" transform="translate(-0.001)">
    <g id="Group_110" data-name="Group 110" transform="translate(0.001 0.038)">
      <path id="Path_49" data-name="Path 49" d="M86.316,238.725V210.966H98.278a8.43,8.43,0,0,1,3.753.841A9.732,9.732,0,0,1,104.984,214a10.254,10.254,0,0,1,1.935,3.087,9.264,9.264,0,0,1,.7,3.5,9.942,9.942,0,0,1-.666,3.578,10.083,10.083,0,0,1-1.856,3.089,8.859,8.859,0,0,1-2.893,2.148,8.628,8.628,0,0,1-3.734.8H93.939v8.523Zm7.623-15.169h4.026a1.789,1.789,0,0,0,1.31-.644,3.417,3.417,0,0,0,.606-2.328,3.068,3.068,0,0,0-.7-2.345,2.125,2.125,0,0,0-1.406-.625H93.939Z" transform="translate(-86.316 -210.81)" fill="#fff"/>
      <path id="Path_50" data-name="Path 50" d="M110.21,239.05a13.359,13.359,0,0,1-5.745-1.212,14.16,14.16,0,0,1-4.418-3.188,14.407,14.407,0,0,1-2.855-4.514,13.982,13.982,0,0,1-1.015-5.24,13.616,13.616,0,0,1,1.056-5.276,13.972,13.972,0,0,1,2.95-4.478,14.435,14.435,0,0,1,4.5-3.087,13.881,13.881,0,0,1,5.69-1.154,13.359,13.359,0,0,1,5.745,1.212,14.089,14.089,0,0,1,4.418,3.207,14.432,14.432,0,0,1,2.835,4.533,14.164,14.164,0,0,1,1,5.2,13.47,13.47,0,0,1-1.056,5.257,14.241,14.241,0,0,1-2.931,4.457,14.429,14.429,0,0,1-4.476,3.108A13.661,13.661,0,0,1,110.21,239.05Zm-6.294-14.074a9.415,9.415,0,0,0,.39,2.716,7.1,7.1,0,0,0,1.173,2.328,5.89,5.89,0,0,0,1.973,1.64,6.672,6.672,0,0,0,5.69-.019,5.748,5.748,0,0,0,1.973-1.681,7.206,7.206,0,0,0,1.133-2.364,9.931,9.931,0,0,0,.374-2.7,9.441,9.441,0,0,0-.393-2.716,6.685,6.685,0,0,0-1.193-2.306,6.011,6.011,0,0,0-1.993-1.6,6.747,6.747,0,0,0-5.63.019,5.843,5.843,0,0,0-1.973,1.662,7.023,7.023,0,0,0-1.154,2.347A9.792,9.792,0,0,0,103.916,224.975Z" transform="translate(-72.563 -210.901)" fill="#fff"/>
      <path id="Path_51" data-name="Path 51" d="M132.228,217.614h-7.975v21.11H116.63v-21.11h-8.016v-6.648h23.613Z" transform="translate(-55.213 -210.81)" fill="#fff"/>
      <path id="Path_52" data-name="Path 52" d="M133.18,239.05a13.37,13.37,0,0,1-5.748-1.212,14.177,14.177,0,0,1-4.416-3.188,14.407,14.407,0,0,1-2.855-4.514,13.985,13.985,0,0,1-1.018-5.24,13.616,13.616,0,0,1,1.056-5.276,14.018,14.018,0,0,1,2.953-4.478,14.38,14.38,0,0,1,4.5-3.087,13.87,13.87,0,0,1,5.688-1.154,13.362,13.362,0,0,1,5.748,1.212,14.117,14.117,0,0,1,4.418,3.207,14.383,14.383,0,0,1,2.833,4.533,14.115,14.115,0,0,1,1,5.2,13.468,13.468,0,0,1-1.054,5.257,14.207,14.207,0,0,1-2.934,4.457,14.373,14.373,0,0,1-4.476,3.108A13.65,13.65,0,0,1,133.18,239.05Zm-6.294-14.074a9.414,9.414,0,0,0,.39,2.716,7.106,7.106,0,0,0,1.173,2.328,5.868,5.868,0,0,0,1.973,1.64,6.667,6.667,0,0,0,5.688-.019,5.756,5.756,0,0,0,1.976-1.681,7.206,7.206,0,0,0,1.133-2.364,10.021,10.021,0,0,0,.371-2.7,9.439,9.439,0,0,0-.39-2.716,6.685,6.685,0,0,0-1.193-2.306,6.036,6.036,0,0,0-1.993-1.6,6.132,6.132,0,0,0-2.8-.606,6.054,6.054,0,0,0-2.833.625,5.874,5.874,0,0,0-1.976,1.662,7.065,7.065,0,0,0-1.152,2.347A9.7,9.7,0,0,0,126.886,224.975Z" transform="translate(-40.526 -210.901)" fill="#fff"/>
      <path id="Path_53" data-name="Path 53" d="M146,239.05a13.362,13.362,0,0,1-5.748-1.212,14.216,14.216,0,0,1-4.418-3.188,14.443,14.443,0,0,1-2.852-4.514,13.985,13.985,0,0,1-1.018-5.24,13.617,13.617,0,0,1,1.056-5.276,14.018,14.018,0,0,1,2.953-4.478,14.38,14.38,0,0,1,4.5-3.087,13.862,13.862,0,0,1,5.688-1.154,13.363,13.363,0,0,1,5.748,1.212,14.116,14.116,0,0,1,4.418,3.207,14.382,14.382,0,0,1,2.833,4.533,14.114,14.114,0,0,1,1,5.2,13.511,13.511,0,0,1-1.054,5.257,14.207,14.207,0,0,1-2.934,4.457,14.372,14.372,0,0,1-4.476,3.108A13.658,13.658,0,0,1,146,239.05ZM139.7,224.975a9.415,9.415,0,0,0,.39,2.716,7.059,7.059,0,0,0,1.173,2.328,5.868,5.868,0,0,0,1.973,1.64,6.667,6.667,0,0,0,5.688-.019,5.78,5.78,0,0,0,1.976-1.681,7.255,7.255,0,0,0,1.133-2.364,10.023,10.023,0,0,0,.371-2.7,9.522,9.522,0,0,0-.39-2.716,6.683,6.683,0,0,0-1.193-2.306,6.019,6.019,0,0,0-1.995-1.6,6.115,6.115,0,0,0-2.795-.606,6.047,6.047,0,0,0-2.833.625,5.874,5.874,0,0,0-1.976,1.662,7.017,7.017,0,0,0-1.152,2.347A9.7,9.7,0,0,0,139.7,224.975Z" transform="translate(-22.652 -210.901)" fill="#fff"/>
    </g>
    <g id="Group_111" data-name="Group 111" transform="translate(144.083)">
      <path id="Path_54" data-name="Path 54" d="M165.011,217.61a5.985,5.985,0,0,0-1.135-.92,11.485,11.485,0,0,0-1.739-.92,12.885,12.885,0,0,0-2.189-.7,10.812,10.812,0,0,0-2.445-.275,6.656,6.656,0,0,0-4.086,1.018,3.368,3.368,0,0,0-1.31,2.814,3.058,3.058,0,0,0,.412,1.662,3.53,3.53,0,0,0,1.269,1.133,9.962,9.962,0,0,0,2.151.86q1.29.373,3.01.8a34.121,34.121,0,0,1,3.813,1.135,10.9,10.9,0,0,1,2.874,1.523,6.253,6.253,0,0,1,1.818,2.208,7.189,7.189,0,0,1,.644,3.188,7.742,7.742,0,0,1-.8,3.635,6.834,6.834,0,0,1-2.191,2.483,9.628,9.628,0,0,1-3.223,1.406,16.617,16.617,0,0,1-3.949.45,19.675,19.675,0,0,1-6.119-.958,17.444,17.444,0,0,1-5.336-2.795l1.993-3.753a9.5,9.5,0,0,0,1.466,1.133,13.705,13.705,0,0,0,2.23,1.154,19.271,19.271,0,0,0,2.756.9,12.607,12.607,0,0,0,3.089.371,7.416,7.416,0,0,0,3.987-.9,2.954,2.954,0,0,0,1.406-2.658,2.85,2.85,0,0,0-.527-1.76,4.538,4.538,0,0,0-1.506-1.231,13.187,13.187,0,0,0-2.383-.958q-1.408-.431-3.207-.9a33.342,33.342,0,0,1-3.616-1.154,9.085,9.085,0,0,1-2.56-1.466,5.753,5.753,0,0,1-1.545-2.014,6.682,6.682,0,0,1-.529-2.795,8.053,8.053,0,0,1,.783-3.616,7.715,7.715,0,0,1,2.131-2.658,9.332,9.332,0,0,1,3.185-1.624,13.944,13.944,0,0,1,3.987-.546,14.634,14.634,0,0,1,5.2.9,17.285,17.285,0,0,1,4.184,2.23Z" transform="translate(-146.48 -210.885)" fill="#fff"/>
      <path id="Path_55" data-name="Path 55" d="M178.531,214.836H169.3v23.888h-4.418V214.836h-9.263v-3.87h22.909Z" transform="translate(-133.728 -210.772)" fill="#fff"/>
      <path id="Path_56" data-name="Path 56" d="M177.966,234.972a7.034,7.034,0,0,0,3.638-.86,6.9,6.9,0,0,0,2.325-2.249,9.441,9.441,0,0,0,1.25-3.166,17.907,17.907,0,0,0,.371-3.657V210.966h4.418V225.04a21.022,21.022,0,0,1-.666,5.376,12.438,12.438,0,0,1-2.11,4.418,10.056,10.056,0,0,1-3.734,2.989,12.619,12.619,0,0,1-5.494,1.1,12.359,12.359,0,0,1-5.609-1.154,10.1,10.1,0,0,1-3.7-3.089,12.658,12.658,0,0,1-2.033-4.438,21.364,21.364,0,0,1-.625-5.2V210.966h4.378V225.04a18.093,18.093,0,0,0,.371,3.7,9.5,9.5,0,0,0,1.253,3.166,6.628,6.628,0,0,0,2.345,2.23A7.174,7.174,0,0,0,177.966,234.972Z" transform="translate(-119.247 -210.772)" fill="#fff"/>
      <path id="Path_57" data-name="Path 57" d="M177.872,238.725V210.966h9.852a14.706,14.706,0,0,1,5.884,1.094,12.154,12.154,0,0,1,4.222,2.972,12.5,12.5,0,0,1,2.56,4.4,16.562,16.562,0,0,1,.86,5.374,16.231,16.231,0,0,1-.958,5.728,12.535,12.535,0,0,1-2.716,4.378,12.094,12.094,0,0,1-4.263,2.816,15.009,15.009,0,0,1-5.59,1Zm18.922-13.919a12.775,12.775,0,0,0-.606-4.026,8.757,8.757,0,0,0-1.779-3.147,8.254,8.254,0,0,0-2.852-2.052,9.4,9.4,0,0,0-3.832-.745H182.25v20.018h5.475a9.386,9.386,0,0,0,3.889-.764,8.019,8.019,0,0,0,2.855-2.11,9.089,9.089,0,0,0,1.739-3.188A13.057,13.057,0,0,0,196.794,224.806Z" transform="translate(-102.693 -210.772)" fill="#fff"/>
      <path id="Path_58" data-name="Path 58" d="M188.989,238.725V210.966h4.378v27.759Z" transform="translate(-87.187 -210.772)" fill="#fff"/>
      <path id="Path_59" data-name="Path 59" d="M205.417,239.034A12.171,12.171,0,0,1,200,237.841a13.47,13.47,0,0,1-4.2-3.168,14.3,14.3,0,0,1-2.718-4.514,14.607,14.607,0,0,1-.958-5.2,14.176,14.176,0,0,1,1.018-5.316,14.755,14.755,0,0,1,2.795-4.5,13.358,13.358,0,0,1,4.222-3.108,12.342,12.342,0,0,1,5.336-1.152,11.852,11.852,0,0,1,5.415,1.231,13.638,13.638,0,0,1,4.184,3.226,14.778,14.778,0,0,1,2.7,4.514,14.482,14.482,0,0,1-.038,10.458,14.007,14.007,0,0,1-2.795,4.476,13.735,13.735,0,0,1-4.241,3.089A12.265,12.265,0,0,1,205.417,239.034Zm-8.837-14.074a11.623,11.623,0,0,0,.627,3.791A10.244,10.244,0,0,0,198.984,232a8.672,8.672,0,0,0,2.8,2.249,7.939,7.939,0,0,0,3.674.841,7.707,7.707,0,0,0,3.734-.881,8.746,8.746,0,0,0,2.756-2.325,10.472,10.472,0,0,0,1.719-3.245,11.788,11.788,0,0,0,.587-3.674,11.646,11.646,0,0,0-.625-3.813,10.132,10.132,0,0,0-1.779-3.207,8.908,8.908,0,0,0-2.776-2.227,8.325,8.325,0,0,0-7.369.038,8.927,8.927,0,0,0-2.776,2.287,10.273,10.273,0,0,0-1.741,3.226A11.589,11.589,0,0,0,196.58,224.959Z" transform="translate(-82.816 -210.885)" fill="#fff"/>
    </g>
  </g>
</svg>
