<svg xmlns="http://www.w3.org/2000/svg" width="1921" height="419" viewBox="0 0 1921 419">
  <g id="Group_150" data-name="Group 150" transform="translate(0 -7419)">
    <rect id="Rectangle_101" data-name="Rectangle 101" width="1921" height="419" transform="translate(0 7419)" fill="#151515"/>
    <g id="Group_149" data-name="Group 149" transform="translate(-30)">
      <g id="Group_124" data-name="Group 124" transform="translate(0 1450)">
        <text id="Iran-Iraq_War" data-name="Iran-Iraq War" transform="translate(382 6197)" fill="#ddd" font-size="56" font-family="BodoniSvtyTwoOSITCTT-Bold, 'Bodoni \37 2 Oldstyle'" font-weight="700"><tspan x="0" y="0">Iran-Iraq War</tspan></text>
        <text id="_1980" data-name="1980" transform="translate(382 6110)" fill="#ddd" font-size="36" font-family="AlNile, Al Nile" letter-spacing="2.382em"><tspan x="0" y="0">1980</tspan></text>
        <text id="_1988" data-name="1988" transform="translate(382 6258)" fill="#ddd" font-size="36" font-family="AlNile, Al Nile" letter-spacing="2.382em"><tspan x="0" y="0">1988</tspan></text>
      </g>
      <g id="Group_123" data-name="Group 123" transform="translate(0 1450)">
        <text id="The_Gulf_War" data-name="The Gulf War" transform="translate(1294 6197)" fill="#ddd" font-size="56" font-family="BodoniSvtyTwoOSITCTT-Bold, 'Bodoni \37 2 Oldstyle'" font-weight="700"><tspan x="0" y="0">The Gulf War</tspan></text>
        <text id="_1990" data-name="1990" transform="translate(1293 6110)" fill="#ddd" font-size="36" font-family="AlNile, Al Nile" letter-spacing="2.282em"><tspan x="0" y="0">1990</tspan></text>
        <text id="_1991" data-name="1991" transform="translate(1293 6258)" fill="#ddd" font-size="36" font-family="AlNile, Al Nile" letter-spacing="2.332em"><tspan x="0" y="0">1991</tspan></text>
      </g>
      <g id="Group_122" data-name="Group 122" transform="translate(-22812.516 17305.484)">
        <circle id="Ellipse_3" data-name="Ellipse 3" cx="121.5" cy="121.5" r="121.5" transform="translate(23686.516 -9798.484)" fill="#fff"/>
        <path id="Path_71" data-name="Path 71" d="M31.155,132.421a59.116,59.116,0,0,1,2.9-15.358l11.3-36.221c2.821-9.091,3.759-13.359,1.181-15.358H45.95c-4.347,0-4.347.145-6.81,4.057L28.563,85.623c-3.622,5.94-4.347,7.244-4.347,8.258S26.39,96.2,29,96.634l4.636.869c1.159.869.869,3.332-.435,4.2-6.085-.29-10.721-.435-16.662-.435-5.361,0-10.287.145-15.068.435a2.855,2.855,0,0,1-.145-4.2l3.622-.58c5.8-.869,8.258-2.608,13.474-10C20.3,84.319,34.069,65.339,39.43,57.515L62.611,24.192c5.506-7.824,8.548-12.895,8.983-15.5,5.216-.29,10.577-4.057,13.04-5.361,1.159,0,2.318.58,2.318,1.594,0,2.318-.29,8.4-.724,20.863-.58,18.545-1.014,37.235-1.3,55.781-.29,13.185.29,14.633,7.534,15.5l3.477.435a3.311,3.311,0,0,1-.58,4.2c-6.085-.29-11.881-.435-18.835-.435q-11.084,0-17.821.435c-1.739-.724-1.594-3.332-.435-4.2l3.912-.58c6.085-.869,6.81-2.028,7.1-8.838l.869-19.27c.093-1.951-.172-2.77-1.366-3.107-2.817,1.79-4.561,5.67-7.488,15.132L50.859,114.165a68.691,68.691,0,0,0-3.332,16.952c-.145,12.17,5.651,20.284,20.429,20.284,18.545,0,27.383-17.1,33.034-34.628l6.954-21.733a237.146,237.146,0,0,0,5.94-23.182c.869-4.926-.435-6.665-6.665-7.679l-3.767-.58a2.85,2.85,0,0,1,.58-4.057c5.94.29,11.156.435,17.386.435,5.8,0,10.287-.145,16.082-.435,1.014.869,1.3,3.187,0,4.057l-3.767.724c-4.347.869-7.534,1.884-10,6.52-1.449,2.608-4.057,10.287-8.4,24.2l-7.1,22.6c-3.477,10.866-7.969,22.457-16.662,30.281-7.244,6.375-18.256,10-28.253,10C43.615,157.92,30.575,150.241,31.155,132.421ZM64.35,32.16l-16.082,24.2c-1.449,2.173-1.159,2.608,2.608,2.608H66.668c2.9,0,3.332-.29,3.477-3.477L71.449,31l.29-9.273h-.29C70.435,23.467,68.262,26.365,64.35,32.16Z" transform="translate(23739.965 -9755.939)"/>
      </g>
    </g>
    <text id="Abdulhamid" transform="translate(868 7803)" fill="#fff" font-size="36" font-family="BodoniSvtyTwoOSITCTT-Bold, 'Bodoni \37 2 Oldstyle'" font-weight="700"><tspan x="0" y="0" text-decoration="underline">A</tspan><tspan y="0">bd</tspan><tspan y="0" text-decoration="underline">u</tspan><tspan y="0">lhamid</tspan></text>
  </g>
</svg>
